%TF.GenerationSoftware,KiCad,Pcbnew,9.0.7*%
%TF.CreationDate,2026-01-22T22:05:33-06:00*%
%TF.ProjectId,HACK PAD!,4841434b-2050-4414-9421-2e6b69636164,rev?*%
%TF.SameCoordinates,Original*%
%TF.FileFunction,Legend,Bot*%
%TF.FilePolarity,Positive*%
%FSLAX46Y46*%
G04 Gerber Fmt 4.6, Leading zero omitted, Abs format (unit mm)*
G04 Created by KiCad (PCBNEW 9.0.7) date 2026-01-22 22:05:33*
%MOMM*%
%LPD*%
G01*
G04 APERTURE LIST*
%ADD10C,0.101600*%
%ADD11C,0.150000*%
%ADD12C,0.100000*%
%ADD13C,0.025400*%
%ADD14C,0.254000*%
%ADD15C,0.120000*%
%ADD16C,0.127000*%
G04 APERTURE END LIST*
D10*
X57827333Y-39839485D02*
X57827333Y-40559152D01*
X57827333Y-40559152D02*
X57785000Y-40643818D01*
X57785000Y-40643818D02*
X57742666Y-40686152D01*
X57742666Y-40686152D02*
X57658000Y-40728485D01*
X57658000Y-40728485D02*
X57488666Y-40728485D01*
X57488666Y-40728485D02*
X57404000Y-40686152D01*
X57404000Y-40686152D02*
X57361666Y-40643818D01*
X57361666Y-40643818D02*
X57319333Y-40559152D01*
X57319333Y-40559152D02*
X57319333Y-39839485D01*
X56430333Y-40728485D02*
X56938333Y-40728485D01*
X56684333Y-40728485D02*
X56684333Y-39839485D01*
X56684333Y-39839485D02*
X56769000Y-39966485D01*
X56769000Y-39966485D02*
X56853667Y-40051152D01*
X56853667Y-40051152D02*
X56938333Y-40093485D01*
D11*
X58673808Y-37737319D02*
X58007142Y-38737319D01*
X58007142Y-37737319D02*
X58673808Y-38737319D01*
X57626189Y-38737319D02*
X57626189Y-37737319D01*
X57197618Y-38451604D02*
X56721428Y-38451604D01*
X57292856Y-38737319D02*
X56959523Y-37737319D01*
X56959523Y-37737319D02*
X56626190Y-38737319D01*
X56102380Y-37737319D02*
X55911904Y-37737319D01*
X55911904Y-37737319D02*
X55816666Y-37784938D01*
X55816666Y-37784938D02*
X55721428Y-37880176D01*
X55721428Y-37880176D02*
X55673809Y-38070652D01*
X55673809Y-38070652D02*
X55673809Y-38403985D01*
X55673809Y-38403985D02*
X55721428Y-38594461D01*
X55721428Y-38594461D02*
X55816666Y-38689700D01*
X55816666Y-38689700D02*
X55911904Y-38737319D01*
X55911904Y-38737319D02*
X56102380Y-38737319D01*
X56102380Y-38737319D02*
X56197618Y-38689700D01*
X56197618Y-38689700D02*
X56292856Y-38594461D01*
X56292856Y-38594461D02*
X56340475Y-38403985D01*
X56340475Y-38403985D02*
X56340475Y-38070652D01*
X56340475Y-38070652D02*
X56292856Y-37880176D01*
X56292856Y-37880176D02*
X56197618Y-37784938D01*
X56197618Y-37784938D02*
X56102380Y-37737319D01*
D12*
%TO.C,D14*%
X44440858Y-34799999D02*
X43540858Y-33899999D01*
X44440858Y-33899999D01*
X44440858Y-34799999D01*
G36*
X44440858Y-34799999D02*
G01*
X43540858Y-33899999D01*
X44440858Y-33899999D01*
X44440858Y-34799999D01*
G37*
D13*
%TO.C,U1*%
X48307752Y-46693455D02*
X48297847Y-46645450D01*
X48288956Y-46597190D01*
X48281336Y-46548675D01*
X48274732Y-46499907D01*
X48269399Y-46451139D01*
X48265335Y-46402118D01*
X48262287Y-46353350D01*
X48260508Y-46304074D01*
X48307752Y-46693455D01*
X66034667Y-29172027D02*
X66037715Y-29220795D01*
X66030603Y-29123006D01*
X66034667Y-29172027D01*
D14*
X68277000Y-28982500D02*
G75*
G02*
X68023000Y-28982500I-127000J0D01*
G01*
X68023000Y-28982500D02*
G75*
G02*
X68277000Y-28982500I127000J0D01*
G01*
D15*
X50250000Y-48282500D02*
G75*
G02*
X48250000Y-46282500I0J2000000D01*
G01*
X66050000Y-46282500D02*
G75*
G02*
X64050000Y-48282500I-2044857J44857D01*
G01*
X48250000Y-29282500D02*
G75*
G02*
X50250000Y-27282500I2044610J-44610D01*
G01*
X64050000Y-27282500D02*
G75*
G02*
X66050000Y-29282500I-44612J-2044612D01*
G01*
D16*
X64050000Y-48282500D02*
X50250000Y-48282500D01*
X48250000Y-46282500D02*
X48250000Y-29282500D01*
X52650000Y-33211770D02*
X61650000Y-33211770D01*
X61650000Y-33211770D02*
X61650000Y-25858470D01*
X66050000Y-29282500D02*
X66050000Y-46282500D01*
X50250000Y-27283410D02*
X64050000Y-27283410D01*
X52650000Y-25858470D02*
X52650000Y-33211770D01*
X61650000Y-25858470D02*
X52650000Y-25858470D01*
D12*
%TO.C,D8*%
X51825001Y-68472158D02*
X50925001Y-68472158D01*
X51825001Y-67572158D01*
X51825001Y-68472158D01*
G36*
X51825001Y-68472158D02*
G01*
X50925001Y-68472158D01*
X51825001Y-67572158D01*
X51825001Y-68472158D01*
G37*
%TO.C,D7*%
X70422301Y-87540958D02*
X69522301Y-87540958D01*
X70422301Y-86640958D01*
X70422301Y-87540958D01*
G36*
X70422301Y-87540958D02*
G01*
X69522301Y-87540958D01*
X70422301Y-86640958D01*
X70422301Y-87540958D01*
G37*
%TO.C,D9*%
X51825001Y-106572158D02*
X50925001Y-106572158D01*
X51825001Y-105672158D01*
X51825001Y-106572158D01*
G36*
X51825001Y-106572158D02*
G01*
X50925001Y-106572158D01*
X51825001Y-105672158D01*
X51825001Y-106572158D01*
G37*
%TO.C,D6*%
X51760001Y-87523358D02*
X50860001Y-87523358D01*
X51760001Y-86623358D01*
X51760001Y-87523358D01*
G36*
X51760001Y-87523358D02*
G01*
X50860001Y-87523358D01*
X51760001Y-86623358D01*
X51760001Y-87523358D01*
G37*
%TO.C,D10*%
X70875001Y-106572158D02*
X69975001Y-106572158D01*
X70875001Y-105672158D01*
X70875001Y-106572158D01*
G36*
X70875001Y-106572158D02*
G01*
X69975001Y-106572158D01*
X70875001Y-105672158D01*
X70875001Y-106572158D01*
G37*
%TO.C,D11*%
X70875001Y-68472158D02*
X69975001Y-68472158D01*
X70875001Y-67572158D01*
X70875001Y-68472158D01*
G36*
X70875001Y-68472158D02*
G01*
X69975001Y-68472158D01*
X70875001Y-67572158D01*
X70875001Y-68472158D01*
G37*
%TO.C,D12*%
X61568701Y-60681258D02*
X60668701Y-60681258D01*
X61568701Y-59781258D01*
X61568701Y-60681258D01*
G36*
X61568701Y-60681258D02*
G01*
X60668701Y-60681258D01*
X61568701Y-59781258D01*
X61568701Y-60681258D01*
G37*
%TO.C,D15*%
X84943701Y-59799958D02*
X84043701Y-59799958D01*
X84943701Y-58899958D01*
X84943701Y-59799958D01*
G36*
X84943701Y-59799958D02*
G01*
X84043701Y-59799958D01*
X84943701Y-58899958D01*
X84943701Y-59799958D01*
G37*
%TO.C,D13*%
X69687542Y-42081201D02*
X68787542Y-42081201D01*
X68787542Y-41181201D01*
X69687542Y-42081201D01*
G36*
X69687542Y-42081201D02*
G01*
X68787542Y-42081201D01*
X68787542Y-41181201D01*
X69687542Y-42081201D01*
G37*
%TO.C,D16*%
X37537501Y-58947158D02*
X36637501Y-58947158D01*
X37537501Y-58047158D01*
X37537501Y-58947158D01*
G36*
X37537501Y-58947158D02*
G01*
X36637501Y-58947158D01*
X37537501Y-58047158D01*
X37537501Y-58947158D01*
G37*
%TD*%
M02*
