%TF.GenerationSoftware,KiCad,Pcbnew,9.0.7*%
%TF.CreationDate,2026-01-30T21:13:48-06:00*%
%TF.ProjectId,HACK PAD!,4841434b-2050-4414-9421-2e6b69636164,rev?*%
%TF.SameCoordinates,Original*%
%TF.FileFunction,Soldermask,Top*%
%TF.FilePolarity,Negative*%
%FSLAX46Y46*%
G04 Gerber Fmt 4.6, Leading zero omitted, Abs format (unit mm)*
G04 Created by KiCad (PCBNEW 9.0.7) date 2026-01-30 21:13:48*
%MOMM*%
%LPD*%
G01*
G04 APERTURE LIST*
G04 Aperture macros list*
%AMRoundRect*
0 Rectangle with rounded corners*
0 $1 Rounding radius*
0 $2 $3 $4 $5 $6 $7 $8 $9 X,Y pos of 4 corners*
0 Add a 4 corners polygon primitive as box body*
4,1,4,$2,$3,$4,$5,$6,$7,$8,$9,$2,$3,0*
0 Add four circle primitives for the rounded corners*
1,1,$1+$1,$2,$3*
1,1,$1+$1,$4,$5*
1,1,$1+$1,$6,$7*
1,1,$1+$1,$8,$9*
0 Add four rect primitives between the rounded corners*
20,1,$1+$1,$2,$3,$4,$5,0*
20,1,$1+$1,$4,$5,$6,$7,0*
20,1,$1+$1,$6,$7,$8,$9,0*
20,1,$1+$1,$8,$9,$2,$3,0*%
G04 Aperture macros list end*
%ADD10RoundRect,0.250000X-0.250000X-0.475000X0.250000X-0.475000X0.250000X0.475000X-0.250000X0.475000X0*%
%ADD11R,2.000000X2.000000*%
%ADD12C,2.000000*%
%ADD13R,3.200000X2.000000*%
%ADD14RoundRect,0.225000X-0.225000X-0.375000X0.225000X-0.375000X0.225000X0.375000X-0.225000X0.375000X0*%
%ADD15RoundRect,0.250000X-0.262500X-0.450000X0.262500X-0.450000X0.262500X0.450000X-0.262500X0.450000X0*%
%ADD16C,1.700000*%
%ADD17C,4.000000*%
%ADD18C,2.200000*%
%ADD19RoundRect,0.250000X0.475000X-0.250000X0.475000X0.250000X-0.475000X0.250000X-0.475000X-0.250000X0*%
%ADD20RoundRect,0.250000X-0.550000X-0.550000X0.550000X-0.550000X0.550000X0.550000X-0.550000X0.550000X0*%
%ADD21C,1.600000*%
%ADD22R,1.700000X1.700000*%
%ADD23R,3.500000X1.700000*%
%ADD24O,3.600000X1.700000*%
%ADD25O,3.700000X1.700000*%
G04 APERTURE END LIST*
D10*
%TO.C,C7*%
X76200000Y-50006200D03*
X78100000Y-50006200D03*
%TD*%
%TO.C,C5*%
X76200000Y-43986200D03*
X78100000Y-43986200D03*
%TD*%
%TO.C,C6*%
X76200000Y-46996200D03*
X78100000Y-46996200D03*
%TD*%
%TO.C,C11*%
X80650000Y-50006200D03*
X82550000Y-50006200D03*
%TD*%
D11*
%TO.C,RE1*%
X68950000Y-73700000D03*
D12*
X68950000Y-78700000D03*
X68950000Y-76200000D03*
D13*
X76450000Y-70600000D03*
X76450000Y-81800000D03*
D12*
X83450000Y-78700000D03*
X83450000Y-73700000D03*
%TD*%
D10*
%TO.C,C1*%
X71750000Y-43986200D03*
X73650000Y-43986200D03*
%TD*%
D14*
%TO.C,D17*%
X34068800Y-48593700D03*
X37368800Y-48593700D03*
%TD*%
D15*
%TO.C,R1*%
X67355000Y-58880000D03*
X69180000Y-58880000D03*
%TD*%
D16*
%TO.C,SW2*%
X52070000Y-76200000D03*
D17*
X57150000Y-76200000D03*
D16*
X62230000Y-76200000D03*
D18*
X59690000Y-71120000D03*
X53340000Y-73660000D03*
%TD*%
D16*
%TO.C,SW3*%
X33020000Y-95250000D03*
D17*
X38100000Y-95250000D03*
D16*
X43180000Y-95250000D03*
D18*
X40640000Y-90170000D03*
X34290000Y-92710000D03*
%TD*%
D10*
%TO.C,C8*%
X76200000Y-53016200D03*
X78100000Y-53016200D03*
%TD*%
D19*
%TO.C,C16*%
X63170000Y-52387500D03*
X63170000Y-50487500D03*
%TD*%
D10*
%TO.C,C4*%
X71750000Y-53016200D03*
X73650000Y-53016200D03*
%TD*%
%TO.C,C10*%
X80650000Y-46996200D03*
X82550000Y-46996200D03*
%TD*%
D19*
%TO.C,C15*%
X60160000Y-52387500D03*
X60160000Y-50487500D03*
%TD*%
D16*
%TO.C,SW5*%
X71120000Y-95250000D03*
D17*
X76200000Y-95250000D03*
D16*
X81280000Y-95250000D03*
D18*
X78740000Y-90170000D03*
X72390000Y-92710000D03*
%TD*%
D16*
%TO.C,SW4*%
X52070000Y-95250000D03*
D17*
X57150000Y-95250000D03*
D16*
X62230000Y-95250000D03*
D18*
X59690000Y-90170000D03*
X53340000Y-92710000D03*
%TD*%
D10*
%TO.C,C9*%
X80650000Y-43986200D03*
X82550000Y-43986200D03*
%TD*%
%TO.C,C3*%
X71750000Y-50006200D03*
X73650000Y-50006200D03*
%TD*%
D16*
%TO.C,SWw1*%
X33020000Y-76200000D03*
D17*
X38100000Y-76200000D03*
D16*
X43180000Y-76200000D03*
D18*
X40640000Y-71120000D03*
X34290000Y-73660000D03*
%TD*%
D10*
%TO.C,C12*%
X80650000Y-53016200D03*
X82550000Y-53016200D03*
%TD*%
D20*
%TO.C,D3*%
X30070000Y-39350000D03*
D21*
X37690000Y-39350000D03*
%TD*%
D20*
%TO.C,D4*%
X30050000Y-42290000D03*
D21*
X37670000Y-42290000D03*
%TD*%
D22*
%TO.C,U2*%
X40481300Y-54292500D03*
D16*
X40481300Y-56832500D03*
X40481300Y-59372500D03*
X40481300Y-61912500D03*
%TD*%
D20*
%TO.C,D5*%
X29950000Y-45410000D03*
D21*
X37570000Y-45410000D03*
%TD*%
D20*
%TO.C,D2*%
X30070000Y-36440000D03*
D21*
X37690000Y-36440000D03*
%TD*%
D19*
%TO.C,C14*%
X57150000Y-52387500D03*
X57150000Y-50487500D03*
%TD*%
D20*
%TO.C,D1*%
X30100000Y-33630000D03*
D21*
X37720000Y-33630000D03*
%TD*%
D10*
%TO.C,C2*%
X71750000Y-46996200D03*
X73650000Y-46996200D03*
%TD*%
D19*
%TO.C,C13*%
X54140000Y-52387500D03*
X54140000Y-50487500D03*
%TD*%
D23*
%TO.C,U1*%
X65775000Y-30162500D03*
D24*
X65775000Y-32702500D03*
X65775000Y-35242500D03*
X65775000Y-37782500D03*
X65775000Y-40322500D03*
X65775000Y-42862500D03*
X65775000Y-45402500D03*
X48525000Y-45402500D03*
X48525000Y-42862500D03*
X48525000Y-40322500D03*
D25*
X48525000Y-37782500D03*
X48525000Y-35242500D03*
X48525000Y-32702500D03*
X48525000Y-30162500D03*
%TD*%
M02*
