%TF.GenerationSoftware,KiCad,Pcbnew,9.0.7*%
%TF.CreationDate,2026-01-22T22:05:33-06:00*%
%TF.ProjectId,HACK PAD!,4841434b-2050-4414-9421-2e6b69636164,rev?*%
%TF.SameCoordinates,Original*%
%TF.FileFunction,Other,User*%
%FSLAX46Y46*%
G04 Gerber Fmt 4.6, Leading zero omitted, Abs format (unit mm)*
G04 Created by KiCad (PCBNEW 9.0.7) date 2026-01-22 22:05:33*
%MOMM*%
%LPD*%
G01*
G04 APERTURE LIST*
%ADD10C,0.050000*%
G04 APERTURE END LIST*
D10*
%TO.C,D3*%
X38068800Y-39693700D02*
X33368800Y-39693700D01*
X38068800Y-37393700D02*
X38068800Y-39693700D01*
X33368800Y-37393700D02*
X38068800Y-37393700D01*
X33368800Y-37393700D02*
X33368800Y-39693700D01*
%TO.C,U2*%
X38711300Y-52522500D02*
X42251300Y-52522500D01*
X42251300Y-63682500D01*
X38711300Y-63682500D01*
X38711300Y-52522500D01*
%TO.C,C7*%
X75450000Y-49026200D02*
X78850000Y-49026200D01*
X78850000Y-50986200D01*
X75450000Y-50986200D01*
X75450000Y-49026200D01*
%TO.C,C5*%
X75450000Y-43006200D02*
X78850000Y-43006200D01*
X78850000Y-44966200D01*
X75450000Y-44966200D01*
X75450000Y-43006200D01*
%TO.C,C6*%
X75450000Y-46016200D02*
X78850000Y-46016200D01*
X78850000Y-47976200D01*
X75450000Y-47976200D01*
X75450000Y-46016200D01*
%TO.C,C11*%
X79900000Y-49026200D02*
X83300000Y-49026200D01*
X83300000Y-50986200D01*
X79900000Y-50986200D01*
X79900000Y-49026200D01*
%TO.C,RE1*%
X67450000Y-69100000D02*
X67450000Y-83300000D01*
X67450000Y-69100000D02*
X84950000Y-69100000D01*
X84950000Y-83300000D02*
X67450000Y-83300000D01*
X84950000Y-83300000D02*
X84950000Y-69100000D01*
%TO.C,C1*%
X71000000Y-43006200D02*
X74400000Y-43006200D01*
X74400000Y-44966200D01*
X71000000Y-44966200D01*
X71000000Y-43006200D01*
%TO.C,D17*%
X33368800Y-47443700D02*
X33368800Y-49743700D01*
X33368800Y-47443700D02*
X38068800Y-47443700D01*
X38068800Y-47443700D02*
X38068800Y-49743700D01*
X38068800Y-49743700D02*
X33368800Y-49743700D01*
%TO.C,R1*%
X41182500Y-30006200D02*
X44542500Y-30006200D01*
X44542500Y-31906200D01*
X41182500Y-31906200D01*
X41182500Y-30006200D01*
%TO.C,SW2*%
X50550000Y-69600000D02*
X63750000Y-69600000D01*
X50550000Y-82800000D02*
X50550000Y-69600000D01*
X63750000Y-69600000D02*
X63750000Y-82800000D01*
X63750000Y-82800000D02*
X50550000Y-82800000D01*
%TO.C,SW3*%
X31500000Y-88650000D02*
X44700000Y-88650000D01*
X31500000Y-101850000D02*
X31500000Y-88650000D01*
X44700000Y-88650000D02*
X44700000Y-101850000D01*
X44700000Y-101850000D02*
X31500000Y-101850000D01*
%TO.C,C8*%
X75450000Y-52036200D02*
X78850000Y-52036200D01*
X78850000Y-53996200D01*
X75450000Y-53996200D01*
X75450000Y-52036200D01*
%TO.C,C16*%
X62190000Y-53137500D02*
X64150000Y-53137500D01*
X64150000Y-49737500D01*
X62190000Y-49737500D01*
X62190000Y-53137500D01*
%TO.C,C4*%
X71000000Y-52036200D02*
X74400000Y-52036200D01*
X74400000Y-53996200D01*
X71000000Y-53996200D01*
X71000000Y-52036200D01*
%TO.C,C10*%
X79900000Y-46016200D02*
X83300000Y-46016200D01*
X83300000Y-47976200D01*
X79900000Y-47976200D01*
X79900000Y-46016200D01*
%TO.C,C15*%
X59180000Y-53137500D02*
X61140000Y-53137500D01*
X61140000Y-49737500D01*
X59180000Y-49737500D01*
X59180000Y-53137500D01*
%TO.C,SW5*%
X69600000Y-88650000D02*
X82800000Y-88650000D01*
X69600000Y-101850000D02*
X69600000Y-88650000D01*
X82800000Y-88650000D02*
X82800000Y-101850000D01*
X82800000Y-101850000D02*
X69600000Y-101850000D01*
%TO.C,SW4*%
X50550000Y-88650000D02*
X63750000Y-88650000D01*
X50550000Y-101850000D02*
X50550000Y-88650000D01*
X63750000Y-88650000D02*
X63750000Y-101850000D01*
X63750000Y-101850000D02*
X50550000Y-101850000D01*
%TO.C,C9*%
X79900000Y-43006200D02*
X83300000Y-43006200D01*
X83300000Y-44966200D01*
X79900000Y-44966200D01*
X79900000Y-43006200D01*
%TO.C,C3*%
X71000000Y-49026200D02*
X74400000Y-49026200D01*
X74400000Y-50986200D01*
X71000000Y-50986200D01*
X71000000Y-49026200D01*
%TO.C,SWw1*%
X31500000Y-69600000D02*
X44700000Y-69600000D01*
X31500000Y-82800000D02*
X31500000Y-69600000D01*
X44700000Y-69600000D02*
X44700000Y-82800000D01*
X44700000Y-82800000D02*
X31500000Y-82800000D01*
%TO.C,C12*%
X79900000Y-52036200D02*
X83300000Y-52036200D01*
X83300000Y-53996200D01*
X79900000Y-53996200D01*
X79900000Y-52036200D01*
%TO.C,D4*%
X33368800Y-40743700D02*
X33368800Y-43043700D01*
X33368800Y-40743700D02*
X38068800Y-40743700D01*
X38068800Y-40743700D02*
X38068800Y-43043700D01*
X38068800Y-43043700D02*
X33368800Y-43043700D01*
%TO.C,D5*%
X33368800Y-44093700D02*
X33368800Y-46393700D01*
X33368800Y-44093700D02*
X38068800Y-44093700D01*
X38068800Y-44093700D02*
X38068800Y-46393700D01*
X38068800Y-46393700D02*
X33368800Y-46393700D01*
%TO.C,D2*%
X33368800Y-34043700D02*
X33368800Y-36343700D01*
X33368800Y-34043700D02*
X38068800Y-34043700D01*
X38068800Y-34043700D02*
X38068800Y-36343700D01*
X38068800Y-36343700D02*
X33368800Y-36343700D01*
%TO.C,C14*%
X56170000Y-53137500D02*
X58130000Y-53137500D01*
X58130000Y-49737500D01*
X56170000Y-49737500D01*
X56170000Y-53137500D01*
%TO.C,D1*%
X33368800Y-30693700D02*
X33368800Y-32993700D01*
X33368800Y-30693700D02*
X38068800Y-30693700D01*
X38068800Y-30693700D02*
X38068800Y-32993700D01*
X38068800Y-32993700D02*
X33368800Y-32993700D01*
%TO.C,C2*%
X71000000Y-46016200D02*
X74400000Y-46016200D01*
X74400000Y-47976200D01*
X71000000Y-47976200D01*
X71000000Y-46016200D01*
%TO.C,C13*%
X53160000Y-53137500D02*
X55120000Y-53137500D01*
X55120000Y-49737500D01*
X53160000Y-49737500D01*
X53160000Y-53137500D01*
%TD*%
M02*
