%TF.GenerationSoftware,KiCad,Pcbnew,9.0.7*%
%TF.CreationDate,2026-01-22T22:05:33-06:00*%
%TF.ProjectId,HACK PAD!,4841434b-2050-4414-9421-2e6b69636164,rev?*%
%TF.SameCoordinates,Original*%
%TF.FileFunction,Copper,L2,Bot*%
%TF.FilePolarity,Positive*%
%FSLAX46Y46*%
G04 Gerber Fmt 4.6, Leading zero omitted, Abs format (unit mm)*
G04 Created by KiCad (PCBNEW 9.0.7) date 2026-01-22 22:05:33*
%MOMM*%
%LPD*%
G01*
G04 APERTURE LIST*
G04 Aperture macros list*
%AMRoundRect*
0 Rectangle with rounded corners*
0 $1 Rounding radius*
0 $2 $3 $4 $5 $6 $7 $8 $9 X,Y pos of 4 corners*
0 Add a 4 corners polygon primitive as box body*
4,1,4,$2,$3,$4,$5,$6,$7,$8,$9,$2,$3,0*
0 Add four circle primitives for the rounded corners*
1,1,$1+$1,$2,$3*
1,1,$1+$1,$4,$5*
1,1,$1+$1,$6,$7*
1,1,$1+$1,$8,$9*
0 Add four rect primitives between the rounded corners*
20,1,$1+$1,$2,$3,$4,$5,0*
20,1,$1+$1,$4,$5,$6,$7,0*
20,1,$1+$1,$6,$7,$8,$9,0*
20,1,$1+$1,$8,$9,$2,$3,0*%
G04 Aperture macros list end*
%TA.AperFunction,SMDPad,CuDef*%
%ADD10RoundRect,0.082000X-0.328000X-0.368000X0.328000X-0.368000X0.328000X0.368000X-0.328000X0.368000X0*%
%TD*%
%TA.AperFunction,SMDPad,CuDef*%
%ADD11RoundRect,0.082000X-0.328000X-0.367999X0.328000X-0.367999X0.328000X0.367999X-0.328000X0.367999X0*%
%TD*%
%TA.AperFunction,ComponentPad*%
%ADD12O,3.700000X1.700000*%
%TD*%
%TA.AperFunction,ComponentPad*%
%ADD13O,3.600000X1.700000*%
%TD*%
%TA.AperFunction,ComponentPad*%
%ADD14R,3.500000X1.700000*%
%TD*%
%TA.AperFunction,SMDPad,CuDef*%
%ADD15RoundRect,0.082000X-0.368000X0.328000X-0.368000X-0.328000X0.368000X-0.328000X0.368000X0.328000X0*%
%TD*%
%TA.AperFunction,SMDPad,CuDef*%
%ADD16RoundRect,0.082000X-0.367999X0.328000X-0.367999X-0.328000X0.367999X-0.328000X0.367999X0.328000X0*%
%TD*%
%TA.AperFunction,SMDPad,CuDef*%
%ADD17RoundRect,0.082000X0.328000X0.367999X-0.328000X0.367999X-0.328000X-0.367999X0.328000X-0.367999X0*%
%TD*%
%TA.AperFunction,SMDPad,CuDef*%
%ADD18RoundRect,0.082000X0.328000X0.368000X-0.328000X0.368000X-0.328000X-0.368000X0.328000X-0.368000X0*%
%TD*%
%TA.AperFunction,ComponentPad*%
%ADD19R,1.700000X1.700000*%
%TD*%
%TA.AperFunction,ComponentPad*%
%ADD20C,1.700000*%
%TD*%
%TA.AperFunction,ComponentPad*%
%ADD21R,2.000000X2.000000*%
%TD*%
%TA.AperFunction,ComponentPad*%
%ADD22C,2.000000*%
%TD*%
%TA.AperFunction,ComponentPad*%
%ADD23R,3.200000X2.000000*%
%TD*%
%TA.AperFunction,ComponentPad*%
%ADD24C,2.200000*%
%TD*%
%TA.AperFunction,ViaPad*%
%ADD25C,0.600000*%
%TD*%
%TA.AperFunction,Conductor*%
%ADD26C,0.200000*%
%TD*%
G04 APERTURE END LIST*
D10*
%TO.P,D14,4,DIN*%
%TO.N,Net-(D13-DOUT)*%
X41790858Y-35150000D03*
%TO.P,D14,3,VSS*%
%TO.N,GND*%
X43290858Y-35150000D03*
D11*
%TO.P,D14,2*%
%TO.N,N/C*%
X43290858Y-41049999D03*
%TO.P,D14,1,VDD*%
%TO.N,Net-(D10-VDD)*%
X41790858Y-41049999D03*
%TD*%
D12*
%TO.P,U1,14,5V*%
%TO.N,Net-(D10-VDD)*%
X48525000Y-30162500D03*
%TO.P,U1,13,GND*%
%TO.N,unconnected-(U1-GND-Pad13)*%
X48525000Y-32702500D03*
%TO.P,U1,12,3V3*%
%TO.N,Net-(U1-3V3)*%
X48525000Y-35242500D03*
%TO.P,U1,11,PA6_A10_D10_MOSI*%
%TO.N,Net-(D17-K)*%
X48525000Y-37782500D03*
D13*
%TO.P,U1,10,PA5_A9_D9_MISO*%
%TO.N,Net-(U1-PA5_A9_D9_MISO)*%
X48525000Y-40322500D03*
%TO.P,U1,9,PA7_A8_D8_SCK*%
%TO.N,Net-(U1-PA7_A8_D8_SCK)*%
X48525000Y-42862500D03*
%TO.P,U1,8,PB09_A7_D7_RX*%
X48525000Y-45402500D03*
%TO.P,U1,7,PB08_A6_D6_TX*%
%TO.N,Net-(D5-A)*%
X65775000Y-45402500D03*
%TO.P,U1,6,PA9_A5_D5_SCL*%
%TO.N,Net-(U1-PA9_A5_D5_SCL)*%
X65775000Y-42862500D03*
%TO.P,U1,5,PA8_A4_D4_SDA*%
%TO.N,Net-(U1-PA8_A4_D4_SDA)*%
X65775000Y-40322500D03*
%TO.P,U1,4,PA11_A3_D3*%
%TO.N,Net-(D4-A)*%
X65775000Y-37782500D03*
%TO.P,U1,3,PA10_A2_D2*%
%TO.N,Net-(D3-A)*%
X65775000Y-35242500D03*
%TO.P,U1,2,PA4_A1_D1*%
%TO.N,Net-(D2-A)*%
X65775000Y-32702500D03*
D14*
%TO.P,U1,1,PA02_A0_D0*%
%TO.N,Net-(D1-A)*%
X65775000Y-30162500D03*
%TD*%
D15*
%TO.P,D8,4,DIN*%
%TO.N,Net-(D7-DOUT)*%
X50575000Y-65822158D03*
%TO.P,D8,3,VSS*%
%TO.N,GND*%
X50575000Y-67322158D03*
D16*
%TO.P,D8,2*%
%TO.N,N/C*%
X44675001Y-67322158D03*
%TO.P,D8,1,DOUT*%
%TO.N,Net-(D8-DOUT)*%
X44675001Y-65822158D03*
%TD*%
%TO.P,D7,1,DOUT*%
%TO.N,Net-(D7-DOUT)*%
X63272301Y-84890958D03*
%TO.P,D7,2*%
%TO.N,N/C*%
X63272301Y-86390958D03*
D15*
%TO.P,D7,3,VSS*%
%TO.N,GND*%
X69172300Y-86390958D03*
%TO.P,D7,4,DIN*%
%TO.N,Net-(D6-DOUT)*%
X69172300Y-84890958D03*
%TD*%
D16*
%TO.P,D9,1,DOUT*%
%TO.N,Net-(D10-DIN)*%
X44675001Y-103922158D03*
%TO.P,D9,2*%
%TO.N,N/C*%
X44675001Y-105422158D03*
D15*
%TO.P,D9,3,VSS*%
%TO.N,GND*%
X50575000Y-105422158D03*
%TO.P,D9,4,DIN*%
%TO.N,Net-(D8-DOUT)*%
X50575000Y-103922158D03*
%TD*%
%TO.P,D6,4,DIN*%
%TO.N,Net-(D6-DIN)*%
X50510000Y-84873358D03*
%TO.P,D6,3,VSS*%
%TO.N,GND*%
X50510000Y-86373358D03*
D16*
%TO.P,D6,2*%
%TO.N,N/C*%
X44610001Y-86373358D03*
%TO.P,D6,1,DOUT*%
%TO.N,Net-(D6-DOUT)*%
X44610001Y-84873358D03*
%TD*%
%TO.P,D10,1,VDD*%
%TO.N,Net-(D10-VDD)*%
X63725001Y-103922158D03*
%TO.P,D10,2*%
%TO.N,N/C*%
X63725001Y-105422158D03*
D15*
%TO.P,D10,3,VSS*%
%TO.N,GND*%
X69625000Y-105422158D03*
%TO.P,D10,4,DIN*%
%TO.N,Net-(D10-DIN)*%
X69625000Y-103922158D03*
%TD*%
D16*
%TO.P,D11,1,VDD*%
%TO.N,Net-(D10-VDD)*%
X63725001Y-65822158D03*
%TO.P,D11,2*%
%TO.N,N/C*%
X63725001Y-67322158D03*
D15*
%TO.P,D11,3,VSS*%
%TO.N,GND*%
X69625000Y-67322158D03*
%TO.P,D11,4,DIN*%
%TO.N,unconnected-(D11-DIN-Pad4)*%
X69625000Y-65822158D03*
%TD*%
D16*
%TO.P,D12,1,VDD*%
%TO.N,Net-(D10-VDD)*%
X54418701Y-58031258D03*
%TO.P,D12,2*%
%TO.N,N/C*%
X54418701Y-59531258D03*
D15*
%TO.P,D12,3,VSS*%
%TO.N,GND*%
X60318700Y-59531258D03*
%TO.P,D12,4,DIN*%
%TO.N,Net-(D11-DOUT)*%
X60318700Y-58031258D03*
%TD*%
D16*
%TO.P,D15,1,VDD*%
%TO.N,Net-(D10-VDD)*%
X77793701Y-57149958D03*
%TO.P,D15,2*%
%TO.N,N/C*%
X77793701Y-58649958D03*
D15*
%TO.P,D15,3,VSS*%
%TO.N,GND*%
X83693700Y-58649958D03*
%TO.P,D15,4,DIN*%
%TO.N,Net-(D14-DOUT)*%
X83693700Y-57149958D03*
%TD*%
D17*
%TO.P,D13,1,VDD*%
%TO.N,Net-(D10-VDD)*%
X71437542Y-34931201D03*
%TO.P,D13,2*%
%TO.N,N/C*%
X69937542Y-34931201D03*
D18*
%TO.P,D13,3,VSS*%
%TO.N,unconnected-(D13-VSS-Pad3)*%
X69937542Y-40831200D03*
%TO.P,D13,4,DIN*%
%TO.N,Net-(D12-DOUT)*%
X71437542Y-40831200D03*
%TD*%
D19*
%TO.P,U2,1,GND*%
%TO.N,GND*%
X40481300Y-54292500D03*
D20*
%TO.P,U2,2,VCC*%
%TO.N,Net-(U1-3V3)*%
X40481300Y-56832500D03*
%TO.P,U2,3,SCL*%
%TO.N,Net-(U1-PA9_A5_D5_SCL)*%
X40481300Y-59372500D03*
%TO.P,U2,4,SDA*%
%TO.N,Net-(U1-PA8_A4_D4_SDA)*%
X40481300Y-61912500D03*
%TD*%
D21*
%TO.P,RE1,A,A*%
%TO.N,Net-(U1-PA7_A8_D8_SCK)*%
X68950000Y-73700000D03*
D22*
%TO.P,RE1,B,B*%
%TO.N,Net-(U1-PA5_A9_D9_MISO)*%
X68950000Y-78700000D03*
%TO.P,RE1,C,C*%
%TO.N,GND*%
X68950000Y-76200000D03*
D23*
%TO.P,RE1,MP*%
%TO.N,N/C*%
X76450000Y-70600000D03*
X76450000Y-81800000D03*
D22*
%TO.P,RE1,S1,S1*%
%TO.N,Net-(D17-A)*%
X83450000Y-78700000D03*
%TO.P,RE1,S2,S2*%
%TO.N,GND*%
X83450000Y-73700000D03*
%TD*%
D24*
%TO.P,SW2,1,1*%
%TO.N,GND*%
X59690000Y-71120000D03*
%TO.P,SW2,2,2*%
%TO.N,Net-(D2-K)*%
X53340000Y-73660000D03*
%TD*%
%TO.P,SW3,1,1*%
%TO.N,GND*%
X40640000Y-90170000D03*
%TO.P,SW3,2,2*%
%TO.N,Net-(D3-K)*%
X34290000Y-92710000D03*
%TD*%
%TO.P,SW5,1,1*%
%TO.N,GND*%
X78740000Y-90170000D03*
%TO.P,SW5,2,2*%
%TO.N,Net-(D5-K)*%
X72390000Y-92710000D03*
%TD*%
%TO.P,SW4,1,1*%
%TO.N,GND*%
X59690000Y-90170000D03*
%TO.P,SW4,2,2*%
%TO.N,Net-(D4-K)*%
X53340000Y-92710000D03*
%TD*%
%TO.P,SWw1,1,1*%
%TO.N,GND*%
X40640000Y-71120000D03*
%TO.P,SWw1,2,2*%
%TO.N,Net-(D1-K)*%
X34290000Y-73660000D03*
%TD*%
D16*
%TO.P,D16,1,VDD*%
%TO.N,Net-(D10-VDD)*%
X30387501Y-56297158D03*
%TO.P,D16,2*%
%TO.N,N/C*%
X30387501Y-57797158D03*
D15*
%TO.P,D16,3,VSS*%
%TO.N,GND*%
X36287500Y-57797158D03*
%TO.P,D16,4,DIN*%
%TO.N,Net-(D15-DOUT)*%
X36287500Y-56297158D03*
%TD*%
D25*
%TO.N,Net-(D1-K)*%
X28420000Y-73490000D03*
%TO.N,Net-(U1-PA8_A4_D4_SDA)*%
X62121000Y-54943000D03*
%TO.N,Net-(U1-3V3)*%
X42717600Y-56147300D03*
X44878800Y-34933300D03*
%TO.N,Net-(U1-PA5_A9_D9_MISO)*%
X54372500Y-71748500D03*
X51746900Y-40526500D03*
%TO.N,Net-(U1-PA7_A8_D8_SCK)*%
X51456600Y-72090000D03*
%TO.N,Net-(D17-K)*%
X33688300Y-47006200D03*
%TO.N,Net-(D17-A)*%
X41768500Y-77264900D03*
%TO.N,Net-(D8-DOUT)*%
X45123100Y-95964000D03*
X42175000Y-67104800D03*
%TO.N,Net-(D7-DOUT)*%
X61369700Y-69744300D03*
X62204700Y-84881600D03*
%TO.N,Net-(D6-DIN)*%
X52005900Y-84756800D03*
%TO.N,Net-(D5-K)*%
X33488300Y-90312300D03*
%TO.N,Net-(D5-A)*%
X37487700Y-46806200D03*
%TO.N,Net-(D4-K)*%
X39347400Y-43331800D03*
X34399600Y-43697200D03*
%TO.N,Net-(D4-A)*%
X42578200Y-43916000D03*
%TO.N,Net-(D3-A)*%
X37567700Y-36340300D03*
%TO.N,Net-(D2-A)*%
X40381300Y-33542500D03*
%TO.N,Net-(D1-A)*%
X37421500Y-30666700D03*
%TO.N,GND*%
X54406500Y-37456100D03*
X63066300Y-59907900D03*
X74897500Y-59907900D03*
X51256900Y-90107300D03*
X51543700Y-105031000D03*
%TO.N,Net-(D10-VDD)*%
X54192900Y-56192600D03*
X63066300Y-102155600D03*
X62451000Y-65778700D03*
%TO.N,Net-(D2-K)*%
X36956300Y-72942700D03*
%TD*%
D26*
%TO.N,Net-(D6-DOUT)*%
X67760000Y-80428100D02*
X69172300Y-81840400D01*
X45431900Y-80428100D02*
X67760000Y-80428100D01*
X44600000Y-81260000D02*
X45431900Y-80428100D01*
X44610001Y-81270001D02*
X44600000Y-81260000D01*
X69172300Y-81840400D02*
X69172300Y-84890958D01*
X44610001Y-84873358D02*
X44610001Y-81270001D01*
%TO.N,Net-(D1-K)*%
X29320000Y-73660000D02*
X34290000Y-73660000D01*
X29150000Y-73490000D02*
X29320000Y-73660000D01*
X28420000Y-73490000D02*
X29150000Y-73490000D01*
%TO.N,Net-(D10-VDD)*%
X30645000Y-56297200D02*
X30737500Y-56297200D01*
X29606400Y-57335800D02*
X30645000Y-56297200D01*
X29606400Y-58206400D02*
X29606400Y-57335800D01*
X29858588Y-58508158D02*
X29636502Y-58286072D01*
X29636502Y-58236502D02*
X29606400Y-58206400D01*
X29908158Y-58508158D02*
X29858588Y-58508158D01*
X29636502Y-58286072D02*
X29636502Y-58236502D01*
X34511400Y-63111400D02*
X29908158Y-58508158D01*
X53632900Y-60035800D02*
X50557300Y-63111400D01*
X50557300Y-63111400D02*
X34511400Y-63111400D01*
%TO.N,GND*%
X77839600Y-62850000D02*
X74897500Y-59907900D01*
X82090000Y-62850000D02*
X77839600Y-62850000D01*
X83760000Y-61180000D02*
X82090000Y-62850000D01*
X83693700Y-58649958D02*
X83693700Y-61113700D01*
X83693700Y-61113700D02*
X83760000Y-61180000D01*
X69625000Y-106104000D02*
X67519500Y-108209500D01*
X53160000Y-108150000D02*
X53160000Y-108007158D01*
X67519500Y-108209500D02*
X67460000Y-108150000D01*
X53160000Y-108007158D02*
X50575000Y-105422158D01*
X67460000Y-108150000D02*
X53160000Y-108150000D01*
X69625000Y-105422158D02*
X69625000Y-106104000D01*
%TO.N,Net-(D10-DIN)*%
X69440300Y-103922200D02*
X69275000Y-103922200D01*
X70431400Y-105864700D02*
X70431400Y-104913300D01*
X43884200Y-105937200D02*
X46577000Y-108630000D01*
X46577000Y-108630000D02*
X67666100Y-108630000D01*
X43884200Y-104909700D02*
X43884200Y-105937200D01*
X70431400Y-104913300D02*
X69440300Y-103922200D01*
X44871700Y-103922200D02*
X43884200Y-104909700D01*
X45025000Y-103922200D02*
X44871700Y-103922200D01*
X67666100Y-108630000D02*
X70431400Y-105864700D01*
%TO.N,Net-(D10-VDD)*%
X40620000Y-40243400D02*
X40620000Y-40410000D01*
X40910000Y-40700000D02*
X41790900Y-40700000D01*
X36917200Y-36540600D02*
X40620000Y-40243400D01*
X36917200Y-36099800D02*
X36917200Y-36540600D01*
X42854500Y-30162500D02*
X36917200Y-36099800D01*
X40620000Y-40410000D02*
X40910000Y-40700000D01*
X49525000Y-30162500D02*
X42854500Y-30162500D01*
%TO.N,Net-(D7-DOUT)*%
X62204700Y-84881600D02*
X63612900Y-84881600D01*
X63612900Y-84881600D02*
X63622300Y-84891000D01*
%TO.N,Net-(U1-PA8_A4_D4_SDA)*%
X62121000Y-54943100D02*
X62121000Y-54943000D01*
X47450700Y-54943100D02*
X62121000Y-54943100D01*
X40481300Y-61912500D02*
X47450700Y-54943100D01*
%TO.N,Net-(U1-PA9_A5_D5_SCL)*%
X67876700Y-45902500D02*
X67876700Y-42862500D01*
X65265700Y-48513500D02*
X67876700Y-45902500D01*
X51340300Y-48513500D02*
X65265700Y-48513500D01*
X40481300Y-59372500D02*
X51340300Y-48513500D01*
X64775000Y-42862500D02*
X67876700Y-42862500D01*
%TO.N,Net-(U1-3V3)*%
X49215800Y-34933300D02*
X44878800Y-34933300D01*
X49525000Y-35242500D02*
X49215800Y-34933300D01*
X42032400Y-56832500D02*
X42717600Y-56147300D01*
X40481300Y-56832500D02*
X42032400Y-56832500D01*
%TO.N,Net-(U1-PA5_A9_D9_MISO)*%
X51542900Y-40322500D02*
X51746900Y-40526500D01*
X49525000Y-40322500D02*
X51542900Y-40322500D01*
X51746900Y-40526500D02*
X51746900Y-40322500D01*
X51746900Y-40322500D02*
X51746900Y-40526500D01*
X54372500Y-71748500D02*
X54347000Y-71723000D01*
X54347000Y-71723000D02*
X54372500Y-71748500D01*
X63274600Y-73024600D02*
X68950000Y-78700000D01*
X55648600Y-73024600D02*
X63274600Y-73024600D01*
X54372500Y-71748500D02*
X55648600Y-73024600D01*
%TO.N,Net-(U1-PA7_A8_D8_SCK)*%
X52500700Y-72090000D02*
X51456600Y-72090000D01*
X53470700Y-71120000D02*
X52500700Y-72090000D01*
X55397900Y-71120000D02*
X53470700Y-71120000D01*
X56900800Y-72622900D02*
X55397900Y-71120000D01*
X66571200Y-72622900D02*
X56900800Y-72622900D01*
X67648300Y-73700000D02*
X66571200Y-72622900D01*
X68950000Y-73700000D02*
X67648300Y-73700000D01*
%TO.N,Net-(D17-K)*%
X36009800Y-44684700D02*
X33688300Y-47006200D01*
X40955000Y-44684700D02*
X36009800Y-44684700D01*
X46373300Y-39266400D02*
X40955000Y-44684700D01*
X46373300Y-37782500D02*
X46373300Y-39266400D01*
X49525000Y-37782500D02*
X46373300Y-37782500D01*
%TO.N,Net-(D17-A)*%
X82122900Y-80027100D02*
X83450000Y-78700000D01*
X44530700Y-80027100D02*
X82122900Y-80027100D01*
X41768500Y-77264900D02*
X44530700Y-80027100D01*
%TO.N,Net-(D8-DOUT)*%
X43457600Y-65822200D02*
X45025000Y-65822200D01*
X42175000Y-67104800D02*
X43457600Y-65822200D01*
%TO.N,Net-(D6-DIN)*%
X50276600Y-84756800D02*
X50160000Y-84873400D01*
X52005900Y-84756800D02*
X50276600Y-84756800D01*
%TO.N,Net-(D6-DOUT)*%
X68822300Y-84665700D02*
X68822300Y-84891000D01*
X44960000Y-84873400D02*
X44960000Y-84610500D01*
%TO.N,Net-(D5-K)*%
X34552300Y-90312300D02*
X33488300Y-90312300D01*
X35874500Y-91634500D02*
X34552300Y-90312300D01*
X43435200Y-91634500D02*
X35874500Y-91634500D01*
X43769600Y-91300100D02*
X43435200Y-91634500D01*
X57760600Y-91300100D02*
X43769600Y-91300100D01*
X59170500Y-92710000D02*
X57760600Y-91300100D01*
X72390000Y-92710000D02*
X59170500Y-92710000D01*
%TO.N,Net-(D5-A)*%
X62269600Y-46806200D02*
X37487700Y-46806200D01*
X63673300Y-45402500D02*
X62269600Y-46806200D01*
X64775000Y-45402500D02*
X63673300Y-45402500D01*
%TO.N,Net-(D4-K)*%
X34765000Y-43331800D02*
X34399600Y-43697200D01*
X39347400Y-43331800D02*
X34765000Y-43331800D01*
%TO.N,Net-(D4-A)*%
X64775000Y-37782500D02*
X63673300Y-37782500D01*
X62378200Y-39077600D02*
X63673300Y-37782500D01*
X47160600Y-39077600D02*
X62378200Y-39077600D01*
X42578200Y-43660000D02*
X47160600Y-39077600D01*
X42578200Y-43916000D02*
X42578200Y-43660000D01*
%TO.N,Net-(D3-A)*%
X64775000Y-35242500D02*
X63673300Y-35242500D01*
X62498300Y-34067500D02*
X63673300Y-35242500D01*
X40707200Y-34067500D02*
X62498300Y-34067500D01*
X38434400Y-36340300D02*
X40707200Y-34067500D01*
X37567700Y-36340300D02*
X38434400Y-36340300D01*
%TO.N,Net-(D2-K)*%
X52622700Y-72942700D02*
X36956300Y-72942700D01*
X53340000Y-73660000D02*
X52622700Y-72942700D01*
%TO.N,Net-(D2-A)*%
X42411900Y-31511900D02*
X40381300Y-33542500D01*
X50234400Y-31511900D02*
X42411900Y-31511900D01*
X51425000Y-32702500D02*
X50234400Y-31511900D01*
X64775000Y-32702500D02*
X51425000Y-32702500D01*
X40381300Y-33542500D02*
X40340800Y-33542500D01*
X40340800Y-33542500D02*
X40381300Y-33542500D01*
%TO.N,Net-(D1-A)*%
X62511200Y-28950400D02*
X63723300Y-30162500D01*
X39137800Y-28950400D02*
X62511200Y-28950400D01*
X37421500Y-30666700D02*
X39137800Y-28950400D01*
X64775000Y-30162500D02*
X63723300Y-30162500D01*
%TO.N,GND*%
X36067400Y-57797200D02*
X35937500Y-57797200D01*
X39329600Y-54535000D02*
X36067400Y-57797200D01*
X39329600Y-54292500D02*
X39329600Y-54535000D01*
X40481300Y-54292500D02*
X39329600Y-54292500D01*
X50160000Y-90064900D02*
X50160000Y-86373400D01*
X50160000Y-90064900D02*
X58924000Y-90064900D01*
X59584900Y-90064900D02*
X59690000Y-90170000D01*
X58924000Y-90064900D02*
X59584900Y-90064900D01*
X69275000Y-71120000D02*
X59690000Y-71120000D01*
X71450000Y-73295000D02*
X69275000Y-71120000D01*
X71450000Y-73700000D02*
X71450000Y-73295000D01*
X83450000Y-73700000D02*
X71450000Y-73700000D01*
X71450000Y-73700000D02*
X68950000Y-76200000D01*
X60345300Y-59907900D02*
X63066300Y-59907900D01*
X59968700Y-59531300D02*
X60345300Y-59907900D01*
X83343700Y-58879900D02*
X83343700Y-58650000D01*
X63066300Y-59907900D02*
X74897500Y-59907900D01*
X49634000Y-71120000D02*
X40640000Y-71120000D01*
X50225000Y-70529000D02*
X49634000Y-71120000D01*
X50225000Y-67322200D02*
X50225000Y-70529000D01*
X50160000Y-90107300D02*
X51256900Y-90107300D01*
X50097300Y-90170000D02*
X50160000Y-90107300D01*
X40640000Y-90170000D02*
X50097300Y-90170000D01*
X50160000Y-90107300D02*
X50160000Y-90064900D01*
X53462900Y-36512500D02*
X54406500Y-37456100D01*
X47084000Y-36512500D02*
X53462900Y-36512500D01*
X46106500Y-35535000D02*
X47084000Y-36512500D01*
X43325900Y-35535000D02*
X46106500Y-35535000D01*
X43290900Y-35500000D02*
X43325900Y-35535000D01*
X51152500Y-105422200D02*
X51543700Y-105031000D01*
X50225000Y-105422200D02*
X51152500Y-105422200D01*
X69275000Y-105422200D02*
X69275000Y-105660200D01*
X53104200Y-70718300D02*
X52868800Y-70953700D01*
X59288300Y-70718300D02*
X53104200Y-70718300D01*
X59690000Y-71120000D02*
X59288300Y-70718300D01*
X52868800Y-70953700D02*
X52704000Y-71118500D01*
X52868800Y-70953700D02*
X52704000Y-71118500D01*
X50814500Y-71118500D02*
X50225000Y-70529000D01*
X52704000Y-71118500D02*
X50814500Y-71118500D01*
%TO.N,Net-(D10-VDD)*%
X49525000Y-30162500D02*
X50676700Y-30162500D01*
X54655600Y-58031300D02*
X54768700Y-58031300D01*
X54655600Y-56655300D02*
X54192900Y-56192600D01*
X54655600Y-58031300D02*
X54655600Y-56655300D01*
X63066300Y-102913500D02*
X63066300Y-102155600D01*
X64075000Y-103922200D02*
X63066300Y-102913500D01*
X64031600Y-65778700D02*
X62451000Y-65778700D01*
X64031600Y-65778800D02*
X64031600Y-65778700D01*
X64075000Y-65822200D02*
X64031600Y-65778800D01*
X77186300Y-56192600D02*
X54192900Y-56192600D01*
X78143700Y-57150000D02*
X77186300Y-56192600D01*
X53632900Y-59054000D02*
X54655600Y-58031300D01*
X53632900Y-60035800D02*
X53632900Y-59054000D01*
X59375800Y-65778700D02*
X53632900Y-60035800D01*
X62451000Y-65778700D02*
X59375800Y-65778700D01*
X51850400Y-31336200D02*
X50676700Y-30162500D01*
X67629800Y-31336200D02*
X51850400Y-31336200D01*
X71437500Y-35143900D02*
X67629800Y-31336200D01*
X71437500Y-35281200D02*
X71437500Y-35143900D01*
%TO.N,Net-(D6-DOUT)*%
X44610001Y-84873358D02*
X44863599Y-84873358D01*
X44863599Y-84873358D02*
X45120475Y-84616482D01*
%TO.N,GND*%
X58924000Y-90064900D02*
X67825100Y-90064900D01*
X68650000Y-86798900D02*
X68822300Y-86626600D01*
X67825100Y-90064900D02*
X68650000Y-89240000D01*
X68650000Y-89240000D02*
X68650000Y-86798900D01*
X68822300Y-86626600D02*
X68822300Y-86391000D01*
X68822300Y-86391000D02*
X72601300Y-90170000D01*
X72601300Y-90170000D02*
X78740000Y-90170000D01*
%TO.N,Net-(D8-DOUT)*%
X50225000Y-101065900D02*
X45123100Y-95964000D01*
X50225000Y-103922200D02*
X50225000Y-101065900D01*
%TO.N,GND*%
X69275000Y-67322200D02*
X69275000Y-71120000D01*
%TO.N,Net-(D7-DOUT)*%
X57447600Y-65822200D02*
X61369700Y-69744300D01*
X50225000Y-65822200D02*
X57447600Y-65822200D01*
%TD*%
M02*
