%TF.GenerationSoftware,KiCad,Pcbnew,9.0.7*%
%TF.CreationDate,2026-01-22T22:05:33-06:00*%
%TF.ProjectId,HACK PAD!,4841434b-2050-4414-9421-2e6b69636164,rev?*%
%TF.SameCoordinates,Original*%
%TF.FileFunction,AssemblyDrawing,Top*%
%FSLAX46Y46*%
G04 Gerber Fmt 4.6, Leading zero omitted, Abs format (unit mm)*
G04 Created by KiCad (PCBNEW 9.0.7) date 2026-01-22 22:05:33*
%MOMM*%
%LPD*%
G01*
G04 APERTURE LIST*
%ADD10C,0.150000*%
%ADD11C,0.080000*%
%ADD12C,0.100000*%
%ADD13C,0.120000*%
G04 APERTURE END LIST*
D10*
X46420901Y-43433332D02*
X46468520Y-43290475D01*
X46468520Y-43290475D02*
X46468520Y-43052380D01*
X46468520Y-43052380D02*
X46420901Y-42957142D01*
X46420901Y-42957142D02*
X46373281Y-42909523D01*
X46373281Y-42909523D02*
X46278043Y-42861904D01*
X46278043Y-42861904D02*
X46182805Y-42861904D01*
X46182805Y-42861904D02*
X46087567Y-42909523D01*
X46087567Y-42909523D02*
X46039948Y-42957142D01*
X46039948Y-42957142D02*
X45992329Y-43052380D01*
X45992329Y-43052380D02*
X45944710Y-43242856D01*
X45944710Y-43242856D02*
X45897091Y-43338094D01*
X45897091Y-43338094D02*
X45849472Y-43385713D01*
X45849472Y-43385713D02*
X45754234Y-43433332D01*
X45754234Y-43433332D02*
X45658996Y-43433332D01*
X45658996Y-43433332D02*
X45563758Y-43385713D01*
X45563758Y-43385713D02*
X45516139Y-43338094D01*
X45516139Y-43338094D02*
X45468520Y-43242856D01*
X45468520Y-43242856D02*
X45468520Y-43004761D01*
X45468520Y-43004761D02*
X45516139Y-42861904D01*
X46468520Y-42433332D02*
X45468520Y-42433332D01*
X46468520Y-41861904D02*
X45897091Y-42290475D01*
X45468520Y-41861904D02*
X46039948Y-42433332D01*
X45468520Y-41004761D02*
X45468520Y-41195237D01*
X45468520Y-41195237D02*
X45516139Y-41290475D01*
X45516139Y-41290475D02*
X45563758Y-41338094D01*
X45563758Y-41338094D02*
X45706615Y-41433332D01*
X45706615Y-41433332D02*
X45897091Y-41480951D01*
X45897091Y-41480951D02*
X46278043Y-41480951D01*
X46278043Y-41480951D02*
X46373281Y-41433332D01*
X46373281Y-41433332D02*
X46420901Y-41385713D01*
X46420901Y-41385713D02*
X46468520Y-41290475D01*
X46468520Y-41290475D02*
X46468520Y-41099999D01*
X46468520Y-41099999D02*
X46420901Y-41004761D01*
X46420901Y-41004761D02*
X46373281Y-40957142D01*
X46373281Y-40957142D02*
X46278043Y-40909523D01*
X46278043Y-40909523D02*
X46039948Y-40909523D01*
X46039948Y-40909523D02*
X45944710Y-40957142D01*
X45944710Y-40957142D02*
X45897091Y-41004761D01*
X45897091Y-41004761D02*
X45849472Y-41099999D01*
X45849472Y-41099999D02*
X45849472Y-41290475D01*
X45849472Y-41290475D02*
X45897091Y-41385713D01*
X45897091Y-41385713D02*
X45944710Y-41433332D01*
X45944710Y-41433332D02*
X46039948Y-41480951D01*
X45897091Y-40338094D02*
X45849472Y-40433332D01*
X45849472Y-40433332D02*
X45801853Y-40480951D01*
X45801853Y-40480951D02*
X45706615Y-40528570D01*
X45706615Y-40528570D02*
X45658996Y-40528570D01*
X45658996Y-40528570D02*
X45563758Y-40480951D01*
X45563758Y-40480951D02*
X45516139Y-40433332D01*
X45516139Y-40433332D02*
X45468520Y-40338094D01*
X45468520Y-40338094D02*
X45468520Y-40147618D01*
X45468520Y-40147618D02*
X45516139Y-40052380D01*
X45516139Y-40052380D02*
X45563758Y-40004761D01*
X45563758Y-40004761D02*
X45658996Y-39957142D01*
X45658996Y-39957142D02*
X45706615Y-39957142D01*
X45706615Y-39957142D02*
X45801853Y-40004761D01*
X45801853Y-40004761D02*
X45849472Y-40052380D01*
X45849472Y-40052380D02*
X45897091Y-40147618D01*
X45897091Y-40147618D02*
X45897091Y-40338094D01*
X45897091Y-40338094D02*
X45944710Y-40433332D01*
X45944710Y-40433332D02*
X45992329Y-40480951D01*
X45992329Y-40480951D02*
X46087567Y-40528570D01*
X46087567Y-40528570D02*
X46278043Y-40528570D01*
X46278043Y-40528570D02*
X46373281Y-40480951D01*
X46373281Y-40480951D02*
X46420901Y-40433332D01*
X46420901Y-40433332D02*
X46468520Y-40338094D01*
X46468520Y-40338094D02*
X46468520Y-40147618D01*
X46468520Y-40147618D02*
X46420901Y-40052380D01*
X46420901Y-40052380D02*
X46373281Y-40004761D01*
X46373281Y-40004761D02*
X46278043Y-39957142D01*
X46278043Y-39957142D02*
X46087567Y-39957142D01*
X46087567Y-39957142D02*
X45992329Y-40004761D01*
X45992329Y-40004761D02*
X45944710Y-40052380D01*
X45944710Y-40052380D02*
X45897091Y-40147618D01*
X46468520Y-39004761D02*
X46468520Y-39576189D01*
X46468520Y-39290475D02*
X45468520Y-39290475D01*
X45468520Y-39290475D02*
X45611377Y-39385713D01*
X45611377Y-39385713D02*
X45706615Y-39480951D01*
X45706615Y-39480951D02*
X45754234Y-39576189D01*
X45563758Y-38623808D02*
X45516139Y-38576189D01*
X45516139Y-38576189D02*
X45468520Y-38480951D01*
X45468520Y-38480951D02*
X45468520Y-38242856D01*
X45468520Y-38242856D02*
X45516139Y-38147618D01*
X45516139Y-38147618D02*
X45563758Y-38099999D01*
X45563758Y-38099999D02*
X45658996Y-38052380D01*
X45658996Y-38052380D02*
X45754234Y-38052380D01*
X45754234Y-38052380D02*
X45897091Y-38099999D01*
X45897091Y-38099999D02*
X46468520Y-38671427D01*
X46468520Y-38671427D02*
X46468520Y-38052380D01*
X46468520Y-37623808D02*
X45468520Y-37623808D01*
X45468520Y-37623808D02*
X46182805Y-37290475D01*
X46182805Y-37290475D02*
X45468520Y-36957142D01*
X45468520Y-36957142D02*
X46468520Y-36957142D01*
X46468520Y-36480951D02*
X45468520Y-36480951D01*
X46468520Y-36004761D02*
X45468520Y-36004761D01*
X45468520Y-36004761D02*
X46468520Y-35433333D01*
X46468520Y-35433333D02*
X45468520Y-35433333D01*
X46468520Y-34957142D02*
X45468520Y-34957142D01*
X46087567Y-34480952D02*
X46087567Y-33719048D01*
X45944710Y-33242857D02*
X45944710Y-32909524D01*
X46468520Y-32766667D02*
X46468520Y-33242857D01*
X46468520Y-33242857D02*
X45468520Y-33242857D01*
X45468520Y-33242857D02*
X45468520Y-32766667D01*
X42291667Y-70452201D02*
X42434524Y-70499820D01*
X42434524Y-70499820D02*
X42672619Y-70499820D01*
X42672619Y-70499820D02*
X42767857Y-70452201D01*
X42767857Y-70452201D02*
X42815476Y-70404581D01*
X42815476Y-70404581D02*
X42863095Y-70309343D01*
X42863095Y-70309343D02*
X42863095Y-70214105D01*
X42863095Y-70214105D02*
X42815476Y-70118867D01*
X42815476Y-70118867D02*
X42767857Y-70071248D01*
X42767857Y-70071248D02*
X42672619Y-70023629D01*
X42672619Y-70023629D02*
X42482143Y-69976010D01*
X42482143Y-69976010D02*
X42386905Y-69928391D01*
X42386905Y-69928391D02*
X42339286Y-69880772D01*
X42339286Y-69880772D02*
X42291667Y-69785534D01*
X42291667Y-69785534D02*
X42291667Y-69690296D01*
X42291667Y-69690296D02*
X42339286Y-69595058D01*
X42339286Y-69595058D02*
X42386905Y-69547439D01*
X42386905Y-69547439D02*
X42482143Y-69499820D01*
X42482143Y-69499820D02*
X42720238Y-69499820D01*
X42720238Y-69499820D02*
X42863095Y-69547439D01*
X43291667Y-70499820D02*
X43291667Y-69499820D01*
X43863095Y-70499820D02*
X43434524Y-69928391D01*
X43863095Y-69499820D02*
X43291667Y-70071248D01*
X44720238Y-69499820D02*
X44529762Y-69499820D01*
X44529762Y-69499820D02*
X44434524Y-69547439D01*
X44434524Y-69547439D02*
X44386905Y-69595058D01*
X44386905Y-69595058D02*
X44291667Y-69737915D01*
X44291667Y-69737915D02*
X44244048Y-69928391D01*
X44244048Y-69928391D02*
X44244048Y-70309343D01*
X44244048Y-70309343D02*
X44291667Y-70404581D01*
X44291667Y-70404581D02*
X44339286Y-70452201D01*
X44339286Y-70452201D02*
X44434524Y-70499820D01*
X44434524Y-70499820D02*
X44625000Y-70499820D01*
X44625000Y-70499820D02*
X44720238Y-70452201D01*
X44720238Y-70452201D02*
X44767857Y-70404581D01*
X44767857Y-70404581D02*
X44815476Y-70309343D01*
X44815476Y-70309343D02*
X44815476Y-70071248D01*
X44815476Y-70071248D02*
X44767857Y-69976010D01*
X44767857Y-69976010D02*
X44720238Y-69928391D01*
X44720238Y-69928391D02*
X44625000Y-69880772D01*
X44625000Y-69880772D02*
X44434524Y-69880772D01*
X44434524Y-69880772D02*
X44339286Y-69928391D01*
X44339286Y-69928391D02*
X44291667Y-69976010D01*
X44291667Y-69976010D02*
X44244048Y-70071248D01*
X45386905Y-69928391D02*
X45291667Y-69880772D01*
X45291667Y-69880772D02*
X45244048Y-69833153D01*
X45244048Y-69833153D02*
X45196429Y-69737915D01*
X45196429Y-69737915D02*
X45196429Y-69690296D01*
X45196429Y-69690296D02*
X45244048Y-69595058D01*
X45244048Y-69595058D02*
X45291667Y-69547439D01*
X45291667Y-69547439D02*
X45386905Y-69499820D01*
X45386905Y-69499820D02*
X45577381Y-69499820D01*
X45577381Y-69499820D02*
X45672619Y-69547439D01*
X45672619Y-69547439D02*
X45720238Y-69595058D01*
X45720238Y-69595058D02*
X45767857Y-69690296D01*
X45767857Y-69690296D02*
X45767857Y-69737915D01*
X45767857Y-69737915D02*
X45720238Y-69833153D01*
X45720238Y-69833153D02*
X45672619Y-69880772D01*
X45672619Y-69880772D02*
X45577381Y-69928391D01*
X45577381Y-69928391D02*
X45386905Y-69928391D01*
X45386905Y-69928391D02*
X45291667Y-69976010D01*
X45291667Y-69976010D02*
X45244048Y-70023629D01*
X45244048Y-70023629D02*
X45196429Y-70118867D01*
X45196429Y-70118867D02*
X45196429Y-70309343D01*
X45196429Y-70309343D02*
X45244048Y-70404581D01*
X45244048Y-70404581D02*
X45291667Y-70452201D01*
X45291667Y-70452201D02*
X45386905Y-70499820D01*
X45386905Y-70499820D02*
X45577381Y-70499820D01*
X45577381Y-70499820D02*
X45672619Y-70452201D01*
X45672619Y-70452201D02*
X45720238Y-70404581D01*
X45720238Y-70404581D02*
X45767857Y-70309343D01*
X45767857Y-70309343D02*
X45767857Y-70118867D01*
X45767857Y-70118867D02*
X45720238Y-70023629D01*
X45720238Y-70023629D02*
X45672619Y-69976010D01*
X45672619Y-69976010D02*
X45577381Y-69928391D01*
X46720238Y-70499820D02*
X46148810Y-70499820D01*
X46434524Y-70499820D02*
X46434524Y-69499820D01*
X46434524Y-69499820D02*
X46339286Y-69642677D01*
X46339286Y-69642677D02*
X46244048Y-69737915D01*
X46244048Y-69737915D02*
X46148810Y-69785534D01*
X47101191Y-69595058D02*
X47148810Y-69547439D01*
X47148810Y-69547439D02*
X47244048Y-69499820D01*
X47244048Y-69499820D02*
X47482143Y-69499820D01*
X47482143Y-69499820D02*
X47577381Y-69547439D01*
X47577381Y-69547439D02*
X47625000Y-69595058D01*
X47625000Y-69595058D02*
X47672619Y-69690296D01*
X47672619Y-69690296D02*
X47672619Y-69785534D01*
X47672619Y-69785534D02*
X47625000Y-69928391D01*
X47625000Y-69928391D02*
X47053572Y-70499820D01*
X47053572Y-70499820D02*
X47672619Y-70499820D01*
X48101191Y-70499820D02*
X48101191Y-69499820D01*
X48101191Y-69499820D02*
X48434524Y-70214105D01*
X48434524Y-70214105D02*
X48767857Y-69499820D01*
X48767857Y-69499820D02*
X48767857Y-70499820D01*
X49244048Y-70499820D02*
X49244048Y-69499820D01*
X49720238Y-70499820D02*
X49720238Y-69499820D01*
X49720238Y-69499820D02*
X50291666Y-70499820D01*
X50291666Y-70499820D02*
X50291666Y-69499820D01*
X50767857Y-70499820D02*
X50767857Y-69499820D01*
X51244047Y-70118867D02*
X52005952Y-70118867D01*
X52482142Y-69976010D02*
X52815475Y-69976010D01*
X52958332Y-70499820D02*
X52482142Y-70499820D01*
X52482142Y-70499820D02*
X52482142Y-69499820D01*
X52482142Y-69499820D02*
X52958332Y-69499820D01*
X60888967Y-89521001D02*
X61031824Y-89568620D01*
X61031824Y-89568620D02*
X61269919Y-89568620D01*
X61269919Y-89568620D02*
X61365157Y-89521001D01*
X61365157Y-89521001D02*
X61412776Y-89473381D01*
X61412776Y-89473381D02*
X61460395Y-89378143D01*
X61460395Y-89378143D02*
X61460395Y-89282905D01*
X61460395Y-89282905D02*
X61412776Y-89187667D01*
X61412776Y-89187667D02*
X61365157Y-89140048D01*
X61365157Y-89140048D02*
X61269919Y-89092429D01*
X61269919Y-89092429D02*
X61079443Y-89044810D01*
X61079443Y-89044810D02*
X60984205Y-88997191D01*
X60984205Y-88997191D02*
X60936586Y-88949572D01*
X60936586Y-88949572D02*
X60888967Y-88854334D01*
X60888967Y-88854334D02*
X60888967Y-88759096D01*
X60888967Y-88759096D02*
X60936586Y-88663858D01*
X60936586Y-88663858D02*
X60984205Y-88616239D01*
X60984205Y-88616239D02*
X61079443Y-88568620D01*
X61079443Y-88568620D02*
X61317538Y-88568620D01*
X61317538Y-88568620D02*
X61460395Y-88616239D01*
X61888967Y-89568620D02*
X61888967Y-88568620D01*
X62460395Y-89568620D02*
X62031824Y-88997191D01*
X62460395Y-88568620D02*
X61888967Y-89140048D01*
X63317538Y-88568620D02*
X63127062Y-88568620D01*
X63127062Y-88568620D02*
X63031824Y-88616239D01*
X63031824Y-88616239D02*
X62984205Y-88663858D01*
X62984205Y-88663858D02*
X62888967Y-88806715D01*
X62888967Y-88806715D02*
X62841348Y-88997191D01*
X62841348Y-88997191D02*
X62841348Y-89378143D01*
X62841348Y-89378143D02*
X62888967Y-89473381D01*
X62888967Y-89473381D02*
X62936586Y-89521001D01*
X62936586Y-89521001D02*
X63031824Y-89568620D01*
X63031824Y-89568620D02*
X63222300Y-89568620D01*
X63222300Y-89568620D02*
X63317538Y-89521001D01*
X63317538Y-89521001D02*
X63365157Y-89473381D01*
X63365157Y-89473381D02*
X63412776Y-89378143D01*
X63412776Y-89378143D02*
X63412776Y-89140048D01*
X63412776Y-89140048D02*
X63365157Y-89044810D01*
X63365157Y-89044810D02*
X63317538Y-88997191D01*
X63317538Y-88997191D02*
X63222300Y-88949572D01*
X63222300Y-88949572D02*
X63031824Y-88949572D01*
X63031824Y-88949572D02*
X62936586Y-88997191D01*
X62936586Y-88997191D02*
X62888967Y-89044810D01*
X62888967Y-89044810D02*
X62841348Y-89140048D01*
X63984205Y-88997191D02*
X63888967Y-88949572D01*
X63888967Y-88949572D02*
X63841348Y-88901953D01*
X63841348Y-88901953D02*
X63793729Y-88806715D01*
X63793729Y-88806715D02*
X63793729Y-88759096D01*
X63793729Y-88759096D02*
X63841348Y-88663858D01*
X63841348Y-88663858D02*
X63888967Y-88616239D01*
X63888967Y-88616239D02*
X63984205Y-88568620D01*
X63984205Y-88568620D02*
X64174681Y-88568620D01*
X64174681Y-88568620D02*
X64269919Y-88616239D01*
X64269919Y-88616239D02*
X64317538Y-88663858D01*
X64317538Y-88663858D02*
X64365157Y-88759096D01*
X64365157Y-88759096D02*
X64365157Y-88806715D01*
X64365157Y-88806715D02*
X64317538Y-88901953D01*
X64317538Y-88901953D02*
X64269919Y-88949572D01*
X64269919Y-88949572D02*
X64174681Y-88997191D01*
X64174681Y-88997191D02*
X63984205Y-88997191D01*
X63984205Y-88997191D02*
X63888967Y-89044810D01*
X63888967Y-89044810D02*
X63841348Y-89092429D01*
X63841348Y-89092429D02*
X63793729Y-89187667D01*
X63793729Y-89187667D02*
X63793729Y-89378143D01*
X63793729Y-89378143D02*
X63841348Y-89473381D01*
X63841348Y-89473381D02*
X63888967Y-89521001D01*
X63888967Y-89521001D02*
X63984205Y-89568620D01*
X63984205Y-89568620D02*
X64174681Y-89568620D01*
X64174681Y-89568620D02*
X64269919Y-89521001D01*
X64269919Y-89521001D02*
X64317538Y-89473381D01*
X64317538Y-89473381D02*
X64365157Y-89378143D01*
X64365157Y-89378143D02*
X64365157Y-89187667D01*
X64365157Y-89187667D02*
X64317538Y-89092429D01*
X64317538Y-89092429D02*
X64269919Y-89044810D01*
X64269919Y-89044810D02*
X64174681Y-88997191D01*
X65317538Y-89568620D02*
X64746110Y-89568620D01*
X65031824Y-89568620D02*
X65031824Y-88568620D01*
X65031824Y-88568620D02*
X64936586Y-88711477D01*
X64936586Y-88711477D02*
X64841348Y-88806715D01*
X64841348Y-88806715D02*
X64746110Y-88854334D01*
X65698491Y-88663858D02*
X65746110Y-88616239D01*
X65746110Y-88616239D02*
X65841348Y-88568620D01*
X65841348Y-88568620D02*
X66079443Y-88568620D01*
X66079443Y-88568620D02*
X66174681Y-88616239D01*
X66174681Y-88616239D02*
X66222300Y-88663858D01*
X66222300Y-88663858D02*
X66269919Y-88759096D01*
X66269919Y-88759096D02*
X66269919Y-88854334D01*
X66269919Y-88854334D02*
X66222300Y-88997191D01*
X66222300Y-88997191D02*
X65650872Y-89568620D01*
X65650872Y-89568620D02*
X66269919Y-89568620D01*
X66698491Y-89568620D02*
X66698491Y-88568620D01*
X66698491Y-88568620D02*
X67031824Y-89282905D01*
X67031824Y-89282905D02*
X67365157Y-88568620D01*
X67365157Y-88568620D02*
X67365157Y-89568620D01*
X67841348Y-89568620D02*
X67841348Y-88568620D01*
X68317538Y-89568620D02*
X68317538Y-88568620D01*
X68317538Y-88568620D02*
X68888966Y-89568620D01*
X68888966Y-89568620D02*
X68888966Y-88568620D01*
X69365157Y-89568620D02*
X69365157Y-88568620D01*
X69841347Y-89187667D02*
X70603252Y-89187667D01*
X71079442Y-89044810D02*
X71412775Y-89044810D01*
X71555632Y-89568620D02*
X71079442Y-89568620D01*
X71079442Y-89568620D02*
X71079442Y-88568620D01*
X71079442Y-88568620D02*
X71555632Y-88568620D01*
X42291667Y-108552201D02*
X42434524Y-108599820D01*
X42434524Y-108599820D02*
X42672619Y-108599820D01*
X42672619Y-108599820D02*
X42767857Y-108552201D01*
X42767857Y-108552201D02*
X42815476Y-108504581D01*
X42815476Y-108504581D02*
X42863095Y-108409343D01*
X42863095Y-108409343D02*
X42863095Y-108314105D01*
X42863095Y-108314105D02*
X42815476Y-108218867D01*
X42815476Y-108218867D02*
X42767857Y-108171248D01*
X42767857Y-108171248D02*
X42672619Y-108123629D01*
X42672619Y-108123629D02*
X42482143Y-108076010D01*
X42482143Y-108076010D02*
X42386905Y-108028391D01*
X42386905Y-108028391D02*
X42339286Y-107980772D01*
X42339286Y-107980772D02*
X42291667Y-107885534D01*
X42291667Y-107885534D02*
X42291667Y-107790296D01*
X42291667Y-107790296D02*
X42339286Y-107695058D01*
X42339286Y-107695058D02*
X42386905Y-107647439D01*
X42386905Y-107647439D02*
X42482143Y-107599820D01*
X42482143Y-107599820D02*
X42720238Y-107599820D01*
X42720238Y-107599820D02*
X42863095Y-107647439D01*
X43291667Y-108599820D02*
X43291667Y-107599820D01*
X43863095Y-108599820D02*
X43434524Y-108028391D01*
X43863095Y-107599820D02*
X43291667Y-108171248D01*
X44720238Y-107599820D02*
X44529762Y-107599820D01*
X44529762Y-107599820D02*
X44434524Y-107647439D01*
X44434524Y-107647439D02*
X44386905Y-107695058D01*
X44386905Y-107695058D02*
X44291667Y-107837915D01*
X44291667Y-107837915D02*
X44244048Y-108028391D01*
X44244048Y-108028391D02*
X44244048Y-108409343D01*
X44244048Y-108409343D02*
X44291667Y-108504581D01*
X44291667Y-108504581D02*
X44339286Y-108552201D01*
X44339286Y-108552201D02*
X44434524Y-108599820D01*
X44434524Y-108599820D02*
X44625000Y-108599820D01*
X44625000Y-108599820D02*
X44720238Y-108552201D01*
X44720238Y-108552201D02*
X44767857Y-108504581D01*
X44767857Y-108504581D02*
X44815476Y-108409343D01*
X44815476Y-108409343D02*
X44815476Y-108171248D01*
X44815476Y-108171248D02*
X44767857Y-108076010D01*
X44767857Y-108076010D02*
X44720238Y-108028391D01*
X44720238Y-108028391D02*
X44625000Y-107980772D01*
X44625000Y-107980772D02*
X44434524Y-107980772D01*
X44434524Y-107980772D02*
X44339286Y-108028391D01*
X44339286Y-108028391D02*
X44291667Y-108076010D01*
X44291667Y-108076010D02*
X44244048Y-108171248D01*
X45386905Y-108028391D02*
X45291667Y-107980772D01*
X45291667Y-107980772D02*
X45244048Y-107933153D01*
X45244048Y-107933153D02*
X45196429Y-107837915D01*
X45196429Y-107837915D02*
X45196429Y-107790296D01*
X45196429Y-107790296D02*
X45244048Y-107695058D01*
X45244048Y-107695058D02*
X45291667Y-107647439D01*
X45291667Y-107647439D02*
X45386905Y-107599820D01*
X45386905Y-107599820D02*
X45577381Y-107599820D01*
X45577381Y-107599820D02*
X45672619Y-107647439D01*
X45672619Y-107647439D02*
X45720238Y-107695058D01*
X45720238Y-107695058D02*
X45767857Y-107790296D01*
X45767857Y-107790296D02*
X45767857Y-107837915D01*
X45767857Y-107837915D02*
X45720238Y-107933153D01*
X45720238Y-107933153D02*
X45672619Y-107980772D01*
X45672619Y-107980772D02*
X45577381Y-108028391D01*
X45577381Y-108028391D02*
X45386905Y-108028391D01*
X45386905Y-108028391D02*
X45291667Y-108076010D01*
X45291667Y-108076010D02*
X45244048Y-108123629D01*
X45244048Y-108123629D02*
X45196429Y-108218867D01*
X45196429Y-108218867D02*
X45196429Y-108409343D01*
X45196429Y-108409343D02*
X45244048Y-108504581D01*
X45244048Y-108504581D02*
X45291667Y-108552201D01*
X45291667Y-108552201D02*
X45386905Y-108599820D01*
X45386905Y-108599820D02*
X45577381Y-108599820D01*
X45577381Y-108599820D02*
X45672619Y-108552201D01*
X45672619Y-108552201D02*
X45720238Y-108504581D01*
X45720238Y-108504581D02*
X45767857Y-108409343D01*
X45767857Y-108409343D02*
X45767857Y-108218867D01*
X45767857Y-108218867D02*
X45720238Y-108123629D01*
X45720238Y-108123629D02*
X45672619Y-108076010D01*
X45672619Y-108076010D02*
X45577381Y-108028391D01*
X46720238Y-108599820D02*
X46148810Y-108599820D01*
X46434524Y-108599820D02*
X46434524Y-107599820D01*
X46434524Y-107599820D02*
X46339286Y-107742677D01*
X46339286Y-107742677D02*
X46244048Y-107837915D01*
X46244048Y-107837915D02*
X46148810Y-107885534D01*
X47101191Y-107695058D02*
X47148810Y-107647439D01*
X47148810Y-107647439D02*
X47244048Y-107599820D01*
X47244048Y-107599820D02*
X47482143Y-107599820D01*
X47482143Y-107599820D02*
X47577381Y-107647439D01*
X47577381Y-107647439D02*
X47625000Y-107695058D01*
X47625000Y-107695058D02*
X47672619Y-107790296D01*
X47672619Y-107790296D02*
X47672619Y-107885534D01*
X47672619Y-107885534D02*
X47625000Y-108028391D01*
X47625000Y-108028391D02*
X47053572Y-108599820D01*
X47053572Y-108599820D02*
X47672619Y-108599820D01*
X48101191Y-108599820D02*
X48101191Y-107599820D01*
X48101191Y-107599820D02*
X48434524Y-108314105D01*
X48434524Y-108314105D02*
X48767857Y-107599820D01*
X48767857Y-107599820D02*
X48767857Y-108599820D01*
X49244048Y-108599820D02*
X49244048Y-107599820D01*
X49720238Y-108599820D02*
X49720238Y-107599820D01*
X49720238Y-107599820D02*
X50291666Y-108599820D01*
X50291666Y-108599820D02*
X50291666Y-107599820D01*
X50767857Y-108599820D02*
X50767857Y-107599820D01*
X51244047Y-108218867D02*
X52005952Y-108218867D01*
X52482142Y-108076010D02*
X52815475Y-108076010D01*
X52958332Y-108599820D02*
X52482142Y-108599820D01*
X52482142Y-108599820D02*
X52482142Y-107599820D01*
X52482142Y-107599820D02*
X52958332Y-107599820D01*
X42226667Y-89503401D02*
X42369524Y-89551020D01*
X42369524Y-89551020D02*
X42607619Y-89551020D01*
X42607619Y-89551020D02*
X42702857Y-89503401D01*
X42702857Y-89503401D02*
X42750476Y-89455781D01*
X42750476Y-89455781D02*
X42798095Y-89360543D01*
X42798095Y-89360543D02*
X42798095Y-89265305D01*
X42798095Y-89265305D02*
X42750476Y-89170067D01*
X42750476Y-89170067D02*
X42702857Y-89122448D01*
X42702857Y-89122448D02*
X42607619Y-89074829D01*
X42607619Y-89074829D02*
X42417143Y-89027210D01*
X42417143Y-89027210D02*
X42321905Y-88979591D01*
X42321905Y-88979591D02*
X42274286Y-88931972D01*
X42274286Y-88931972D02*
X42226667Y-88836734D01*
X42226667Y-88836734D02*
X42226667Y-88741496D01*
X42226667Y-88741496D02*
X42274286Y-88646258D01*
X42274286Y-88646258D02*
X42321905Y-88598639D01*
X42321905Y-88598639D02*
X42417143Y-88551020D01*
X42417143Y-88551020D02*
X42655238Y-88551020D01*
X42655238Y-88551020D02*
X42798095Y-88598639D01*
X43226667Y-89551020D02*
X43226667Y-88551020D01*
X43798095Y-89551020D02*
X43369524Y-88979591D01*
X43798095Y-88551020D02*
X43226667Y-89122448D01*
X44655238Y-88551020D02*
X44464762Y-88551020D01*
X44464762Y-88551020D02*
X44369524Y-88598639D01*
X44369524Y-88598639D02*
X44321905Y-88646258D01*
X44321905Y-88646258D02*
X44226667Y-88789115D01*
X44226667Y-88789115D02*
X44179048Y-88979591D01*
X44179048Y-88979591D02*
X44179048Y-89360543D01*
X44179048Y-89360543D02*
X44226667Y-89455781D01*
X44226667Y-89455781D02*
X44274286Y-89503401D01*
X44274286Y-89503401D02*
X44369524Y-89551020D01*
X44369524Y-89551020D02*
X44560000Y-89551020D01*
X44560000Y-89551020D02*
X44655238Y-89503401D01*
X44655238Y-89503401D02*
X44702857Y-89455781D01*
X44702857Y-89455781D02*
X44750476Y-89360543D01*
X44750476Y-89360543D02*
X44750476Y-89122448D01*
X44750476Y-89122448D02*
X44702857Y-89027210D01*
X44702857Y-89027210D02*
X44655238Y-88979591D01*
X44655238Y-88979591D02*
X44560000Y-88931972D01*
X44560000Y-88931972D02*
X44369524Y-88931972D01*
X44369524Y-88931972D02*
X44274286Y-88979591D01*
X44274286Y-88979591D02*
X44226667Y-89027210D01*
X44226667Y-89027210D02*
X44179048Y-89122448D01*
X45321905Y-88979591D02*
X45226667Y-88931972D01*
X45226667Y-88931972D02*
X45179048Y-88884353D01*
X45179048Y-88884353D02*
X45131429Y-88789115D01*
X45131429Y-88789115D02*
X45131429Y-88741496D01*
X45131429Y-88741496D02*
X45179048Y-88646258D01*
X45179048Y-88646258D02*
X45226667Y-88598639D01*
X45226667Y-88598639D02*
X45321905Y-88551020D01*
X45321905Y-88551020D02*
X45512381Y-88551020D01*
X45512381Y-88551020D02*
X45607619Y-88598639D01*
X45607619Y-88598639D02*
X45655238Y-88646258D01*
X45655238Y-88646258D02*
X45702857Y-88741496D01*
X45702857Y-88741496D02*
X45702857Y-88789115D01*
X45702857Y-88789115D02*
X45655238Y-88884353D01*
X45655238Y-88884353D02*
X45607619Y-88931972D01*
X45607619Y-88931972D02*
X45512381Y-88979591D01*
X45512381Y-88979591D02*
X45321905Y-88979591D01*
X45321905Y-88979591D02*
X45226667Y-89027210D01*
X45226667Y-89027210D02*
X45179048Y-89074829D01*
X45179048Y-89074829D02*
X45131429Y-89170067D01*
X45131429Y-89170067D02*
X45131429Y-89360543D01*
X45131429Y-89360543D02*
X45179048Y-89455781D01*
X45179048Y-89455781D02*
X45226667Y-89503401D01*
X45226667Y-89503401D02*
X45321905Y-89551020D01*
X45321905Y-89551020D02*
X45512381Y-89551020D01*
X45512381Y-89551020D02*
X45607619Y-89503401D01*
X45607619Y-89503401D02*
X45655238Y-89455781D01*
X45655238Y-89455781D02*
X45702857Y-89360543D01*
X45702857Y-89360543D02*
X45702857Y-89170067D01*
X45702857Y-89170067D02*
X45655238Y-89074829D01*
X45655238Y-89074829D02*
X45607619Y-89027210D01*
X45607619Y-89027210D02*
X45512381Y-88979591D01*
X46655238Y-89551020D02*
X46083810Y-89551020D01*
X46369524Y-89551020D02*
X46369524Y-88551020D01*
X46369524Y-88551020D02*
X46274286Y-88693877D01*
X46274286Y-88693877D02*
X46179048Y-88789115D01*
X46179048Y-88789115D02*
X46083810Y-88836734D01*
X47036191Y-88646258D02*
X47083810Y-88598639D01*
X47083810Y-88598639D02*
X47179048Y-88551020D01*
X47179048Y-88551020D02*
X47417143Y-88551020D01*
X47417143Y-88551020D02*
X47512381Y-88598639D01*
X47512381Y-88598639D02*
X47560000Y-88646258D01*
X47560000Y-88646258D02*
X47607619Y-88741496D01*
X47607619Y-88741496D02*
X47607619Y-88836734D01*
X47607619Y-88836734D02*
X47560000Y-88979591D01*
X47560000Y-88979591D02*
X46988572Y-89551020D01*
X46988572Y-89551020D02*
X47607619Y-89551020D01*
X48036191Y-89551020D02*
X48036191Y-88551020D01*
X48036191Y-88551020D02*
X48369524Y-89265305D01*
X48369524Y-89265305D02*
X48702857Y-88551020D01*
X48702857Y-88551020D02*
X48702857Y-89551020D01*
X49179048Y-89551020D02*
X49179048Y-88551020D01*
X49655238Y-89551020D02*
X49655238Y-88551020D01*
X49655238Y-88551020D02*
X50226666Y-89551020D01*
X50226666Y-89551020D02*
X50226666Y-88551020D01*
X50702857Y-89551020D02*
X50702857Y-88551020D01*
X51179047Y-89170067D02*
X51940952Y-89170067D01*
X52417142Y-89027210D02*
X52750475Y-89027210D01*
X52893332Y-89551020D02*
X52417142Y-89551020D01*
X52417142Y-89551020D02*
X52417142Y-88551020D01*
X52417142Y-88551020D02*
X52893332Y-88551020D01*
X61341667Y-108552201D02*
X61484524Y-108599820D01*
X61484524Y-108599820D02*
X61722619Y-108599820D01*
X61722619Y-108599820D02*
X61817857Y-108552201D01*
X61817857Y-108552201D02*
X61865476Y-108504581D01*
X61865476Y-108504581D02*
X61913095Y-108409343D01*
X61913095Y-108409343D02*
X61913095Y-108314105D01*
X61913095Y-108314105D02*
X61865476Y-108218867D01*
X61865476Y-108218867D02*
X61817857Y-108171248D01*
X61817857Y-108171248D02*
X61722619Y-108123629D01*
X61722619Y-108123629D02*
X61532143Y-108076010D01*
X61532143Y-108076010D02*
X61436905Y-108028391D01*
X61436905Y-108028391D02*
X61389286Y-107980772D01*
X61389286Y-107980772D02*
X61341667Y-107885534D01*
X61341667Y-107885534D02*
X61341667Y-107790296D01*
X61341667Y-107790296D02*
X61389286Y-107695058D01*
X61389286Y-107695058D02*
X61436905Y-107647439D01*
X61436905Y-107647439D02*
X61532143Y-107599820D01*
X61532143Y-107599820D02*
X61770238Y-107599820D01*
X61770238Y-107599820D02*
X61913095Y-107647439D01*
X62341667Y-108599820D02*
X62341667Y-107599820D01*
X62913095Y-108599820D02*
X62484524Y-108028391D01*
X62913095Y-107599820D02*
X62341667Y-108171248D01*
X63770238Y-107599820D02*
X63579762Y-107599820D01*
X63579762Y-107599820D02*
X63484524Y-107647439D01*
X63484524Y-107647439D02*
X63436905Y-107695058D01*
X63436905Y-107695058D02*
X63341667Y-107837915D01*
X63341667Y-107837915D02*
X63294048Y-108028391D01*
X63294048Y-108028391D02*
X63294048Y-108409343D01*
X63294048Y-108409343D02*
X63341667Y-108504581D01*
X63341667Y-108504581D02*
X63389286Y-108552201D01*
X63389286Y-108552201D02*
X63484524Y-108599820D01*
X63484524Y-108599820D02*
X63675000Y-108599820D01*
X63675000Y-108599820D02*
X63770238Y-108552201D01*
X63770238Y-108552201D02*
X63817857Y-108504581D01*
X63817857Y-108504581D02*
X63865476Y-108409343D01*
X63865476Y-108409343D02*
X63865476Y-108171248D01*
X63865476Y-108171248D02*
X63817857Y-108076010D01*
X63817857Y-108076010D02*
X63770238Y-108028391D01*
X63770238Y-108028391D02*
X63675000Y-107980772D01*
X63675000Y-107980772D02*
X63484524Y-107980772D01*
X63484524Y-107980772D02*
X63389286Y-108028391D01*
X63389286Y-108028391D02*
X63341667Y-108076010D01*
X63341667Y-108076010D02*
X63294048Y-108171248D01*
X64436905Y-108028391D02*
X64341667Y-107980772D01*
X64341667Y-107980772D02*
X64294048Y-107933153D01*
X64294048Y-107933153D02*
X64246429Y-107837915D01*
X64246429Y-107837915D02*
X64246429Y-107790296D01*
X64246429Y-107790296D02*
X64294048Y-107695058D01*
X64294048Y-107695058D02*
X64341667Y-107647439D01*
X64341667Y-107647439D02*
X64436905Y-107599820D01*
X64436905Y-107599820D02*
X64627381Y-107599820D01*
X64627381Y-107599820D02*
X64722619Y-107647439D01*
X64722619Y-107647439D02*
X64770238Y-107695058D01*
X64770238Y-107695058D02*
X64817857Y-107790296D01*
X64817857Y-107790296D02*
X64817857Y-107837915D01*
X64817857Y-107837915D02*
X64770238Y-107933153D01*
X64770238Y-107933153D02*
X64722619Y-107980772D01*
X64722619Y-107980772D02*
X64627381Y-108028391D01*
X64627381Y-108028391D02*
X64436905Y-108028391D01*
X64436905Y-108028391D02*
X64341667Y-108076010D01*
X64341667Y-108076010D02*
X64294048Y-108123629D01*
X64294048Y-108123629D02*
X64246429Y-108218867D01*
X64246429Y-108218867D02*
X64246429Y-108409343D01*
X64246429Y-108409343D02*
X64294048Y-108504581D01*
X64294048Y-108504581D02*
X64341667Y-108552201D01*
X64341667Y-108552201D02*
X64436905Y-108599820D01*
X64436905Y-108599820D02*
X64627381Y-108599820D01*
X64627381Y-108599820D02*
X64722619Y-108552201D01*
X64722619Y-108552201D02*
X64770238Y-108504581D01*
X64770238Y-108504581D02*
X64817857Y-108409343D01*
X64817857Y-108409343D02*
X64817857Y-108218867D01*
X64817857Y-108218867D02*
X64770238Y-108123629D01*
X64770238Y-108123629D02*
X64722619Y-108076010D01*
X64722619Y-108076010D02*
X64627381Y-108028391D01*
X65770238Y-108599820D02*
X65198810Y-108599820D01*
X65484524Y-108599820D02*
X65484524Y-107599820D01*
X65484524Y-107599820D02*
X65389286Y-107742677D01*
X65389286Y-107742677D02*
X65294048Y-107837915D01*
X65294048Y-107837915D02*
X65198810Y-107885534D01*
X66151191Y-107695058D02*
X66198810Y-107647439D01*
X66198810Y-107647439D02*
X66294048Y-107599820D01*
X66294048Y-107599820D02*
X66532143Y-107599820D01*
X66532143Y-107599820D02*
X66627381Y-107647439D01*
X66627381Y-107647439D02*
X66675000Y-107695058D01*
X66675000Y-107695058D02*
X66722619Y-107790296D01*
X66722619Y-107790296D02*
X66722619Y-107885534D01*
X66722619Y-107885534D02*
X66675000Y-108028391D01*
X66675000Y-108028391D02*
X66103572Y-108599820D01*
X66103572Y-108599820D02*
X66722619Y-108599820D01*
X67151191Y-108599820D02*
X67151191Y-107599820D01*
X67151191Y-107599820D02*
X67484524Y-108314105D01*
X67484524Y-108314105D02*
X67817857Y-107599820D01*
X67817857Y-107599820D02*
X67817857Y-108599820D01*
X68294048Y-108599820D02*
X68294048Y-107599820D01*
X68770238Y-108599820D02*
X68770238Y-107599820D01*
X68770238Y-107599820D02*
X69341666Y-108599820D01*
X69341666Y-108599820D02*
X69341666Y-107599820D01*
X69817857Y-108599820D02*
X69817857Y-107599820D01*
X70294047Y-108218867D02*
X71055952Y-108218867D01*
X71532142Y-108076010D02*
X71865475Y-108076010D01*
X72008332Y-108599820D02*
X71532142Y-108599820D01*
X71532142Y-108599820D02*
X71532142Y-107599820D01*
X71532142Y-107599820D02*
X72008332Y-107599820D01*
X61341667Y-70452201D02*
X61484524Y-70499820D01*
X61484524Y-70499820D02*
X61722619Y-70499820D01*
X61722619Y-70499820D02*
X61817857Y-70452201D01*
X61817857Y-70452201D02*
X61865476Y-70404581D01*
X61865476Y-70404581D02*
X61913095Y-70309343D01*
X61913095Y-70309343D02*
X61913095Y-70214105D01*
X61913095Y-70214105D02*
X61865476Y-70118867D01*
X61865476Y-70118867D02*
X61817857Y-70071248D01*
X61817857Y-70071248D02*
X61722619Y-70023629D01*
X61722619Y-70023629D02*
X61532143Y-69976010D01*
X61532143Y-69976010D02*
X61436905Y-69928391D01*
X61436905Y-69928391D02*
X61389286Y-69880772D01*
X61389286Y-69880772D02*
X61341667Y-69785534D01*
X61341667Y-69785534D02*
X61341667Y-69690296D01*
X61341667Y-69690296D02*
X61389286Y-69595058D01*
X61389286Y-69595058D02*
X61436905Y-69547439D01*
X61436905Y-69547439D02*
X61532143Y-69499820D01*
X61532143Y-69499820D02*
X61770238Y-69499820D01*
X61770238Y-69499820D02*
X61913095Y-69547439D01*
X62341667Y-70499820D02*
X62341667Y-69499820D01*
X62913095Y-70499820D02*
X62484524Y-69928391D01*
X62913095Y-69499820D02*
X62341667Y-70071248D01*
X63770238Y-69499820D02*
X63579762Y-69499820D01*
X63579762Y-69499820D02*
X63484524Y-69547439D01*
X63484524Y-69547439D02*
X63436905Y-69595058D01*
X63436905Y-69595058D02*
X63341667Y-69737915D01*
X63341667Y-69737915D02*
X63294048Y-69928391D01*
X63294048Y-69928391D02*
X63294048Y-70309343D01*
X63294048Y-70309343D02*
X63341667Y-70404581D01*
X63341667Y-70404581D02*
X63389286Y-70452201D01*
X63389286Y-70452201D02*
X63484524Y-70499820D01*
X63484524Y-70499820D02*
X63675000Y-70499820D01*
X63675000Y-70499820D02*
X63770238Y-70452201D01*
X63770238Y-70452201D02*
X63817857Y-70404581D01*
X63817857Y-70404581D02*
X63865476Y-70309343D01*
X63865476Y-70309343D02*
X63865476Y-70071248D01*
X63865476Y-70071248D02*
X63817857Y-69976010D01*
X63817857Y-69976010D02*
X63770238Y-69928391D01*
X63770238Y-69928391D02*
X63675000Y-69880772D01*
X63675000Y-69880772D02*
X63484524Y-69880772D01*
X63484524Y-69880772D02*
X63389286Y-69928391D01*
X63389286Y-69928391D02*
X63341667Y-69976010D01*
X63341667Y-69976010D02*
X63294048Y-70071248D01*
X64436905Y-69928391D02*
X64341667Y-69880772D01*
X64341667Y-69880772D02*
X64294048Y-69833153D01*
X64294048Y-69833153D02*
X64246429Y-69737915D01*
X64246429Y-69737915D02*
X64246429Y-69690296D01*
X64246429Y-69690296D02*
X64294048Y-69595058D01*
X64294048Y-69595058D02*
X64341667Y-69547439D01*
X64341667Y-69547439D02*
X64436905Y-69499820D01*
X64436905Y-69499820D02*
X64627381Y-69499820D01*
X64627381Y-69499820D02*
X64722619Y-69547439D01*
X64722619Y-69547439D02*
X64770238Y-69595058D01*
X64770238Y-69595058D02*
X64817857Y-69690296D01*
X64817857Y-69690296D02*
X64817857Y-69737915D01*
X64817857Y-69737915D02*
X64770238Y-69833153D01*
X64770238Y-69833153D02*
X64722619Y-69880772D01*
X64722619Y-69880772D02*
X64627381Y-69928391D01*
X64627381Y-69928391D02*
X64436905Y-69928391D01*
X64436905Y-69928391D02*
X64341667Y-69976010D01*
X64341667Y-69976010D02*
X64294048Y-70023629D01*
X64294048Y-70023629D02*
X64246429Y-70118867D01*
X64246429Y-70118867D02*
X64246429Y-70309343D01*
X64246429Y-70309343D02*
X64294048Y-70404581D01*
X64294048Y-70404581D02*
X64341667Y-70452201D01*
X64341667Y-70452201D02*
X64436905Y-70499820D01*
X64436905Y-70499820D02*
X64627381Y-70499820D01*
X64627381Y-70499820D02*
X64722619Y-70452201D01*
X64722619Y-70452201D02*
X64770238Y-70404581D01*
X64770238Y-70404581D02*
X64817857Y-70309343D01*
X64817857Y-70309343D02*
X64817857Y-70118867D01*
X64817857Y-70118867D02*
X64770238Y-70023629D01*
X64770238Y-70023629D02*
X64722619Y-69976010D01*
X64722619Y-69976010D02*
X64627381Y-69928391D01*
X65770238Y-70499820D02*
X65198810Y-70499820D01*
X65484524Y-70499820D02*
X65484524Y-69499820D01*
X65484524Y-69499820D02*
X65389286Y-69642677D01*
X65389286Y-69642677D02*
X65294048Y-69737915D01*
X65294048Y-69737915D02*
X65198810Y-69785534D01*
X66151191Y-69595058D02*
X66198810Y-69547439D01*
X66198810Y-69547439D02*
X66294048Y-69499820D01*
X66294048Y-69499820D02*
X66532143Y-69499820D01*
X66532143Y-69499820D02*
X66627381Y-69547439D01*
X66627381Y-69547439D02*
X66675000Y-69595058D01*
X66675000Y-69595058D02*
X66722619Y-69690296D01*
X66722619Y-69690296D02*
X66722619Y-69785534D01*
X66722619Y-69785534D02*
X66675000Y-69928391D01*
X66675000Y-69928391D02*
X66103572Y-70499820D01*
X66103572Y-70499820D02*
X66722619Y-70499820D01*
X67151191Y-70499820D02*
X67151191Y-69499820D01*
X67151191Y-69499820D02*
X67484524Y-70214105D01*
X67484524Y-70214105D02*
X67817857Y-69499820D01*
X67817857Y-69499820D02*
X67817857Y-70499820D01*
X68294048Y-70499820D02*
X68294048Y-69499820D01*
X68770238Y-70499820D02*
X68770238Y-69499820D01*
X68770238Y-69499820D02*
X69341666Y-70499820D01*
X69341666Y-70499820D02*
X69341666Y-69499820D01*
X69817857Y-70499820D02*
X69817857Y-69499820D01*
X70294047Y-70118867D02*
X71055952Y-70118867D01*
X71532142Y-69976010D02*
X71865475Y-69976010D01*
X72008332Y-70499820D02*
X71532142Y-70499820D01*
X71532142Y-70499820D02*
X71532142Y-69499820D01*
X71532142Y-69499820D02*
X72008332Y-69499820D01*
X52035367Y-62661301D02*
X52178224Y-62708920D01*
X52178224Y-62708920D02*
X52416319Y-62708920D01*
X52416319Y-62708920D02*
X52511557Y-62661301D01*
X52511557Y-62661301D02*
X52559176Y-62613681D01*
X52559176Y-62613681D02*
X52606795Y-62518443D01*
X52606795Y-62518443D02*
X52606795Y-62423205D01*
X52606795Y-62423205D02*
X52559176Y-62327967D01*
X52559176Y-62327967D02*
X52511557Y-62280348D01*
X52511557Y-62280348D02*
X52416319Y-62232729D01*
X52416319Y-62232729D02*
X52225843Y-62185110D01*
X52225843Y-62185110D02*
X52130605Y-62137491D01*
X52130605Y-62137491D02*
X52082986Y-62089872D01*
X52082986Y-62089872D02*
X52035367Y-61994634D01*
X52035367Y-61994634D02*
X52035367Y-61899396D01*
X52035367Y-61899396D02*
X52082986Y-61804158D01*
X52082986Y-61804158D02*
X52130605Y-61756539D01*
X52130605Y-61756539D02*
X52225843Y-61708920D01*
X52225843Y-61708920D02*
X52463938Y-61708920D01*
X52463938Y-61708920D02*
X52606795Y-61756539D01*
X53035367Y-62708920D02*
X53035367Y-61708920D01*
X53606795Y-62708920D02*
X53178224Y-62137491D01*
X53606795Y-61708920D02*
X53035367Y-62280348D01*
X54463938Y-61708920D02*
X54273462Y-61708920D01*
X54273462Y-61708920D02*
X54178224Y-61756539D01*
X54178224Y-61756539D02*
X54130605Y-61804158D01*
X54130605Y-61804158D02*
X54035367Y-61947015D01*
X54035367Y-61947015D02*
X53987748Y-62137491D01*
X53987748Y-62137491D02*
X53987748Y-62518443D01*
X53987748Y-62518443D02*
X54035367Y-62613681D01*
X54035367Y-62613681D02*
X54082986Y-62661301D01*
X54082986Y-62661301D02*
X54178224Y-62708920D01*
X54178224Y-62708920D02*
X54368700Y-62708920D01*
X54368700Y-62708920D02*
X54463938Y-62661301D01*
X54463938Y-62661301D02*
X54511557Y-62613681D01*
X54511557Y-62613681D02*
X54559176Y-62518443D01*
X54559176Y-62518443D02*
X54559176Y-62280348D01*
X54559176Y-62280348D02*
X54511557Y-62185110D01*
X54511557Y-62185110D02*
X54463938Y-62137491D01*
X54463938Y-62137491D02*
X54368700Y-62089872D01*
X54368700Y-62089872D02*
X54178224Y-62089872D01*
X54178224Y-62089872D02*
X54082986Y-62137491D01*
X54082986Y-62137491D02*
X54035367Y-62185110D01*
X54035367Y-62185110D02*
X53987748Y-62280348D01*
X55130605Y-62137491D02*
X55035367Y-62089872D01*
X55035367Y-62089872D02*
X54987748Y-62042253D01*
X54987748Y-62042253D02*
X54940129Y-61947015D01*
X54940129Y-61947015D02*
X54940129Y-61899396D01*
X54940129Y-61899396D02*
X54987748Y-61804158D01*
X54987748Y-61804158D02*
X55035367Y-61756539D01*
X55035367Y-61756539D02*
X55130605Y-61708920D01*
X55130605Y-61708920D02*
X55321081Y-61708920D01*
X55321081Y-61708920D02*
X55416319Y-61756539D01*
X55416319Y-61756539D02*
X55463938Y-61804158D01*
X55463938Y-61804158D02*
X55511557Y-61899396D01*
X55511557Y-61899396D02*
X55511557Y-61947015D01*
X55511557Y-61947015D02*
X55463938Y-62042253D01*
X55463938Y-62042253D02*
X55416319Y-62089872D01*
X55416319Y-62089872D02*
X55321081Y-62137491D01*
X55321081Y-62137491D02*
X55130605Y-62137491D01*
X55130605Y-62137491D02*
X55035367Y-62185110D01*
X55035367Y-62185110D02*
X54987748Y-62232729D01*
X54987748Y-62232729D02*
X54940129Y-62327967D01*
X54940129Y-62327967D02*
X54940129Y-62518443D01*
X54940129Y-62518443D02*
X54987748Y-62613681D01*
X54987748Y-62613681D02*
X55035367Y-62661301D01*
X55035367Y-62661301D02*
X55130605Y-62708920D01*
X55130605Y-62708920D02*
X55321081Y-62708920D01*
X55321081Y-62708920D02*
X55416319Y-62661301D01*
X55416319Y-62661301D02*
X55463938Y-62613681D01*
X55463938Y-62613681D02*
X55511557Y-62518443D01*
X55511557Y-62518443D02*
X55511557Y-62327967D01*
X55511557Y-62327967D02*
X55463938Y-62232729D01*
X55463938Y-62232729D02*
X55416319Y-62185110D01*
X55416319Y-62185110D02*
X55321081Y-62137491D01*
X56463938Y-62708920D02*
X55892510Y-62708920D01*
X56178224Y-62708920D02*
X56178224Y-61708920D01*
X56178224Y-61708920D02*
X56082986Y-61851777D01*
X56082986Y-61851777D02*
X55987748Y-61947015D01*
X55987748Y-61947015D02*
X55892510Y-61994634D01*
X56844891Y-61804158D02*
X56892510Y-61756539D01*
X56892510Y-61756539D02*
X56987748Y-61708920D01*
X56987748Y-61708920D02*
X57225843Y-61708920D01*
X57225843Y-61708920D02*
X57321081Y-61756539D01*
X57321081Y-61756539D02*
X57368700Y-61804158D01*
X57368700Y-61804158D02*
X57416319Y-61899396D01*
X57416319Y-61899396D02*
X57416319Y-61994634D01*
X57416319Y-61994634D02*
X57368700Y-62137491D01*
X57368700Y-62137491D02*
X56797272Y-62708920D01*
X56797272Y-62708920D02*
X57416319Y-62708920D01*
X57844891Y-62708920D02*
X57844891Y-61708920D01*
X57844891Y-61708920D02*
X58178224Y-62423205D01*
X58178224Y-62423205D02*
X58511557Y-61708920D01*
X58511557Y-61708920D02*
X58511557Y-62708920D01*
X58987748Y-62708920D02*
X58987748Y-61708920D01*
X59463938Y-62708920D02*
X59463938Y-61708920D01*
X59463938Y-61708920D02*
X60035366Y-62708920D01*
X60035366Y-62708920D02*
X60035366Y-61708920D01*
X60511557Y-62708920D02*
X60511557Y-61708920D01*
X60987747Y-62327967D02*
X61749652Y-62327967D01*
X62225842Y-62185110D02*
X62559175Y-62185110D01*
X62702032Y-62708920D02*
X62225842Y-62708920D01*
X62225842Y-62708920D02*
X62225842Y-61708920D01*
X62225842Y-61708920D02*
X62702032Y-61708920D01*
X75410367Y-61780001D02*
X75553224Y-61827620D01*
X75553224Y-61827620D02*
X75791319Y-61827620D01*
X75791319Y-61827620D02*
X75886557Y-61780001D01*
X75886557Y-61780001D02*
X75934176Y-61732381D01*
X75934176Y-61732381D02*
X75981795Y-61637143D01*
X75981795Y-61637143D02*
X75981795Y-61541905D01*
X75981795Y-61541905D02*
X75934176Y-61446667D01*
X75934176Y-61446667D02*
X75886557Y-61399048D01*
X75886557Y-61399048D02*
X75791319Y-61351429D01*
X75791319Y-61351429D02*
X75600843Y-61303810D01*
X75600843Y-61303810D02*
X75505605Y-61256191D01*
X75505605Y-61256191D02*
X75457986Y-61208572D01*
X75457986Y-61208572D02*
X75410367Y-61113334D01*
X75410367Y-61113334D02*
X75410367Y-61018096D01*
X75410367Y-61018096D02*
X75457986Y-60922858D01*
X75457986Y-60922858D02*
X75505605Y-60875239D01*
X75505605Y-60875239D02*
X75600843Y-60827620D01*
X75600843Y-60827620D02*
X75838938Y-60827620D01*
X75838938Y-60827620D02*
X75981795Y-60875239D01*
X76410367Y-61827620D02*
X76410367Y-60827620D01*
X76981795Y-61827620D02*
X76553224Y-61256191D01*
X76981795Y-60827620D02*
X76410367Y-61399048D01*
X77838938Y-60827620D02*
X77648462Y-60827620D01*
X77648462Y-60827620D02*
X77553224Y-60875239D01*
X77553224Y-60875239D02*
X77505605Y-60922858D01*
X77505605Y-60922858D02*
X77410367Y-61065715D01*
X77410367Y-61065715D02*
X77362748Y-61256191D01*
X77362748Y-61256191D02*
X77362748Y-61637143D01*
X77362748Y-61637143D02*
X77410367Y-61732381D01*
X77410367Y-61732381D02*
X77457986Y-61780001D01*
X77457986Y-61780001D02*
X77553224Y-61827620D01*
X77553224Y-61827620D02*
X77743700Y-61827620D01*
X77743700Y-61827620D02*
X77838938Y-61780001D01*
X77838938Y-61780001D02*
X77886557Y-61732381D01*
X77886557Y-61732381D02*
X77934176Y-61637143D01*
X77934176Y-61637143D02*
X77934176Y-61399048D01*
X77934176Y-61399048D02*
X77886557Y-61303810D01*
X77886557Y-61303810D02*
X77838938Y-61256191D01*
X77838938Y-61256191D02*
X77743700Y-61208572D01*
X77743700Y-61208572D02*
X77553224Y-61208572D01*
X77553224Y-61208572D02*
X77457986Y-61256191D01*
X77457986Y-61256191D02*
X77410367Y-61303810D01*
X77410367Y-61303810D02*
X77362748Y-61399048D01*
X78505605Y-61256191D02*
X78410367Y-61208572D01*
X78410367Y-61208572D02*
X78362748Y-61160953D01*
X78362748Y-61160953D02*
X78315129Y-61065715D01*
X78315129Y-61065715D02*
X78315129Y-61018096D01*
X78315129Y-61018096D02*
X78362748Y-60922858D01*
X78362748Y-60922858D02*
X78410367Y-60875239D01*
X78410367Y-60875239D02*
X78505605Y-60827620D01*
X78505605Y-60827620D02*
X78696081Y-60827620D01*
X78696081Y-60827620D02*
X78791319Y-60875239D01*
X78791319Y-60875239D02*
X78838938Y-60922858D01*
X78838938Y-60922858D02*
X78886557Y-61018096D01*
X78886557Y-61018096D02*
X78886557Y-61065715D01*
X78886557Y-61065715D02*
X78838938Y-61160953D01*
X78838938Y-61160953D02*
X78791319Y-61208572D01*
X78791319Y-61208572D02*
X78696081Y-61256191D01*
X78696081Y-61256191D02*
X78505605Y-61256191D01*
X78505605Y-61256191D02*
X78410367Y-61303810D01*
X78410367Y-61303810D02*
X78362748Y-61351429D01*
X78362748Y-61351429D02*
X78315129Y-61446667D01*
X78315129Y-61446667D02*
X78315129Y-61637143D01*
X78315129Y-61637143D02*
X78362748Y-61732381D01*
X78362748Y-61732381D02*
X78410367Y-61780001D01*
X78410367Y-61780001D02*
X78505605Y-61827620D01*
X78505605Y-61827620D02*
X78696081Y-61827620D01*
X78696081Y-61827620D02*
X78791319Y-61780001D01*
X78791319Y-61780001D02*
X78838938Y-61732381D01*
X78838938Y-61732381D02*
X78886557Y-61637143D01*
X78886557Y-61637143D02*
X78886557Y-61446667D01*
X78886557Y-61446667D02*
X78838938Y-61351429D01*
X78838938Y-61351429D02*
X78791319Y-61303810D01*
X78791319Y-61303810D02*
X78696081Y-61256191D01*
X79838938Y-61827620D02*
X79267510Y-61827620D01*
X79553224Y-61827620D02*
X79553224Y-60827620D01*
X79553224Y-60827620D02*
X79457986Y-60970477D01*
X79457986Y-60970477D02*
X79362748Y-61065715D01*
X79362748Y-61065715D02*
X79267510Y-61113334D01*
X80219891Y-60922858D02*
X80267510Y-60875239D01*
X80267510Y-60875239D02*
X80362748Y-60827620D01*
X80362748Y-60827620D02*
X80600843Y-60827620D01*
X80600843Y-60827620D02*
X80696081Y-60875239D01*
X80696081Y-60875239D02*
X80743700Y-60922858D01*
X80743700Y-60922858D02*
X80791319Y-61018096D01*
X80791319Y-61018096D02*
X80791319Y-61113334D01*
X80791319Y-61113334D02*
X80743700Y-61256191D01*
X80743700Y-61256191D02*
X80172272Y-61827620D01*
X80172272Y-61827620D02*
X80791319Y-61827620D01*
X81219891Y-61827620D02*
X81219891Y-60827620D01*
X81219891Y-60827620D02*
X81553224Y-61541905D01*
X81553224Y-61541905D02*
X81886557Y-60827620D01*
X81886557Y-60827620D02*
X81886557Y-61827620D01*
X82362748Y-61827620D02*
X82362748Y-60827620D01*
X82838938Y-61827620D02*
X82838938Y-60827620D01*
X82838938Y-60827620D02*
X83410366Y-61827620D01*
X83410366Y-61827620D02*
X83410366Y-60827620D01*
X83886557Y-61827620D02*
X83886557Y-60827620D01*
X84362747Y-61446667D02*
X85124652Y-61446667D01*
X85600842Y-61303810D02*
X85934175Y-61303810D01*
X86077032Y-61827620D02*
X85600842Y-61827620D01*
X85600842Y-61827620D02*
X85600842Y-60827620D01*
X85600842Y-60827620D02*
X86077032Y-60827620D01*
X67621899Y-43214532D02*
X67669518Y-43071675D01*
X67669518Y-43071675D02*
X67669518Y-42833580D01*
X67669518Y-42833580D02*
X67621899Y-42738342D01*
X67621899Y-42738342D02*
X67574279Y-42690723D01*
X67574279Y-42690723D02*
X67479041Y-42643104D01*
X67479041Y-42643104D02*
X67383803Y-42643104D01*
X67383803Y-42643104D02*
X67288565Y-42690723D01*
X67288565Y-42690723D02*
X67240946Y-42738342D01*
X67240946Y-42738342D02*
X67193327Y-42833580D01*
X67193327Y-42833580D02*
X67145708Y-43024056D01*
X67145708Y-43024056D02*
X67098089Y-43119294D01*
X67098089Y-43119294D02*
X67050470Y-43166913D01*
X67050470Y-43166913D02*
X66955232Y-43214532D01*
X66955232Y-43214532D02*
X66859994Y-43214532D01*
X66859994Y-43214532D02*
X66764756Y-43166913D01*
X66764756Y-43166913D02*
X66717137Y-43119294D01*
X66717137Y-43119294D02*
X66669518Y-43024056D01*
X66669518Y-43024056D02*
X66669518Y-42785961D01*
X66669518Y-42785961D02*
X66717137Y-42643104D01*
X67669518Y-42214532D02*
X66669518Y-42214532D01*
X67669518Y-41643104D02*
X67098089Y-42071675D01*
X66669518Y-41643104D02*
X67240946Y-42214532D01*
X66669518Y-40785961D02*
X66669518Y-40976437D01*
X66669518Y-40976437D02*
X66717137Y-41071675D01*
X66717137Y-41071675D02*
X66764756Y-41119294D01*
X66764756Y-41119294D02*
X66907613Y-41214532D01*
X66907613Y-41214532D02*
X67098089Y-41262151D01*
X67098089Y-41262151D02*
X67479041Y-41262151D01*
X67479041Y-41262151D02*
X67574279Y-41214532D01*
X67574279Y-41214532D02*
X67621899Y-41166913D01*
X67621899Y-41166913D02*
X67669518Y-41071675D01*
X67669518Y-41071675D02*
X67669518Y-40881199D01*
X67669518Y-40881199D02*
X67621899Y-40785961D01*
X67621899Y-40785961D02*
X67574279Y-40738342D01*
X67574279Y-40738342D02*
X67479041Y-40690723D01*
X67479041Y-40690723D02*
X67240946Y-40690723D01*
X67240946Y-40690723D02*
X67145708Y-40738342D01*
X67145708Y-40738342D02*
X67098089Y-40785961D01*
X67098089Y-40785961D02*
X67050470Y-40881199D01*
X67050470Y-40881199D02*
X67050470Y-41071675D01*
X67050470Y-41071675D02*
X67098089Y-41166913D01*
X67098089Y-41166913D02*
X67145708Y-41214532D01*
X67145708Y-41214532D02*
X67240946Y-41262151D01*
X67098089Y-40119294D02*
X67050470Y-40214532D01*
X67050470Y-40214532D02*
X67002851Y-40262151D01*
X67002851Y-40262151D02*
X66907613Y-40309770D01*
X66907613Y-40309770D02*
X66859994Y-40309770D01*
X66859994Y-40309770D02*
X66764756Y-40262151D01*
X66764756Y-40262151D02*
X66717137Y-40214532D01*
X66717137Y-40214532D02*
X66669518Y-40119294D01*
X66669518Y-40119294D02*
X66669518Y-39928818D01*
X66669518Y-39928818D02*
X66717137Y-39833580D01*
X66717137Y-39833580D02*
X66764756Y-39785961D01*
X66764756Y-39785961D02*
X66859994Y-39738342D01*
X66859994Y-39738342D02*
X66907613Y-39738342D01*
X66907613Y-39738342D02*
X67002851Y-39785961D01*
X67002851Y-39785961D02*
X67050470Y-39833580D01*
X67050470Y-39833580D02*
X67098089Y-39928818D01*
X67098089Y-39928818D02*
X67098089Y-40119294D01*
X67098089Y-40119294D02*
X67145708Y-40214532D01*
X67145708Y-40214532D02*
X67193327Y-40262151D01*
X67193327Y-40262151D02*
X67288565Y-40309770D01*
X67288565Y-40309770D02*
X67479041Y-40309770D01*
X67479041Y-40309770D02*
X67574279Y-40262151D01*
X67574279Y-40262151D02*
X67621899Y-40214532D01*
X67621899Y-40214532D02*
X67669518Y-40119294D01*
X67669518Y-40119294D02*
X67669518Y-39928818D01*
X67669518Y-39928818D02*
X67621899Y-39833580D01*
X67621899Y-39833580D02*
X67574279Y-39785961D01*
X67574279Y-39785961D02*
X67479041Y-39738342D01*
X67479041Y-39738342D02*
X67288565Y-39738342D01*
X67288565Y-39738342D02*
X67193327Y-39785961D01*
X67193327Y-39785961D02*
X67145708Y-39833580D01*
X67145708Y-39833580D02*
X67098089Y-39928818D01*
X67669518Y-38785961D02*
X67669518Y-39357389D01*
X67669518Y-39071675D02*
X66669518Y-39071675D01*
X66669518Y-39071675D02*
X66812375Y-39166913D01*
X66812375Y-39166913D02*
X66907613Y-39262151D01*
X66907613Y-39262151D02*
X66955232Y-39357389D01*
X66764756Y-38405008D02*
X66717137Y-38357389D01*
X66717137Y-38357389D02*
X66669518Y-38262151D01*
X66669518Y-38262151D02*
X66669518Y-38024056D01*
X66669518Y-38024056D02*
X66717137Y-37928818D01*
X66717137Y-37928818D02*
X66764756Y-37881199D01*
X66764756Y-37881199D02*
X66859994Y-37833580D01*
X66859994Y-37833580D02*
X66955232Y-37833580D01*
X66955232Y-37833580D02*
X67098089Y-37881199D01*
X67098089Y-37881199D02*
X67669518Y-38452627D01*
X67669518Y-38452627D02*
X67669518Y-37833580D01*
X67669518Y-37405008D02*
X66669518Y-37405008D01*
X66669518Y-37405008D02*
X67383803Y-37071675D01*
X67383803Y-37071675D02*
X66669518Y-36738342D01*
X66669518Y-36738342D02*
X67669518Y-36738342D01*
X67669518Y-36262151D02*
X66669518Y-36262151D01*
X67669518Y-35785961D02*
X66669518Y-35785961D01*
X66669518Y-35785961D02*
X67669518Y-35214533D01*
X67669518Y-35214533D02*
X66669518Y-35214533D01*
X67669518Y-34738342D02*
X66669518Y-34738342D01*
X67288565Y-34262152D02*
X67288565Y-33500248D01*
X67145708Y-33024057D02*
X67145708Y-32690724D01*
X67669518Y-32547867D02*
X67669518Y-33024057D01*
X67669518Y-33024057D02*
X66669518Y-33024057D01*
X66669518Y-33024057D02*
X66669518Y-32547867D01*
X33814633Y-63747319D02*
X34005109Y-63747319D01*
X34005109Y-63747319D02*
X34100347Y-63794938D01*
X34100347Y-63794938D02*
X34195585Y-63890176D01*
X34195585Y-63890176D02*
X34243204Y-64080652D01*
X34243204Y-64080652D02*
X34243204Y-64413985D01*
X34243204Y-64413985D02*
X34195585Y-64604461D01*
X34195585Y-64604461D02*
X34100347Y-64699700D01*
X34100347Y-64699700D02*
X34005109Y-64747319D01*
X34005109Y-64747319D02*
X33814633Y-64747319D01*
X33814633Y-64747319D02*
X33719395Y-64699700D01*
X33719395Y-64699700D02*
X33624157Y-64604461D01*
X33624157Y-64604461D02*
X33576538Y-64413985D01*
X33576538Y-64413985D02*
X33576538Y-64080652D01*
X33576538Y-64080652D02*
X33624157Y-63890176D01*
X33624157Y-63890176D02*
X33719395Y-63794938D01*
X33719395Y-63794938D02*
X33814633Y-63747319D01*
X35147966Y-64747319D02*
X34671776Y-64747319D01*
X34671776Y-64747319D02*
X34671776Y-63747319D01*
X35481300Y-64223509D02*
X35814633Y-64223509D01*
X35957490Y-64747319D02*
X35481300Y-64747319D01*
X35481300Y-64747319D02*
X35481300Y-63747319D01*
X35481300Y-63747319D02*
X35957490Y-63747319D01*
X36386062Y-64747319D02*
X36386062Y-63747319D01*
X36386062Y-63747319D02*
X36624157Y-63747319D01*
X36624157Y-63747319D02*
X36767014Y-63794938D01*
X36767014Y-63794938D02*
X36862252Y-63890176D01*
X36862252Y-63890176D02*
X36909871Y-63985414D01*
X36909871Y-63985414D02*
X36957490Y-64175890D01*
X36957490Y-64175890D02*
X36957490Y-64318747D01*
X36957490Y-64318747D02*
X36909871Y-64509223D01*
X36909871Y-64509223D02*
X36862252Y-64604461D01*
X36862252Y-64604461D02*
X36767014Y-64699700D01*
X36767014Y-64699700D02*
X36624157Y-64747319D01*
X36624157Y-64747319D02*
X36386062Y-64747319D01*
X37147967Y-64842557D02*
X37909871Y-64842557D01*
X38338443Y-63747319D02*
X38433681Y-63747319D01*
X38433681Y-63747319D02*
X38528919Y-63794938D01*
X38528919Y-63794938D02*
X38576538Y-63842557D01*
X38576538Y-63842557D02*
X38624157Y-63937795D01*
X38624157Y-63937795D02*
X38671776Y-64128271D01*
X38671776Y-64128271D02*
X38671776Y-64366366D01*
X38671776Y-64366366D02*
X38624157Y-64556842D01*
X38624157Y-64556842D02*
X38576538Y-64652080D01*
X38576538Y-64652080D02*
X38528919Y-64699700D01*
X38528919Y-64699700D02*
X38433681Y-64747319D01*
X38433681Y-64747319D02*
X38338443Y-64747319D01*
X38338443Y-64747319D02*
X38243205Y-64699700D01*
X38243205Y-64699700D02*
X38195586Y-64652080D01*
X38195586Y-64652080D02*
X38147967Y-64556842D01*
X38147967Y-64556842D02*
X38100348Y-64366366D01*
X38100348Y-64366366D02*
X38100348Y-64128271D01*
X38100348Y-64128271D02*
X38147967Y-63937795D01*
X38147967Y-63937795D02*
X38195586Y-63842557D01*
X38195586Y-63842557D02*
X38243205Y-63794938D01*
X38243205Y-63794938D02*
X38338443Y-63747319D01*
X39100348Y-64652080D02*
X39147967Y-64699700D01*
X39147967Y-64699700D02*
X39100348Y-64747319D01*
X39100348Y-64747319D02*
X39052729Y-64699700D01*
X39052729Y-64699700D02*
X39100348Y-64652080D01*
X39100348Y-64652080D02*
X39100348Y-64747319D01*
X39624157Y-64747319D02*
X39814633Y-64747319D01*
X39814633Y-64747319D02*
X39909871Y-64699700D01*
X39909871Y-64699700D02*
X39957490Y-64652080D01*
X39957490Y-64652080D02*
X40052728Y-64509223D01*
X40052728Y-64509223D02*
X40100347Y-64318747D01*
X40100347Y-64318747D02*
X40100347Y-63937795D01*
X40100347Y-63937795D02*
X40052728Y-63842557D01*
X40052728Y-63842557D02*
X40005109Y-63794938D01*
X40005109Y-63794938D02*
X39909871Y-63747319D01*
X39909871Y-63747319D02*
X39719395Y-63747319D01*
X39719395Y-63747319D02*
X39624157Y-63794938D01*
X39624157Y-63794938D02*
X39576538Y-63842557D01*
X39576538Y-63842557D02*
X39528919Y-63937795D01*
X39528919Y-63937795D02*
X39528919Y-64175890D01*
X39528919Y-64175890D02*
X39576538Y-64271128D01*
X39576538Y-64271128D02*
X39624157Y-64318747D01*
X39624157Y-64318747D02*
X39719395Y-64366366D01*
X39719395Y-64366366D02*
X39909871Y-64366366D01*
X39909871Y-64366366D02*
X40005109Y-64318747D01*
X40005109Y-64318747D02*
X40052728Y-64271128D01*
X40052728Y-64271128D02*
X40100347Y-64175890D01*
X41052728Y-64747319D02*
X40481300Y-64747319D01*
X40767014Y-64747319D02*
X40767014Y-63747319D01*
X40767014Y-63747319D02*
X40671776Y-63890176D01*
X40671776Y-63890176D02*
X40576538Y-63985414D01*
X40576538Y-63985414D02*
X40481300Y-64033033D01*
X41243205Y-64842557D02*
X42005109Y-64842557D01*
X42767014Y-64747319D02*
X42195586Y-64747319D01*
X42481300Y-64747319D02*
X42481300Y-63747319D01*
X42481300Y-63747319D02*
X42386062Y-63890176D01*
X42386062Y-63890176D02*
X42290824Y-63985414D01*
X42290824Y-63985414D02*
X42195586Y-64033033D01*
X43147967Y-63842557D02*
X43195586Y-63794938D01*
X43195586Y-63794938D02*
X43290824Y-63747319D01*
X43290824Y-63747319D02*
X43528919Y-63747319D01*
X43528919Y-63747319D02*
X43624157Y-63794938D01*
X43624157Y-63794938D02*
X43671776Y-63842557D01*
X43671776Y-63842557D02*
X43719395Y-63937795D01*
X43719395Y-63937795D02*
X43719395Y-64033033D01*
X43719395Y-64033033D02*
X43671776Y-64175890D01*
X43671776Y-64175890D02*
X43100348Y-64747319D01*
X43100348Y-64747319D02*
X43719395Y-64747319D01*
X44290824Y-64175890D02*
X44195586Y-64128271D01*
X44195586Y-64128271D02*
X44147967Y-64080652D01*
X44147967Y-64080652D02*
X44100348Y-63985414D01*
X44100348Y-63985414D02*
X44100348Y-63937795D01*
X44100348Y-63937795D02*
X44147967Y-63842557D01*
X44147967Y-63842557D02*
X44195586Y-63794938D01*
X44195586Y-63794938D02*
X44290824Y-63747319D01*
X44290824Y-63747319D02*
X44481300Y-63747319D01*
X44481300Y-63747319D02*
X44576538Y-63794938D01*
X44576538Y-63794938D02*
X44624157Y-63842557D01*
X44624157Y-63842557D02*
X44671776Y-63937795D01*
X44671776Y-63937795D02*
X44671776Y-63985414D01*
X44671776Y-63985414D02*
X44624157Y-64080652D01*
X44624157Y-64080652D02*
X44576538Y-64128271D01*
X44576538Y-64128271D02*
X44481300Y-64175890D01*
X44481300Y-64175890D02*
X44290824Y-64175890D01*
X44290824Y-64175890D02*
X44195586Y-64223509D01*
X44195586Y-64223509D02*
X44147967Y-64271128D01*
X44147967Y-64271128D02*
X44100348Y-64366366D01*
X44100348Y-64366366D02*
X44100348Y-64556842D01*
X44100348Y-64556842D02*
X44147967Y-64652080D01*
X44147967Y-64652080D02*
X44195586Y-64699700D01*
X44195586Y-64699700D02*
X44290824Y-64747319D01*
X44290824Y-64747319D02*
X44481300Y-64747319D01*
X44481300Y-64747319D02*
X44576538Y-64699700D01*
X44576538Y-64699700D02*
X44624157Y-64652080D01*
X44624157Y-64652080D02*
X44671776Y-64556842D01*
X44671776Y-64556842D02*
X44671776Y-64366366D01*
X44671776Y-64366366D02*
X44624157Y-64271128D01*
X44624157Y-64271128D02*
X44576538Y-64223509D01*
X44576538Y-64223509D02*
X44481300Y-64175890D01*
X45005110Y-64747319D02*
X45528919Y-64080652D01*
X45005110Y-64080652D02*
X45528919Y-64747319D01*
X45814634Y-63747319D02*
X46433681Y-63747319D01*
X46433681Y-63747319D02*
X46100348Y-64128271D01*
X46100348Y-64128271D02*
X46243205Y-64128271D01*
X46243205Y-64128271D02*
X46338443Y-64175890D01*
X46338443Y-64175890D02*
X46386062Y-64223509D01*
X46386062Y-64223509D02*
X46433681Y-64318747D01*
X46433681Y-64318747D02*
X46433681Y-64556842D01*
X46433681Y-64556842D02*
X46386062Y-64652080D01*
X46386062Y-64652080D02*
X46338443Y-64699700D01*
X46338443Y-64699700D02*
X46243205Y-64747319D01*
X46243205Y-64747319D02*
X45957491Y-64747319D01*
X45957491Y-64747319D02*
X45862253Y-64699700D01*
X45862253Y-64699700D02*
X45814634Y-64652080D01*
X46814634Y-63842557D02*
X46862253Y-63794938D01*
X46862253Y-63794938D02*
X46957491Y-63747319D01*
X46957491Y-63747319D02*
X47195586Y-63747319D01*
X47195586Y-63747319D02*
X47290824Y-63794938D01*
X47290824Y-63794938D02*
X47338443Y-63842557D01*
X47338443Y-63842557D02*
X47386062Y-63937795D01*
X47386062Y-63937795D02*
X47386062Y-64033033D01*
X47386062Y-64033033D02*
X47338443Y-64175890D01*
X47338443Y-64175890D02*
X46767015Y-64747319D01*
X46767015Y-64747319D02*
X47386062Y-64747319D01*
X32792369Y-58864404D02*
X33601892Y-58864404D01*
X33601892Y-58864404D02*
X33697130Y-58816785D01*
X33697130Y-58816785D02*
X33744750Y-58769166D01*
X33744750Y-58769166D02*
X33792369Y-58673928D01*
X33792369Y-58673928D02*
X33792369Y-58483452D01*
X33792369Y-58483452D02*
X33744750Y-58388214D01*
X33744750Y-58388214D02*
X33697130Y-58340595D01*
X33697130Y-58340595D02*
X33601892Y-58292976D01*
X33601892Y-58292976D02*
X32792369Y-58292976D01*
X32887607Y-57864404D02*
X32839988Y-57816785D01*
X32839988Y-57816785D02*
X32792369Y-57721547D01*
X32792369Y-57721547D02*
X32792369Y-57483452D01*
X32792369Y-57483452D02*
X32839988Y-57388214D01*
X32839988Y-57388214D02*
X32887607Y-57340595D01*
X32887607Y-57340595D02*
X32982845Y-57292976D01*
X32982845Y-57292976D02*
X33078083Y-57292976D01*
X33078083Y-57292976D02*
X33220940Y-57340595D01*
X33220940Y-57340595D02*
X33792369Y-57912023D01*
X33792369Y-57912023D02*
X33792369Y-57292976D01*
D11*
X77066666Y-50185730D02*
X77042857Y-50209540D01*
X77042857Y-50209540D02*
X76971428Y-50233349D01*
X76971428Y-50233349D02*
X76923809Y-50233349D01*
X76923809Y-50233349D02*
X76852381Y-50209540D01*
X76852381Y-50209540D02*
X76804762Y-50161920D01*
X76804762Y-50161920D02*
X76780952Y-50114301D01*
X76780952Y-50114301D02*
X76757143Y-50019063D01*
X76757143Y-50019063D02*
X76757143Y-49947635D01*
X76757143Y-49947635D02*
X76780952Y-49852397D01*
X76780952Y-49852397D02*
X76804762Y-49804778D01*
X76804762Y-49804778D02*
X76852381Y-49757159D01*
X76852381Y-49757159D02*
X76923809Y-49733349D01*
X76923809Y-49733349D02*
X76971428Y-49733349D01*
X76971428Y-49733349D02*
X77042857Y-49757159D01*
X77042857Y-49757159D02*
X77066666Y-49780968D01*
X77233333Y-49733349D02*
X77566666Y-49733349D01*
X77566666Y-49733349D02*
X77352381Y-50233349D01*
X77066666Y-44165730D02*
X77042857Y-44189540D01*
X77042857Y-44189540D02*
X76971428Y-44213349D01*
X76971428Y-44213349D02*
X76923809Y-44213349D01*
X76923809Y-44213349D02*
X76852381Y-44189540D01*
X76852381Y-44189540D02*
X76804762Y-44141920D01*
X76804762Y-44141920D02*
X76780952Y-44094301D01*
X76780952Y-44094301D02*
X76757143Y-43999063D01*
X76757143Y-43999063D02*
X76757143Y-43927635D01*
X76757143Y-43927635D02*
X76780952Y-43832397D01*
X76780952Y-43832397D02*
X76804762Y-43784778D01*
X76804762Y-43784778D02*
X76852381Y-43737159D01*
X76852381Y-43737159D02*
X76923809Y-43713349D01*
X76923809Y-43713349D02*
X76971428Y-43713349D01*
X76971428Y-43713349D02*
X77042857Y-43737159D01*
X77042857Y-43737159D02*
X77066666Y-43760968D01*
X77519047Y-43713349D02*
X77280952Y-43713349D01*
X77280952Y-43713349D02*
X77257143Y-43951444D01*
X77257143Y-43951444D02*
X77280952Y-43927635D01*
X77280952Y-43927635D02*
X77328571Y-43903825D01*
X77328571Y-43903825D02*
X77447619Y-43903825D01*
X77447619Y-43903825D02*
X77495238Y-43927635D01*
X77495238Y-43927635D02*
X77519047Y-43951444D01*
X77519047Y-43951444D02*
X77542857Y-43999063D01*
X77542857Y-43999063D02*
X77542857Y-44118111D01*
X77542857Y-44118111D02*
X77519047Y-44165730D01*
X77519047Y-44165730D02*
X77495238Y-44189540D01*
X77495238Y-44189540D02*
X77447619Y-44213349D01*
X77447619Y-44213349D02*
X77328571Y-44213349D01*
X77328571Y-44213349D02*
X77280952Y-44189540D01*
X77280952Y-44189540D02*
X77257143Y-44165730D01*
X77066666Y-47175730D02*
X77042857Y-47199540D01*
X77042857Y-47199540D02*
X76971428Y-47223349D01*
X76971428Y-47223349D02*
X76923809Y-47223349D01*
X76923809Y-47223349D02*
X76852381Y-47199540D01*
X76852381Y-47199540D02*
X76804762Y-47151920D01*
X76804762Y-47151920D02*
X76780952Y-47104301D01*
X76780952Y-47104301D02*
X76757143Y-47009063D01*
X76757143Y-47009063D02*
X76757143Y-46937635D01*
X76757143Y-46937635D02*
X76780952Y-46842397D01*
X76780952Y-46842397D02*
X76804762Y-46794778D01*
X76804762Y-46794778D02*
X76852381Y-46747159D01*
X76852381Y-46747159D02*
X76923809Y-46723349D01*
X76923809Y-46723349D02*
X76971428Y-46723349D01*
X76971428Y-46723349D02*
X77042857Y-46747159D01*
X77042857Y-46747159D02*
X77066666Y-46770968D01*
X77495238Y-46723349D02*
X77400000Y-46723349D01*
X77400000Y-46723349D02*
X77352381Y-46747159D01*
X77352381Y-46747159D02*
X77328571Y-46770968D01*
X77328571Y-46770968D02*
X77280952Y-46842397D01*
X77280952Y-46842397D02*
X77257143Y-46937635D01*
X77257143Y-46937635D02*
X77257143Y-47128111D01*
X77257143Y-47128111D02*
X77280952Y-47175730D01*
X77280952Y-47175730D02*
X77304762Y-47199540D01*
X77304762Y-47199540D02*
X77352381Y-47223349D01*
X77352381Y-47223349D02*
X77447619Y-47223349D01*
X77447619Y-47223349D02*
X77495238Y-47199540D01*
X77495238Y-47199540D02*
X77519047Y-47175730D01*
X77519047Y-47175730D02*
X77542857Y-47128111D01*
X77542857Y-47128111D02*
X77542857Y-47009063D01*
X77542857Y-47009063D02*
X77519047Y-46961444D01*
X77519047Y-46961444D02*
X77495238Y-46937635D01*
X77495238Y-46937635D02*
X77447619Y-46913825D01*
X77447619Y-46913825D02*
X77352381Y-46913825D01*
X77352381Y-46913825D02*
X77304762Y-46937635D01*
X77304762Y-46937635D02*
X77280952Y-46961444D01*
X77280952Y-46961444D02*
X77257143Y-47009063D01*
X81278571Y-50185730D02*
X81254762Y-50209540D01*
X81254762Y-50209540D02*
X81183333Y-50233349D01*
X81183333Y-50233349D02*
X81135714Y-50233349D01*
X81135714Y-50233349D02*
X81064286Y-50209540D01*
X81064286Y-50209540D02*
X81016667Y-50161920D01*
X81016667Y-50161920D02*
X80992857Y-50114301D01*
X80992857Y-50114301D02*
X80969048Y-50019063D01*
X80969048Y-50019063D02*
X80969048Y-49947635D01*
X80969048Y-49947635D02*
X80992857Y-49852397D01*
X80992857Y-49852397D02*
X81016667Y-49804778D01*
X81016667Y-49804778D02*
X81064286Y-49757159D01*
X81064286Y-49757159D02*
X81135714Y-49733349D01*
X81135714Y-49733349D02*
X81183333Y-49733349D01*
X81183333Y-49733349D02*
X81254762Y-49757159D01*
X81254762Y-49757159D02*
X81278571Y-49780968D01*
X81754762Y-50233349D02*
X81469048Y-50233349D01*
X81611905Y-50233349D02*
X81611905Y-49733349D01*
X81611905Y-49733349D02*
X81564286Y-49804778D01*
X81564286Y-49804778D02*
X81516667Y-49852397D01*
X81516667Y-49852397D02*
X81469048Y-49876206D01*
X82230952Y-50233349D02*
X81945238Y-50233349D01*
X82088095Y-50233349D02*
X82088095Y-49733349D01*
X82088095Y-49733349D02*
X82040476Y-49804778D01*
X82040476Y-49804778D02*
X81992857Y-49852397D01*
X81992857Y-49852397D02*
X81945238Y-49876206D01*
D10*
X69116665Y-84554819D02*
X68783332Y-84078628D01*
X68545237Y-84554819D02*
X68545237Y-83554819D01*
X68545237Y-83554819D02*
X68926189Y-83554819D01*
X68926189Y-83554819D02*
X69021427Y-83602438D01*
X69021427Y-83602438D02*
X69069046Y-83650057D01*
X69069046Y-83650057D02*
X69116665Y-83745295D01*
X69116665Y-83745295D02*
X69116665Y-83888152D01*
X69116665Y-83888152D02*
X69069046Y-83983390D01*
X69069046Y-83983390D02*
X69021427Y-84031009D01*
X69021427Y-84031009D02*
X68926189Y-84078628D01*
X68926189Y-84078628D02*
X68545237Y-84078628D01*
X69688094Y-84554819D02*
X69592856Y-84507200D01*
X69592856Y-84507200D02*
X69545237Y-84459580D01*
X69545237Y-84459580D02*
X69497618Y-84364342D01*
X69497618Y-84364342D02*
X69497618Y-84078628D01*
X69497618Y-84078628D02*
X69545237Y-83983390D01*
X69545237Y-83983390D02*
X69592856Y-83935771D01*
X69592856Y-83935771D02*
X69688094Y-83888152D01*
X69688094Y-83888152D02*
X69830951Y-83888152D01*
X69830951Y-83888152D02*
X69926189Y-83935771D01*
X69926189Y-83935771D02*
X69973808Y-83983390D01*
X69973808Y-83983390D02*
X70021427Y-84078628D01*
X70021427Y-84078628D02*
X70021427Y-84364342D01*
X70021427Y-84364342D02*
X69973808Y-84459580D01*
X69973808Y-84459580D02*
X69926189Y-84507200D01*
X69926189Y-84507200D02*
X69830951Y-84554819D01*
X69830951Y-84554819D02*
X69688094Y-84554819D01*
X70307142Y-83888152D02*
X70688094Y-83888152D01*
X70449999Y-83554819D02*
X70449999Y-84411961D01*
X70449999Y-84411961D02*
X70497618Y-84507200D01*
X70497618Y-84507200D02*
X70592856Y-84554819D01*
X70592856Y-84554819D02*
X70688094Y-84554819D01*
X71449999Y-84554819D02*
X71449999Y-84031009D01*
X71449999Y-84031009D02*
X71402380Y-83935771D01*
X71402380Y-83935771D02*
X71307142Y-83888152D01*
X71307142Y-83888152D02*
X71116666Y-83888152D01*
X71116666Y-83888152D02*
X71021428Y-83935771D01*
X71449999Y-84507200D02*
X71354761Y-84554819D01*
X71354761Y-84554819D02*
X71116666Y-84554819D01*
X71116666Y-84554819D02*
X71021428Y-84507200D01*
X71021428Y-84507200D02*
X70973809Y-84411961D01*
X70973809Y-84411961D02*
X70973809Y-84316723D01*
X70973809Y-84316723D02*
X71021428Y-84221485D01*
X71021428Y-84221485D02*
X71116666Y-84173866D01*
X71116666Y-84173866D02*
X71354761Y-84173866D01*
X71354761Y-84173866D02*
X71449999Y-84126247D01*
X71926190Y-84554819D02*
X71926190Y-83888152D01*
X71926190Y-84078628D02*
X71973809Y-83983390D01*
X71973809Y-83983390D02*
X72021428Y-83935771D01*
X72021428Y-83935771D02*
X72116666Y-83888152D01*
X72116666Y-83888152D02*
X72211904Y-83888152D01*
X72450000Y-83888152D02*
X72688095Y-84554819D01*
X72926190Y-83888152D02*
X72688095Y-84554819D01*
X72688095Y-84554819D02*
X72592857Y-84792914D01*
X72592857Y-84792914D02*
X72545238Y-84840533D01*
X72545238Y-84840533D02*
X72450000Y-84888152D01*
X73307143Y-84031009D02*
X73640476Y-84031009D01*
X73783333Y-84554819D02*
X73307143Y-84554819D01*
X73307143Y-84554819D02*
X73307143Y-83554819D01*
X73307143Y-83554819D02*
X73783333Y-83554819D01*
X74211905Y-83888152D02*
X74211905Y-84554819D01*
X74211905Y-83983390D02*
X74259524Y-83935771D01*
X74259524Y-83935771D02*
X74354762Y-83888152D01*
X74354762Y-83888152D02*
X74497619Y-83888152D01*
X74497619Y-83888152D02*
X74592857Y-83935771D01*
X74592857Y-83935771D02*
X74640476Y-84031009D01*
X74640476Y-84031009D02*
X74640476Y-84554819D01*
X75545238Y-84507200D02*
X75450000Y-84554819D01*
X75450000Y-84554819D02*
X75259524Y-84554819D01*
X75259524Y-84554819D02*
X75164286Y-84507200D01*
X75164286Y-84507200D02*
X75116667Y-84459580D01*
X75116667Y-84459580D02*
X75069048Y-84364342D01*
X75069048Y-84364342D02*
X75069048Y-84078628D01*
X75069048Y-84078628D02*
X75116667Y-83983390D01*
X75116667Y-83983390D02*
X75164286Y-83935771D01*
X75164286Y-83935771D02*
X75259524Y-83888152D01*
X75259524Y-83888152D02*
X75450000Y-83888152D01*
X75450000Y-83888152D02*
X75545238Y-83935771D01*
X76116667Y-84554819D02*
X76021429Y-84507200D01*
X76021429Y-84507200D02*
X75973810Y-84459580D01*
X75973810Y-84459580D02*
X75926191Y-84364342D01*
X75926191Y-84364342D02*
X75926191Y-84078628D01*
X75926191Y-84078628D02*
X75973810Y-83983390D01*
X75973810Y-83983390D02*
X76021429Y-83935771D01*
X76021429Y-83935771D02*
X76116667Y-83888152D01*
X76116667Y-83888152D02*
X76259524Y-83888152D01*
X76259524Y-83888152D02*
X76354762Y-83935771D01*
X76354762Y-83935771D02*
X76402381Y-83983390D01*
X76402381Y-83983390D02*
X76450000Y-84078628D01*
X76450000Y-84078628D02*
X76450000Y-84364342D01*
X76450000Y-84364342D02*
X76402381Y-84459580D01*
X76402381Y-84459580D02*
X76354762Y-84507200D01*
X76354762Y-84507200D02*
X76259524Y-84554819D01*
X76259524Y-84554819D02*
X76116667Y-84554819D01*
X77307143Y-84554819D02*
X77307143Y-83554819D01*
X77307143Y-84507200D02*
X77211905Y-84554819D01*
X77211905Y-84554819D02*
X77021429Y-84554819D01*
X77021429Y-84554819D02*
X76926191Y-84507200D01*
X76926191Y-84507200D02*
X76878572Y-84459580D01*
X76878572Y-84459580D02*
X76830953Y-84364342D01*
X76830953Y-84364342D02*
X76830953Y-84078628D01*
X76830953Y-84078628D02*
X76878572Y-83983390D01*
X76878572Y-83983390D02*
X76926191Y-83935771D01*
X76926191Y-83935771D02*
X77021429Y-83888152D01*
X77021429Y-83888152D02*
X77211905Y-83888152D01*
X77211905Y-83888152D02*
X77307143Y-83935771D01*
X78164286Y-84507200D02*
X78069048Y-84554819D01*
X78069048Y-84554819D02*
X77878572Y-84554819D01*
X77878572Y-84554819D02*
X77783334Y-84507200D01*
X77783334Y-84507200D02*
X77735715Y-84411961D01*
X77735715Y-84411961D02*
X77735715Y-84031009D01*
X77735715Y-84031009D02*
X77783334Y-83935771D01*
X77783334Y-83935771D02*
X77878572Y-83888152D01*
X77878572Y-83888152D02*
X78069048Y-83888152D01*
X78069048Y-83888152D02*
X78164286Y-83935771D01*
X78164286Y-83935771D02*
X78211905Y-84031009D01*
X78211905Y-84031009D02*
X78211905Y-84126247D01*
X78211905Y-84126247D02*
X77735715Y-84221485D01*
X78640477Y-84554819D02*
X78640477Y-83888152D01*
X78640477Y-84078628D02*
X78688096Y-83983390D01*
X78688096Y-83983390D02*
X78735715Y-83935771D01*
X78735715Y-83935771D02*
X78830953Y-83888152D01*
X78830953Y-83888152D02*
X78926191Y-83888152D01*
X79021430Y-84650057D02*
X79783334Y-84650057D01*
X79973811Y-84507200D02*
X80116668Y-84554819D01*
X80116668Y-84554819D02*
X80354763Y-84554819D01*
X80354763Y-84554819D02*
X80450001Y-84507200D01*
X80450001Y-84507200D02*
X80497620Y-84459580D01*
X80497620Y-84459580D02*
X80545239Y-84364342D01*
X80545239Y-84364342D02*
X80545239Y-84269104D01*
X80545239Y-84269104D02*
X80497620Y-84173866D01*
X80497620Y-84173866D02*
X80450001Y-84126247D01*
X80450001Y-84126247D02*
X80354763Y-84078628D01*
X80354763Y-84078628D02*
X80164287Y-84031009D01*
X80164287Y-84031009D02*
X80069049Y-83983390D01*
X80069049Y-83983390D02*
X80021430Y-83935771D01*
X80021430Y-83935771D02*
X79973811Y-83840533D01*
X79973811Y-83840533D02*
X79973811Y-83745295D01*
X79973811Y-83745295D02*
X80021430Y-83650057D01*
X80021430Y-83650057D02*
X80069049Y-83602438D01*
X80069049Y-83602438D02*
X80164287Y-83554819D01*
X80164287Y-83554819D02*
X80402382Y-83554819D01*
X80402382Y-83554819D02*
X80545239Y-83602438D01*
X80878573Y-83888152D02*
X81069049Y-84554819D01*
X81069049Y-84554819D02*
X81259525Y-84078628D01*
X81259525Y-84078628D02*
X81450001Y-84554819D01*
X81450001Y-84554819D02*
X81640477Y-83888152D01*
X82021430Y-84554819D02*
X82021430Y-83888152D01*
X82021430Y-83554819D02*
X81973811Y-83602438D01*
X81973811Y-83602438D02*
X82021430Y-83650057D01*
X82021430Y-83650057D02*
X82069049Y-83602438D01*
X82069049Y-83602438D02*
X82021430Y-83554819D01*
X82021430Y-83554819D02*
X82021430Y-83650057D01*
X82354763Y-83888152D02*
X82735715Y-83888152D01*
X82497620Y-83554819D02*
X82497620Y-84411961D01*
X82497620Y-84411961D02*
X82545239Y-84507200D01*
X82545239Y-84507200D02*
X82640477Y-84554819D01*
X82640477Y-84554819D02*
X82735715Y-84554819D01*
X83497620Y-84507200D02*
X83402382Y-84554819D01*
X83402382Y-84554819D02*
X83211906Y-84554819D01*
X83211906Y-84554819D02*
X83116668Y-84507200D01*
X83116668Y-84507200D02*
X83069049Y-84459580D01*
X83069049Y-84459580D02*
X83021430Y-84364342D01*
X83021430Y-84364342D02*
X83021430Y-84078628D01*
X83021430Y-84078628D02*
X83069049Y-83983390D01*
X83069049Y-83983390D02*
X83116668Y-83935771D01*
X83116668Y-83935771D02*
X83211906Y-83888152D01*
X83211906Y-83888152D02*
X83402382Y-83888152D01*
X83402382Y-83888152D02*
X83497620Y-83935771D01*
X83926192Y-84554819D02*
X83926192Y-83554819D01*
X84354763Y-84554819D02*
X84354763Y-84031009D01*
X84354763Y-84031009D02*
X84307144Y-83935771D01*
X84307144Y-83935771D02*
X84211906Y-83888152D01*
X84211906Y-83888152D02*
X84069049Y-83888152D01*
X84069049Y-83888152D02*
X83973811Y-83935771D01*
X83973811Y-83935771D02*
X83926192Y-83983390D01*
X79430952Y-80454819D02*
X79097619Y-79978628D01*
X78859524Y-80454819D02*
X78859524Y-79454819D01*
X78859524Y-79454819D02*
X79240476Y-79454819D01*
X79240476Y-79454819D02*
X79335714Y-79502438D01*
X79335714Y-79502438D02*
X79383333Y-79550057D01*
X79383333Y-79550057D02*
X79430952Y-79645295D01*
X79430952Y-79645295D02*
X79430952Y-79788152D01*
X79430952Y-79788152D02*
X79383333Y-79883390D01*
X79383333Y-79883390D02*
X79335714Y-79931009D01*
X79335714Y-79931009D02*
X79240476Y-79978628D01*
X79240476Y-79978628D02*
X78859524Y-79978628D01*
X79859524Y-79931009D02*
X80192857Y-79931009D01*
X80335714Y-80454819D02*
X79859524Y-80454819D01*
X79859524Y-80454819D02*
X79859524Y-79454819D01*
X79859524Y-79454819D02*
X80335714Y-79454819D01*
X81288095Y-80454819D02*
X80716667Y-80454819D01*
X81002381Y-80454819D02*
X81002381Y-79454819D01*
X81002381Y-79454819D02*
X80907143Y-79597676D01*
X80907143Y-79597676D02*
X80811905Y-79692914D01*
X80811905Y-79692914D02*
X80716667Y-79740533D01*
D11*
X72616666Y-44165730D02*
X72592857Y-44189540D01*
X72592857Y-44189540D02*
X72521428Y-44213349D01*
X72521428Y-44213349D02*
X72473809Y-44213349D01*
X72473809Y-44213349D02*
X72402381Y-44189540D01*
X72402381Y-44189540D02*
X72354762Y-44141920D01*
X72354762Y-44141920D02*
X72330952Y-44094301D01*
X72330952Y-44094301D02*
X72307143Y-43999063D01*
X72307143Y-43999063D02*
X72307143Y-43927635D01*
X72307143Y-43927635D02*
X72330952Y-43832397D01*
X72330952Y-43832397D02*
X72354762Y-43784778D01*
X72354762Y-43784778D02*
X72402381Y-43737159D01*
X72402381Y-43737159D02*
X72473809Y-43713349D01*
X72473809Y-43713349D02*
X72521428Y-43713349D01*
X72521428Y-43713349D02*
X72592857Y-43737159D01*
X72592857Y-43737159D02*
X72616666Y-43760968D01*
X73092857Y-44213349D02*
X72807143Y-44213349D01*
X72950000Y-44213349D02*
X72950000Y-43713349D01*
X72950000Y-43713349D02*
X72902381Y-43784778D01*
X72902381Y-43784778D02*
X72854762Y-43832397D01*
X72854762Y-43832397D02*
X72807143Y-43856206D01*
D10*
X41600595Y-32394352D02*
X41600595Y-33061019D01*
X41362500Y-32013400D02*
X41124405Y-32727685D01*
X41124405Y-32727685D02*
X41743452Y-32727685D01*
X42029167Y-32061019D02*
X42695833Y-32061019D01*
X42695833Y-32061019D02*
X42267262Y-33061019D01*
X43267262Y-32061019D02*
X43362500Y-32061019D01*
X43362500Y-32061019D02*
X43457738Y-32108638D01*
X43457738Y-32108638D02*
X43505357Y-32156257D01*
X43505357Y-32156257D02*
X43552976Y-32251495D01*
X43552976Y-32251495D02*
X43600595Y-32441971D01*
X43600595Y-32441971D02*
X43600595Y-32680066D01*
X43600595Y-32680066D02*
X43552976Y-32870542D01*
X43552976Y-32870542D02*
X43505357Y-32965780D01*
X43505357Y-32965780D02*
X43457738Y-33013400D01*
X43457738Y-33013400D02*
X43362500Y-33061019D01*
X43362500Y-33061019D02*
X43267262Y-33061019D01*
X43267262Y-33061019D02*
X43172024Y-33013400D01*
X43172024Y-33013400D02*
X43124405Y-32965780D01*
X43124405Y-32965780D02*
X43076786Y-32870542D01*
X43076786Y-32870542D02*
X43029167Y-32680066D01*
X43029167Y-32680066D02*
X43029167Y-32441971D01*
X43029167Y-32441971D02*
X43076786Y-32251495D01*
X43076786Y-32251495D02*
X43124405Y-32156257D01*
X43124405Y-32156257D02*
X43172024Y-32108638D01*
X43172024Y-32108638D02*
X43267262Y-32061019D01*
X44600595Y-33061019D02*
X44267262Y-32584828D01*
X44029167Y-33061019D02*
X44029167Y-32061019D01*
X44029167Y-32061019D02*
X44410119Y-32061019D01*
X44410119Y-32061019D02*
X44505357Y-32108638D01*
X44505357Y-32108638D02*
X44552976Y-32156257D01*
X44552976Y-32156257D02*
X44600595Y-32251495D01*
X44600595Y-32251495D02*
X44600595Y-32394352D01*
X44600595Y-32394352D02*
X44552976Y-32489590D01*
X44552976Y-32489590D02*
X44505357Y-32537209D01*
X44505357Y-32537209D02*
X44410119Y-32584828D01*
X44410119Y-32584828D02*
X44029167Y-32584828D01*
D11*
X42779166Y-31183349D02*
X42612500Y-30945254D01*
X42493452Y-31183349D02*
X42493452Y-30683349D01*
X42493452Y-30683349D02*
X42683928Y-30683349D01*
X42683928Y-30683349D02*
X42731547Y-30707159D01*
X42731547Y-30707159D02*
X42755357Y-30730968D01*
X42755357Y-30730968D02*
X42779166Y-30778587D01*
X42779166Y-30778587D02*
X42779166Y-30850016D01*
X42779166Y-30850016D02*
X42755357Y-30897635D01*
X42755357Y-30897635D02*
X42731547Y-30921444D01*
X42731547Y-30921444D02*
X42683928Y-30945254D01*
X42683928Y-30945254D02*
X42493452Y-30945254D01*
X43255357Y-31183349D02*
X42969643Y-31183349D01*
X43112500Y-31183349D02*
X43112500Y-30683349D01*
X43112500Y-30683349D02*
X43064881Y-30754778D01*
X43064881Y-30754778D02*
X43017262Y-30802397D01*
X43017262Y-30802397D02*
X42969643Y-30826206D01*
D10*
X54102381Y-84481200D02*
X54245238Y-84528819D01*
X54245238Y-84528819D02*
X54483333Y-84528819D01*
X54483333Y-84528819D02*
X54578571Y-84481200D01*
X54578571Y-84481200D02*
X54626190Y-84433580D01*
X54626190Y-84433580D02*
X54673809Y-84338342D01*
X54673809Y-84338342D02*
X54673809Y-84243104D01*
X54673809Y-84243104D02*
X54626190Y-84147866D01*
X54626190Y-84147866D02*
X54578571Y-84100247D01*
X54578571Y-84100247D02*
X54483333Y-84052628D01*
X54483333Y-84052628D02*
X54292857Y-84005009D01*
X54292857Y-84005009D02*
X54197619Y-83957390D01*
X54197619Y-83957390D02*
X54150000Y-83909771D01*
X54150000Y-83909771D02*
X54102381Y-83814533D01*
X54102381Y-83814533D02*
X54102381Y-83719295D01*
X54102381Y-83719295D02*
X54150000Y-83624057D01*
X54150000Y-83624057D02*
X54197619Y-83576438D01*
X54197619Y-83576438D02*
X54292857Y-83528819D01*
X54292857Y-83528819D02*
X54530952Y-83528819D01*
X54530952Y-83528819D02*
X54673809Y-83576438D01*
X55007143Y-83528819D02*
X55245238Y-84528819D01*
X55245238Y-84528819D02*
X55435714Y-83814533D01*
X55435714Y-83814533D02*
X55626190Y-84528819D01*
X55626190Y-84528819D02*
X55864286Y-83528819D01*
X56007143Y-84624057D02*
X56769047Y-84624057D01*
X57007143Y-84528819D02*
X57007143Y-83528819D01*
X57007143Y-83528819D02*
X57388095Y-83528819D01*
X57388095Y-83528819D02*
X57483333Y-83576438D01*
X57483333Y-83576438D02*
X57530952Y-83624057D01*
X57530952Y-83624057D02*
X57578571Y-83719295D01*
X57578571Y-83719295D02*
X57578571Y-83862152D01*
X57578571Y-83862152D02*
X57530952Y-83957390D01*
X57530952Y-83957390D02*
X57483333Y-84005009D01*
X57483333Y-84005009D02*
X57388095Y-84052628D01*
X57388095Y-84052628D02*
X57007143Y-84052628D01*
X58435714Y-83862152D02*
X58435714Y-84528819D01*
X58007143Y-83862152D02*
X58007143Y-84385961D01*
X58007143Y-84385961D02*
X58054762Y-84481200D01*
X58054762Y-84481200D02*
X58150000Y-84528819D01*
X58150000Y-84528819D02*
X58292857Y-84528819D01*
X58292857Y-84528819D02*
X58388095Y-84481200D01*
X58388095Y-84481200D02*
X58435714Y-84433580D01*
X58864286Y-84481200D02*
X58959524Y-84528819D01*
X58959524Y-84528819D02*
X59150000Y-84528819D01*
X59150000Y-84528819D02*
X59245238Y-84481200D01*
X59245238Y-84481200D02*
X59292857Y-84385961D01*
X59292857Y-84385961D02*
X59292857Y-84338342D01*
X59292857Y-84338342D02*
X59245238Y-84243104D01*
X59245238Y-84243104D02*
X59150000Y-84195485D01*
X59150000Y-84195485D02*
X59007143Y-84195485D01*
X59007143Y-84195485D02*
X58911905Y-84147866D01*
X58911905Y-84147866D02*
X58864286Y-84052628D01*
X58864286Y-84052628D02*
X58864286Y-84005009D01*
X58864286Y-84005009D02*
X58911905Y-83909771D01*
X58911905Y-83909771D02*
X59007143Y-83862152D01*
X59007143Y-83862152D02*
X59150000Y-83862152D01*
X59150000Y-83862152D02*
X59245238Y-83909771D01*
X59721429Y-84528819D02*
X59721429Y-83528819D01*
X60150000Y-84528819D02*
X60150000Y-84005009D01*
X60150000Y-84005009D02*
X60102381Y-83909771D01*
X60102381Y-83909771D02*
X60007143Y-83862152D01*
X60007143Y-83862152D02*
X59864286Y-83862152D01*
X59864286Y-83862152D02*
X59769048Y-83909771D01*
X59769048Y-83909771D02*
X59721429Y-83957390D01*
X55816667Y-68733200D02*
X55959524Y-68780819D01*
X55959524Y-68780819D02*
X56197619Y-68780819D01*
X56197619Y-68780819D02*
X56292857Y-68733200D01*
X56292857Y-68733200D02*
X56340476Y-68685580D01*
X56340476Y-68685580D02*
X56388095Y-68590342D01*
X56388095Y-68590342D02*
X56388095Y-68495104D01*
X56388095Y-68495104D02*
X56340476Y-68399866D01*
X56340476Y-68399866D02*
X56292857Y-68352247D01*
X56292857Y-68352247D02*
X56197619Y-68304628D01*
X56197619Y-68304628D02*
X56007143Y-68257009D01*
X56007143Y-68257009D02*
X55911905Y-68209390D01*
X55911905Y-68209390D02*
X55864286Y-68161771D01*
X55864286Y-68161771D02*
X55816667Y-68066533D01*
X55816667Y-68066533D02*
X55816667Y-67971295D01*
X55816667Y-67971295D02*
X55864286Y-67876057D01*
X55864286Y-67876057D02*
X55911905Y-67828438D01*
X55911905Y-67828438D02*
X56007143Y-67780819D01*
X56007143Y-67780819D02*
X56245238Y-67780819D01*
X56245238Y-67780819D02*
X56388095Y-67828438D01*
X56721429Y-67780819D02*
X56959524Y-68780819D01*
X56959524Y-68780819D02*
X57150000Y-68066533D01*
X57150000Y-68066533D02*
X57340476Y-68780819D01*
X57340476Y-68780819D02*
X57578572Y-67780819D01*
X57911905Y-67876057D02*
X57959524Y-67828438D01*
X57959524Y-67828438D02*
X58054762Y-67780819D01*
X58054762Y-67780819D02*
X58292857Y-67780819D01*
X58292857Y-67780819D02*
X58388095Y-67828438D01*
X58388095Y-67828438D02*
X58435714Y-67876057D01*
X58435714Y-67876057D02*
X58483333Y-67971295D01*
X58483333Y-67971295D02*
X58483333Y-68066533D01*
X58483333Y-68066533D02*
X58435714Y-68209390D01*
X58435714Y-68209390D02*
X57864286Y-68780819D01*
X57864286Y-68780819D02*
X58483333Y-68780819D01*
X35052381Y-103531200D02*
X35195238Y-103578819D01*
X35195238Y-103578819D02*
X35433333Y-103578819D01*
X35433333Y-103578819D02*
X35528571Y-103531200D01*
X35528571Y-103531200D02*
X35576190Y-103483580D01*
X35576190Y-103483580D02*
X35623809Y-103388342D01*
X35623809Y-103388342D02*
X35623809Y-103293104D01*
X35623809Y-103293104D02*
X35576190Y-103197866D01*
X35576190Y-103197866D02*
X35528571Y-103150247D01*
X35528571Y-103150247D02*
X35433333Y-103102628D01*
X35433333Y-103102628D02*
X35242857Y-103055009D01*
X35242857Y-103055009D02*
X35147619Y-103007390D01*
X35147619Y-103007390D02*
X35100000Y-102959771D01*
X35100000Y-102959771D02*
X35052381Y-102864533D01*
X35052381Y-102864533D02*
X35052381Y-102769295D01*
X35052381Y-102769295D02*
X35100000Y-102674057D01*
X35100000Y-102674057D02*
X35147619Y-102626438D01*
X35147619Y-102626438D02*
X35242857Y-102578819D01*
X35242857Y-102578819D02*
X35480952Y-102578819D01*
X35480952Y-102578819D02*
X35623809Y-102626438D01*
X35957143Y-102578819D02*
X36195238Y-103578819D01*
X36195238Y-103578819D02*
X36385714Y-102864533D01*
X36385714Y-102864533D02*
X36576190Y-103578819D01*
X36576190Y-103578819D02*
X36814286Y-102578819D01*
X36957143Y-103674057D02*
X37719047Y-103674057D01*
X37957143Y-103578819D02*
X37957143Y-102578819D01*
X37957143Y-102578819D02*
X38338095Y-102578819D01*
X38338095Y-102578819D02*
X38433333Y-102626438D01*
X38433333Y-102626438D02*
X38480952Y-102674057D01*
X38480952Y-102674057D02*
X38528571Y-102769295D01*
X38528571Y-102769295D02*
X38528571Y-102912152D01*
X38528571Y-102912152D02*
X38480952Y-103007390D01*
X38480952Y-103007390D02*
X38433333Y-103055009D01*
X38433333Y-103055009D02*
X38338095Y-103102628D01*
X38338095Y-103102628D02*
X37957143Y-103102628D01*
X39385714Y-102912152D02*
X39385714Y-103578819D01*
X38957143Y-102912152D02*
X38957143Y-103435961D01*
X38957143Y-103435961D02*
X39004762Y-103531200D01*
X39004762Y-103531200D02*
X39100000Y-103578819D01*
X39100000Y-103578819D02*
X39242857Y-103578819D01*
X39242857Y-103578819D02*
X39338095Y-103531200D01*
X39338095Y-103531200D02*
X39385714Y-103483580D01*
X39814286Y-103531200D02*
X39909524Y-103578819D01*
X39909524Y-103578819D02*
X40100000Y-103578819D01*
X40100000Y-103578819D02*
X40195238Y-103531200D01*
X40195238Y-103531200D02*
X40242857Y-103435961D01*
X40242857Y-103435961D02*
X40242857Y-103388342D01*
X40242857Y-103388342D02*
X40195238Y-103293104D01*
X40195238Y-103293104D02*
X40100000Y-103245485D01*
X40100000Y-103245485D02*
X39957143Y-103245485D01*
X39957143Y-103245485D02*
X39861905Y-103197866D01*
X39861905Y-103197866D02*
X39814286Y-103102628D01*
X39814286Y-103102628D02*
X39814286Y-103055009D01*
X39814286Y-103055009D02*
X39861905Y-102959771D01*
X39861905Y-102959771D02*
X39957143Y-102912152D01*
X39957143Y-102912152D02*
X40100000Y-102912152D01*
X40100000Y-102912152D02*
X40195238Y-102959771D01*
X40671429Y-103578819D02*
X40671429Y-102578819D01*
X41100000Y-103578819D02*
X41100000Y-103055009D01*
X41100000Y-103055009D02*
X41052381Y-102959771D01*
X41052381Y-102959771D02*
X40957143Y-102912152D01*
X40957143Y-102912152D02*
X40814286Y-102912152D01*
X40814286Y-102912152D02*
X40719048Y-102959771D01*
X40719048Y-102959771D02*
X40671429Y-103007390D01*
X36766667Y-87783200D02*
X36909524Y-87830819D01*
X36909524Y-87830819D02*
X37147619Y-87830819D01*
X37147619Y-87830819D02*
X37242857Y-87783200D01*
X37242857Y-87783200D02*
X37290476Y-87735580D01*
X37290476Y-87735580D02*
X37338095Y-87640342D01*
X37338095Y-87640342D02*
X37338095Y-87545104D01*
X37338095Y-87545104D02*
X37290476Y-87449866D01*
X37290476Y-87449866D02*
X37242857Y-87402247D01*
X37242857Y-87402247D02*
X37147619Y-87354628D01*
X37147619Y-87354628D02*
X36957143Y-87307009D01*
X36957143Y-87307009D02*
X36861905Y-87259390D01*
X36861905Y-87259390D02*
X36814286Y-87211771D01*
X36814286Y-87211771D02*
X36766667Y-87116533D01*
X36766667Y-87116533D02*
X36766667Y-87021295D01*
X36766667Y-87021295D02*
X36814286Y-86926057D01*
X36814286Y-86926057D02*
X36861905Y-86878438D01*
X36861905Y-86878438D02*
X36957143Y-86830819D01*
X36957143Y-86830819D02*
X37195238Y-86830819D01*
X37195238Y-86830819D02*
X37338095Y-86878438D01*
X37671429Y-86830819D02*
X37909524Y-87830819D01*
X37909524Y-87830819D02*
X38100000Y-87116533D01*
X38100000Y-87116533D02*
X38290476Y-87830819D01*
X38290476Y-87830819D02*
X38528572Y-86830819D01*
X38814286Y-86830819D02*
X39433333Y-86830819D01*
X39433333Y-86830819D02*
X39100000Y-87211771D01*
X39100000Y-87211771D02*
X39242857Y-87211771D01*
X39242857Y-87211771D02*
X39338095Y-87259390D01*
X39338095Y-87259390D02*
X39385714Y-87307009D01*
X39385714Y-87307009D02*
X39433333Y-87402247D01*
X39433333Y-87402247D02*
X39433333Y-87640342D01*
X39433333Y-87640342D02*
X39385714Y-87735580D01*
X39385714Y-87735580D02*
X39338095Y-87783200D01*
X39338095Y-87783200D02*
X39242857Y-87830819D01*
X39242857Y-87830819D02*
X38957143Y-87830819D01*
X38957143Y-87830819D02*
X38861905Y-87783200D01*
X38861905Y-87783200D02*
X38814286Y-87735580D01*
D11*
X77066666Y-53195730D02*
X77042857Y-53219540D01*
X77042857Y-53219540D02*
X76971428Y-53243349D01*
X76971428Y-53243349D02*
X76923809Y-53243349D01*
X76923809Y-53243349D02*
X76852381Y-53219540D01*
X76852381Y-53219540D02*
X76804762Y-53171920D01*
X76804762Y-53171920D02*
X76780952Y-53124301D01*
X76780952Y-53124301D02*
X76757143Y-53029063D01*
X76757143Y-53029063D02*
X76757143Y-52957635D01*
X76757143Y-52957635D02*
X76780952Y-52862397D01*
X76780952Y-52862397D02*
X76804762Y-52814778D01*
X76804762Y-52814778D02*
X76852381Y-52767159D01*
X76852381Y-52767159D02*
X76923809Y-52743349D01*
X76923809Y-52743349D02*
X76971428Y-52743349D01*
X76971428Y-52743349D02*
X77042857Y-52767159D01*
X77042857Y-52767159D02*
X77066666Y-52790968D01*
X77352381Y-52957635D02*
X77304762Y-52933825D01*
X77304762Y-52933825D02*
X77280952Y-52910016D01*
X77280952Y-52910016D02*
X77257143Y-52862397D01*
X77257143Y-52862397D02*
X77257143Y-52838587D01*
X77257143Y-52838587D02*
X77280952Y-52790968D01*
X77280952Y-52790968D02*
X77304762Y-52767159D01*
X77304762Y-52767159D02*
X77352381Y-52743349D01*
X77352381Y-52743349D02*
X77447619Y-52743349D01*
X77447619Y-52743349D02*
X77495238Y-52767159D01*
X77495238Y-52767159D02*
X77519047Y-52790968D01*
X77519047Y-52790968D02*
X77542857Y-52838587D01*
X77542857Y-52838587D02*
X77542857Y-52862397D01*
X77542857Y-52862397D02*
X77519047Y-52910016D01*
X77519047Y-52910016D02*
X77495238Y-52933825D01*
X77495238Y-52933825D02*
X77447619Y-52957635D01*
X77447619Y-52957635D02*
X77352381Y-52957635D01*
X77352381Y-52957635D02*
X77304762Y-52981444D01*
X77304762Y-52981444D02*
X77280952Y-53005254D01*
X77280952Y-53005254D02*
X77257143Y-53052873D01*
X77257143Y-53052873D02*
X77257143Y-53148111D01*
X77257143Y-53148111D02*
X77280952Y-53195730D01*
X77280952Y-53195730D02*
X77304762Y-53219540D01*
X77304762Y-53219540D02*
X77352381Y-53243349D01*
X77352381Y-53243349D02*
X77447619Y-53243349D01*
X77447619Y-53243349D02*
X77495238Y-53219540D01*
X77495238Y-53219540D02*
X77519047Y-53195730D01*
X77519047Y-53195730D02*
X77542857Y-53148111D01*
X77542857Y-53148111D02*
X77542857Y-53052873D01*
X77542857Y-53052873D02*
X77519047Y-53005254D01*
X77519047Y-53005254D02*
X77495238Y-52981444D01*
X77495238Y-52981444D02*
X77447619Y-52957635D01*
X63349530Y-51758928D02*
X63373340Y-51782737D01*
X63373340Y-51782737D02*
X63397149Y-51854166D01*
X63397149Y-51854166D02*
X63397149Y-51901785D01*
X63397149Y-51901785D02*
X63373340Y-51973213D01*
X63373340Y-51973213D02*
X63325720Y-52020832D01*
X63325720Y-52020832D02*
X63278101Y-52044642D01*
X63278101Y-52044642D02*
X63182863Y-52068451D01*
X63182863Y-52068451D02*
X63111435Y-52068451D01*
X63111435Y-52068451D02*
X63016197Y-52044642D01*
X63016197Y-52044642D02*
X62968578Y-52020832D01*
X62968578Y-52020832D02*
X62920959Y-51973213D01*
X62920959Y-51973213D02*
X62897149Y-51901785D01*
X62897149Y-51901785D02*
X62897149Y-51854166D01*
X62897149Y-51854166D02*
X62920959Y-51782737D01*
X62920959Y-51782737D02*
X62944768Y-51758928D01*
X63397149Y-51282737D02*
X63397149Y-51568451D01*
X63397149Y-51425594D02*
X62897149Y-51425594D01*
X62897149Y-51425594D02*
X62968578Y-51473213D01*
X62968578Y-51473213D02*
X63016197Y-51520832D01*
X63016197Y-51520832D02*
X63040006Y-51568451D01*
X62897149Y-50854166D02*
X62897149Y-50949404D01*
X62897149Y-50949404D02*
X62920959Y-50997023D01*
X62920959Y-50997023D02*
X62944768Y-51020833D01*
X62944768Y-51020833D02*
X63016197Y-51068452D01*
X63016197Y-51068452D02*
X63111435Y-51092261D01*
X63111435Y-51092261D02*
X63301911Y-51092261D01*
X63301911Y-51092261D02*
X63349530Y-51068452D01*
X63349530Y-51068452D02*
X63373340Y-51044642D01*
X63373340Y-51044642D02*
X63397149Y-50997023D01*
X63397149Y-50997023D02*
X63397149Y-50901785D01*
X63397149Y-50901785D02*
X63373340Y-50854166D01*
X63373340Y-50854166D02*
X63349530Y-50830357D01*
X63349530Y-50830357D02*
X63301911Y-50806547D01*
X63301911Y-50806547D02*
X63182863Y-50806547D01*
X63182863Y-50806547D02*
X63135244Y-50830357D01*
X63135244Y-50830357D02*
X63111435Y-50854166D01*
X63111435Y-50854166D02*
X63087625Y-50901785D01*
X63087625Y-50901785D02*
X63087625Y-50997023D01*
X63087625Y-50997023D02*
X63111435Y-51044642D01*
X63111435Y-51044642D02*
X63135244Y-51068452D01*
X63135244Y-51068452D02*
X63182863Y-51092261D01*
X72616666Y-53195730D02*
X72592857Y-53219540D01*
X72592857Y-53219540D02*
X72521428Y-53243349D01*
X72521428Y-53243349D02*
X72473809Y-53243349D01*
X72473809Y-53243349D02*
X72402381Y-53219540D01*
X72402381Y-53219540D02*
X72354762Y-53171920D01*
X72354762Y-53171920D02*
X72330952Y-53124301D01*
X72330952Y-53124301D02*
X72307143Y-53029063D01*
X72307143Y-53029063D02*
X72307143Y-52957635D01*
X72307143Y-52957635D02*
X72330952Y-52862397D01*
X72330952Y-52862397D02*
X72354762Y-52814778D01*
X72354762Y-52814778D02*
X72402381Y-52767159D01*
X72402381Y-52767159D02*
X72473809Y-52743349D01*
X72473809Y-52743349D02*
X72521428Y-52743349D01*
X72521428Y-52743349D02*
X72592857Y-52767159D01*
X72592857Y-52767159D02*
X72616666Y-52790968D01*
X73045238Y-52910016D02*
X73045238Y-53243349D01*
X72926190Y-52719540D02*
X72807143Y-53076682D01*
X72807143Y-53076682D02*
X73116666Y-53076682D01*
X81278571Y-47175730D02*
X81254762Y-47199540D01*
X81254762Y-47199540D02*
X81183333Y-47223349D01*
X81183333Y-47223349D02*
X81135714Y-47223349D01*
X81135714Y-47223349D02*
X81064286Y-47199540D01*
X81064286Y-47199540D02*
X81016667Y-47151920D01*
X81016667Y-47151920D02*
X80992857Y-47104301D01*
X80992857Y-47104301D02*
X80969048Y-47009063D01*
X80969048Y-47009063D02*
X80969048Y-46937635D01*
X80969048Y-46937635D02*
X80992857Y-46842397D01*
X80992857Y-46842397D02*
X81016667Y-46794778D01*
X81016667Y-46794778D02*
X81064286Y-46747159D01*
X81064286Y-46747159D02*
X81135714Y-46723349D01*
X81135714Y-46723349D02*
X81183333Y-46723349D01*
X81183333Y-46723349D02*
X81254762Y-46747159D01*
X81254762Y-46747159D02*
X81278571Y-46770968D01*
X81754762Y-47223349D02*
X81469048Y-47223349D01*
X81611905Y-47223349D02*
X81611905Y-46723349D01*
X81611905Y-46723349D02*
X81564286Y-46794778D01*
X81564286Y-46794778D02*
X81516667Y-46842397D01*
X81516667Y-46842397D02*
X81469048Y-46866206D01*
X82064285Y-46723349D02*
X82111904Y-46723349D01*
X82111904Y-46723349D02*
X82159523Y-46747159D01*
X82159523Y-46747159D02*
X82183333Y-46770968D01*
X82183333Y-46770968D02*
X82207142Y-46818587D01*
X82207142Y-46818587D02*
X82230952Y-46913825D01*
X82230952Y-46913825D02*
X82230952Y-47032873D01*
X82230952Y-47032873D02*
X82207142Y-47128111D01*
X82207142Y-47128111D02*
X82183333Y-47175730D01*
X82183333Y-47175730D02*
X82159523Y-47199540D01*
X82159523Y-47199540D02*
X82111904Y-47223349D01*
X82111904Y-47223349D02*
X82064285Y-47223349D01*
X82064285Y-47223349D02*
X82016666Y-47199540D01*
X82016666Y-47199540D02*
X81992857Y-47175730D01*
X81992857Y-47175730D02*
X81969047Y-47128111D01*
X81969047Y-47128111D02*
X81945238Y-47032873D01*
X81945238Y-47032873D02*
X81945238Y-46913825D01*
X81945238Y-46913825D02*
X81969047Y-46818587D01*
X81969047Y-46818587D02*
X81992857Y-46770968D01*
X81992857Y-46770968D02*
X82016666Y-46747159D01*
X82016666Y-46747159D02*
X82064285Y-46723349D01*
X60339530Y-51758928D02*
X60363340Y-51782737D01*
X60363340Y-51782737D02*
X60387149Y-51854166D01*
X60387149Y-51854166D02*
X60387149Y-51901785D01*
X60387149Y-51901785D02*
X60363340Y-51973213D01*
X60363340Y-51973213D02*
X60315720Y-52020832D01*
X60315720Y-52020832D02*
X60268101Y-52044642D01*
X60268101Y-52044642D02*
X60172863Y-52068451D01*
X60172863Y-52068451D02*
X60101435Y-52068451D01*
X60101435Y-52068451D02*
X60006197Y-52044642D01*
X60006197Y-52044642D02*
X59958578Y-52020832D01*
X59958578Y-52020832D02*
X59910959Y-51973213D01*
X59910959Y-51973213D02*
X59887149Y-51901785D01*
X59887149Y-51901785D02*
X59887149Y-51854166D01*
X59887149Y-51854166D02*
X59910959Y-51782737D01*
X59910959Y-51782737D02*
X59934768Y-51758928D01*
X60387149Y-51282737D02*
X60387149Y-51568451D01*
X60387149Y-51425594D02*
X59887149Y-51425594D01*
X59887149Y-51425594D02*
X59958578Y-51473213D01*
X59958578Y-51473213D02*
X60006197Y-51520832D01*
X60006197Y-51520832D02*
X60030006Y-51568451D01*
X59887149Y-50830357D02*
X59887149Y-51068452D01*
X59887149Y-51068452D02*
X60125244Y-51092261D01*
X60125244Y-51092261D02*
X60101435Y-51068452D01*
X60101435Y-51068452D02*
X60077625Y-51020833D01*
X60077625Y-51020833D02*
X60077625Y-50901785D01*
X60077625Y-50901785D02*
X60101435Y-50854166D01*
X60101435Y-50854166D02*
X60125244Y-50830357D01*
X60125244Y-50830357D02*
X60172863Y-50806547D01*
X60172863Y-50806547D02*
X60291911Y-50806547D01*
X60291911Y-50806547D02*
X60339530Y-50830357D01*
X60339530Y-50830357D02*
X60363340Y-50854166D01*
X60363340Y-50854166D02*
X60387149Y-50901785D01*
X60387149Y-50901785D02*
X60387149Y-51020833D01*
X60387149Y-51020833D02*
X60363340Y-51068452D01*
X60363340Y-51068452D02*
X60339530Y-51092261D01*
D10*
X73152381Y-103531200D02*
X73295238Y-103578819D01*
X73295238Y-103578819D02*
X73533333Y-103578819D01*
X73533333Y-103578819D02*
X73628571Y-103531200D01*
X73628571Y-103531200D02*
X73676190Y-103483580D01*
X73676190Y-103483580D02*
X73723809Y-103388342D01*
X73723809Y-103388342D02*
X73723809Y-103293104D01*
X73723809Y-103293104D02*
X73676190Y-103197866D01*
X73676190Y-103197866D02*
X73628571Y-103150247D01*
X73628571Y-103150247D02*
X73533333Y-103102628D01*
X73533333Y-103102628D02*
X73342857Y-103055009D01*
X73342857Y-103055009D02*
X73247619Y-103007390D01*
X73247619Y-103007390D02*
X73200000Y-102959771D01*
X73200000Y-102959771D02*
X73152381Y-102864533D01*
X73152381Y-102864533D02*
X73152381Y-102769295D01*
X73152381Y-102769295D02*
X73200000Y-102674057D01*
X73200000Y-102674057D02*
X73247619Y-102626438D01*
X73247619Y-102626438D02*
X73342857Y-102578819D01*
X73342857Y-102578819D02*
X73580952Y-102578819D01*
X73580952Y-102578819D02*
X73723809Y-102626438D01*
X74057143Y-102578819D02*
X74295238Y-103578819D01*
X74295238Y-103578819D02*
X74485714Y-102864533D01*
X74485714Y-102864533D02*
X74676190Y-103578819D01*
X74676190Y-103578819D02*
X74914286Y-102578819D01*
X75057143Y-103674057D02*
X75819047Y-103674057D01*
X76057143Y-103578819D02*
X76057143Y-102578819D01*
X76057143Y-102578819D02*
X76438095Y-102578819D01*
X76438095Y-102578819D02*
X76533333Y-102626438D01*
X76533333Y-102626438D02*
X76580952Y-102674057D01*
X76580952Y-102674057D02*
X76628571Y-102769295D01*
X76628571Y-102769295D02*
X76628571Y-102912152D01*
X76628571Y-102912152D02*
X76580952Y-103007390D01*
X76580952Y-103007390D02*
X76533333Y-103055009D01*
X76533333Y-103055009D02*
X76438095Y-103102628D01*
X76438095Y-103102628D02*
X76057143Y-103102628D01*
X77485714Y-102912152D02*
X77485714Y-103578819D01*
X77057143Y-102912152D02*
X77057143Y-103435961D01*
X77057143Y-103435961D02*
X77104762Y-103531200D01*
X77104762Y-103531200D02*
X77200000Y-103578819D01*
X77200000Y-103578819D02*
X77342857Y-103578819D01*
X77342857Y-103578819D02*
X77438095Y-103531200D01*
X77438095Y-103531200D02*
X77485714Y-103483580D01*
X77914286Y-103531200D02*
X78009524Y-103578819D01*
X78009524Y-103578819D02*
X78200000Y-103578819D01*
X78200000Y-103578819D02*
X78295238Y-103531200D01*
X78295238Y-103531200D02*
X78342857Y-103435961D01*
X78342857Y-103435961D02*
X78342857Y-103388342D01*
X78342857Y-103388342D02*
X78295238Y-103293104D01*
X78295238Y-103293104D02*
X78200000Y-103245485D01*
X78200000Y-103245485D02*
X78057143Y-103245485D01*
X78057143Y-103245485D02*
X77961905Y-103197866D01*
X77961905Y-103197866D02*
X77914286Y-103102628D01*
X77914286Y-103102628D02*
X77914286Y-103055009D01*
X77914286Y-103055009D02*
X77961905Y-102959771D01*
X77961905Y-102959771D02*
X78057143Y-102912152D01*
X78057143Y-102912152D02*
X78200000Y-102912152D01*
X78200000Y-102912152D02*
X78295238Y-102959771D01*
X78771429Y-103578819D02*
X78771429Y-102578819D01*
X79200000Y-103578819D02*
X79200000Y-103055009D01*
X79200000Y-103055009D02*
X79152381Y-102959771D01*
X79152381Y-102959771D02*
X79057143Y-102912152D01*
X79057143Y-102912152D02*
X78914286Y-102912152D01*
X78914286Y-102912152D02*
X78819048Y-102959771D01*
X78819048Y-102959771D02*
X78771429Y-103007390D01*
X74866667Y-87783200D02*
X75009524Y-87830819D01*
X75009524Y-87830819D02*
X75247619Y-87830819D01*
X75247619Y-87830819D02*
X75342857Y-87783200D01*
X75342857Y-87783200D02*
X75390476Y-87735580D01*
X75390476Y-87735580D02*
X75438095Y-87640342D01*
X75438095Y-87640342D02*
X75438095Y-87545104D01*
X75438095Y-87545104D02*
X75390476Y-87449866D01*
X75390476Y-87449866D02*
X75342857Y-87402247D01*
X75342857Y-87402247D02*
X75247619Y-87354628D01*
X75247619Y-87354628D02*
X75057143Y-87307009D01*
X75057143Y-87307009D02*
X74961905Y-87259390D01*
X74961905Y-87259390D02*
X74914286Y-87211771D01*
X74914286Y-87211771D02*
X74866667Y-87116533D01*
X74866667Y-87116533D02*
X74866667Y-87021295D01*
X74866667Y-87021295D02*
X74914286Y-86926057D01*
X74914286Y-86926057D02*
X74961905Y-86878438D01*
X74961905Y-86878438D02*
X75057143Y-86830819D01*
X75057143Y-86830819D02*
X75295238Y-86830819D01*
X75295238Y-86830819D02*
X75438095Y-86878438D01*
X75771429Y-86830819D02*
X76009524Y-87830819D01*
X76009524Y-87830819D02*
X76200000Y-87116533D01*
X76200000Y-87116533D02*
X76390476Y-87830819D01*
X76390476Y-87830819D02*
X76628572Y-86830819D01*
X77485714Y-86830819D02*
X77009524Y-86830819D01*
X77009524Y-86830819D02*
X76961905Y-87307009D01*
X76961905Y-87307009D02*
X77009524Y-87259390D01*
X77009524Y-87259390D02*
X77104762Y-87211771D01*
X77104762Y-87211771D02*
X77342857Y-87211771D01*
X77342857Y-87211771D02*
X77438095Y-87259390D01*
X77438095Y-87259390D02*
X77485714Y-87307009D01*
X77485714Y-87307009D02*
X77533333Y-87402247D01*
X77533333Y-87402247D02*
X77533333Y-87640342D01*
X77533333Y-87640342D02*
X77485714Y-87735580D01*
X77485714Y-87735580D02*
X77438095Y-87783200D01*
X77438095Y-87783200D02*
X77342857Y-87830819D01*
X77342857Y-87830819D02*
X77104762Y-87830819D01*
X77104762Y-87830819D02*
X77009524Y-87783200D01*
X77009524Y-87783200D02*
X76961905Y-87735580D01*
X54102381Y-103531200D02*
X54245238Y-103578819D01*
X54245238Y-103578819D02*
X54483333Y-103578819D01*
X54483333Y-103578819D02*
X54578571Y-103531200D01*
X54578571Y-103531200D02*
X54626190Y-103483580D01*
X54626190Y-103483580D02*
X54673809Y-103388342D01*
X54673809Y-103388342D02*
X54673809Y-103293104D01*
X54673809Y-103293104D02*
X54626190Y-103197866D01*
X54626190Y-103197866D02*
X54578571Y-103150247D01*
X54578571Y-103150247D02*
X54483333Y-103102628D01*
X54483333Y-103102628D02*
X54292857Y-103055009D01*
X54292857Y-103055009D02*
X54197619Y-103007390D01*
X54197619Y-103007390D02*
X54150000Y-102959771D01*
X54150000Y-102959771D02*
X54102381Y-102864533D01*
X54102381Y-102864533D02*
X54102381Y-102769295D01*
X54102381Y-102769295D02*
X54150000Y-102674057D01*
X54150000Y-102674057D02*
X54197619Y-102626438D01*
X54197619Y-102626438D02*
X54292857Y-102578819D01*
X54292857Y-102578819D02*
X54530952Y-102578819D01*
X54530952Y-102578819D02*
X54673809Y-102626438D01*
X55007143Y-102578819D02*
X55245238Y-103578819D01*
X55245238Y-103578819D02*
X55435714Y-102864533D01*
X55435714Y-102864533D02*
X55626190Y-103578819D01*
X55626190Y-103578819D02*
X55864286Y-102578819D01*
X56007143Y-103674057D02*
X56769047Y-103674057D01*
X57007143Y-103578819D02*
X57007143Y-102578819D01*
X57007143Y-102578819D02*
X57388095Y-102578819D01*
X57388095Y-102578819D02*
X57483333Y-102626438D01*
X57483333Y-102626438D02*
X57530952Y-102674057D01*
X57530952Y-102674057D02*
X57578571Y-102769295D01*
X57578571Y-102769295D02*
X57578571Y-102912152D01*
X57578571Y-102912152D02*
X57530952Y-103007390D01*
X57530952Y-103007390D02*
X57483333Y-103055009D01*
X57483333Y-103055009D02*
X57388095Y-103102628D01*
X57388095Y-103102628D02*
X57007143Y-103102628D01*
X58435714Y-102912152D02*
X58435714Y-103578819D01*
X58007143Y-102912152D02*
X58007143Y-103435961D01*
X58007143Y-103435961D02*
X58054762Y-103531200D01*
X58054762Y-103531200D02*
X58150000Y-103578819D01*
X58150000Y-103578819D02*
X58292857Y-103578819D01*
X58292857Y-103578819D02*
X58388095Y-103531200D01*
X58388095Y-103531200D02*
X58435714Y-103483580D01*
X58864286Y-103531200D02*
X58959524Y-103578819D01*
X58959524Y-103578819D02*
X59150000Y-103578819D01*
X59150000Y-103578819D02*
X59245238Y-103531200D01*
X59245238Y-103531200D02*
X59292857Y-103435961D01*
X59292857Y-103435961D02*
X59292857Y-103388342D01*
X59292857Y-103388342D02*
X59245238Y-103293104D01*
X59245238Y-103293104D02*
X59150000Y-103245485D01*
X59150000Y-103245485D02*
X59007143Y-103245485D01*
X59007143Y-103245485D02*
X58911905Y-103197866D01*
X58911905Y-103197866D02*
X58864286Y-103102628D01*
X58864286Y-103102628D02*
X58864286Y-103055009D01*
X58864286Y-103055009D02*
X58911905Y-102959771D01*
X58911905Y-102959771D02*
X59007143Y-102912152D01*
X59007143Y-102912152D02*
X59150000Y-102912152D01*
X59150000Y-102912152D02*
X59245238Y-102959771D01*
X59721429Y-103578819D02*
X59721429Y-102578819D01*
X60150000Y-103578819D02*
X60150000Y-103055009D01*
X60150000Y-103055009D02*
X60102381Y-102959771D01*
X60102381Y-102959771D02*
X60007143Y-102912152D01*
X60007143Y-102912152D02*
X59864286Y-102912152D01*
X59864286Y-102912152D02*
X59769048Y-102959771D01*
X59769048Y-102959771D02*
X59721429Y-103007390D01*
X55816667Y-87783200D02*
X55959524Y-87830819D01*
X55959524Y-87830819D02*
X56197619Y-87830819D01*
X56197619Y-87830819D02*
X56292857Y-87783200D01*
X56292857Y-87783200D02*
X56340476Y-87735580D01*
X56340476Y-87735580D02*
X56388095Y-87640342D01*
X56388095Y-87640342D02*
X56388095Y-87545104D01*
X56388095Y-87545104D02*
X56340476Y-87449866D01*
X56340476Y-87449866D02*
X56292857Y-87402247D01*
X56292857Y-87402247D02*
X56197619Y-87354628D01*
X56197619Y-87354628D02*
X56007143Y-87307009D01*
X56007143Y-87307009D02*
X55911905Y-87259390D01*
X55911905Y-87259390D02*
X55864286Y-87211771D01*
X55864286Y-87211771D02*
X55816667Y-87116533D01*
X55816667Y-87116533D02*
X55816667Y-87021295D01*
X55816667Y-87021295D02*
X55864286Y-86926057D01*
X55864286Y-86926057D02*
X55911905Y-86878438D01*
X55911905Y-86878438D02*
X56007143Y-86830819D01*
X56007143Y-86830819D02*
X56245238Y-86830819D01*
X56245238Y-86830819D02*
X56388095Y-86878438D01*
X56721429Y-86830819D02*
X56959524Y-87830819D01*
X56959524Y-87830819D02*
X57150000Y-87116533D01*
X57150000Y-87116533D02*
X57340476Y-87830819D01*
X57340476Y-87830819D02*
X57578572Y-86830819D01*
X58388095Y-87164152D02*
X58388095Y-87830819D01*
X58150000Y-86783200D02*
X57911905Y-87497485D01*
X57911905Y-87497485D02*
X58530952Y-87497485D01*
D11*
X81516666Y-44165730D02*
X81492857Y-44189540D01*
X81492857Y-44189540D02*
X81421428Y-44213349D01*
X81421428Y-44213349D02*
X81373809Y-44213349D01*
X81373809Y-44213349D02*
X81302381Y-44189540D01*
X81302381Y-44189540D02*
X81254762Y-44141920D01*
X81254762Y-44141920D02*
X81230952Y-44094301D01*
X81230952Y-44094301D02*
X81207143Y-43999063D01*
X81207143Y-43999063D02*
X81207143Y-43927635D01*
X81207143Y-43927635D02*
X81230952Y-43832397D01*
X81230952Y-43832397D02*
X81254762Y-43784778D01*
X81254762Y-43784778D02*
X81302381Y-43737159D01*
X81302381Y-43737159D02*
X81373809Y-43713349D01*
X81373809Y-43713349D02*
X81421428Y-43713349D01*
X81421428Y-43713349D02*
X81492857Y-43737159D01*
X81492857Y-43737159D02*
X81516666Y-43760968D01*
X81754762Y-44213349D02*
X81850000Y-44213349D01*
X81850000Y-44213349D02*
X81897619Y-44189540D01*
X81897619Y-44189540D02*
X81921428Y-44165730D01*
X81921428Y-44165730D02*
X81969047Y-44094301D01*
X81969047Y-44094301D02*
X81992857Y-43999063D01*
X81992857Y-43999063D02*
X81992857Y-43808587D01*
X81992857Y-43808587D02*
X81969047Y-43760968D01*
X81969047Y-43760968D02*
X81945238Y-43737159D01*
X81945238Y-43737159D02*
X81897619Y-43713349D01*
X81897619Y-43713349D02*
X81802381Y-43713349D01*
X81802381Y-43713349D02*
X81754762Y-43737159D01*
X81754762Y-43737159D02*
X81730952Y-43760968D01*
X81730952Y-43760968D02*
X81707143Y-43808587D01*
X81707143Y-43808587D02*
X81707143Y-43927635D01*
X81707143Y-43927635D02*
X81730952Y-43975254D01*
X81730952Y-43975254D02*
X81754762Y-43999063D01*
X81754762Y-43999063D02*
X81802381Y-44022873D01*
X81802381Y-44022873D02*
X81897619Y-44022873D01*
X81897619Y-44022873D02*
X81945238Y-43999063D01*
X81945238Y-43999063D02*
X81969047Y-43975254D01*
X81969047Y-43975254D02*
X81992857Y-43927635D01*
X72616666Y-50185730D02*
X72592857Y-50209540D01*
X72592857Y-50209540D02*
X72521428Y-50233349D01*
X72521428Y-50233349D02*
X72473809Y-50233349D01*
X72473809Y-50233349D02*
X72402381Y-50209540D01*
X72402381Y-50209540D02*
X72354762Y-50161920D01*
X72354762Y-50161920D02*
X72330952Y-50114301D01*
X72330952Y-50114301D02*
X72307143Y-50019063D01*
X72307143Y-50019063D02*
X72307143Y-49947635D01*
X72307143Y-49947635D02*
X72330952Y-49852397D01*
X72330952Y-49852397D02*
X72354762Y-49804778D01*
X72354762Y-49804778D02*
X72402381Y-49757159D01*
X72402381Y-49757159D02*
X72473809Y-49733349D01*
X72473809Y-49733349D02*
X72521428Y-49733349D01*
X72521428Y-49733349D02*
X72592857Y-49757159D01*
X72592857Y-49757159D02*
X72616666Y-49780968D01*
X72783333Y-49733349D02*
X73092857Y-49733349D01*
X73092857Y-49733349D02*
X72926190Y-49923825D01*
X72926190Y-49923825D02*
X72997619Y-49923825D01*
X72997619Y-49923825D02*
X73045238Y-49947635D01*
X73045238Y-49947635D02*
X73069047Y-49971444D01*
X73069047Y-49971444D02*
X73092857Y-50019063D01*
X73092857Y-50019063D02*
X73092857Y-50138111D01*
X73092857Y-50138111D02*
X73069047Y-50185730D01*
X73069047Y-50185730D02*
X73045238Y-50209540D01*
X73045238Y-50209540D02*
X72997619Y-50233349D01*
X72997619Y-50233349D02*
X72854762Y-50233349D01*
X72854762Y-50233349D02*
X72807143Y-50209540D01*
X72807143Y-50209540D02*
X72783333Y-50185730D01*
D10*
X35052381Y-84481200D02*
X35195238Y-84528819D01*
X35195238Y-84528819D02*
X35433333Y-84528819D01*
X35433333Y-84528819D02*
X35528571Y-84481200D01*
X35528571Y-84481200D02*
X35576190Y-84433580D01*
X35576190Y-84433580D02*
X35623809Y-84338342D01*
X35623809Y-84338342D02*
X35623809Y-84243104D01*
X35623809Y-84243104D02*
X35576190Y-84147866D01*
X35576190Y-84147866D02*
X35528571Y-84100247D01*
X35528571Y-84100247D02*
X35433333Y-84052628D01*
X35433333Y-84052628D02*
X35242857Y-84005009D01*
X35242857Y-84005009D02*
X35147619Y-83957390D01*
X35147619Y-83957390D02*
X35100000Y-83909771D01*
X35100000Y-83909771D02*
X35052381Y-83814533D01*
X35052381Y-83814533D02*
X35052381Y-83719295D01*
X35052381Y-83719295D02*
X35100000Y-83624057D01*
X35100000Y-83624057D02*
X35147619Y-83576438D01*
X35147619Y-83576438D02*
X35242857Y-83528819D01*
X35242857Y-83528819D02*
X35480952Y-83528819D01*
X35480952Y-83528819D02*
X35623809Y-83576438D01*
X35957143Y-83528819D02*
X36195238Y-84528819D01*
X36195238Y-84528819D02*
X36385714Y-83814533D01*
X36385714Y-83814533D02*
X36576190Y-84528819D01*
X36576190Y-84528819D02*
X36814286Y-83528819D01*
X36957143Y-84624057D02*
X37719047Y-84624057D01*
X37957143Y-84528819D02*
X37957143Y-83528819D01*
X37957143Y-83528819D02*
X38338095Y-83528819D01*
X38338095Y-83528819D02*
X38433333Y-83576438D01*
X38433333Y-83576438D02*
X38480952Y-83624057D01*
X38480952Y-83624057D02*
X38528571Y-83719295D01*
X38528571Y-83719295D02*
X38528571Y-83862152D01*
X38528571Y-83862152D02*
X38480952Y-83957390D01*
X38480952Y-83957390D02*
X38433333Y-84005009D01*
X38433333Y-84005009D02*
X38338095Y-84052628D01*
X38338095Y-84052628D02*
X37957143Y-84052628D01*
X39385714Y-83862152D02*
X39385714Y-84528819D01*
X38957143Y-83862152D02*
X38957143Y-84385961D01*
X38957143Y-84385961D02*
X39004762Y-84481200D01*
X39004762Y-84481200D02*
X39100000Y-84528819D01*
X39100000Y-84528819D02*
X39242857Y-84528819D01*
X39242857Y-84528819D02*
X39338095Y-84481200D01*
X39338095Y-84481200D02*
X39385714Y-84433580D01*
X39814286Y-84481200D02*
X39909524Y-84528819D01*
X39909524Y-84528819D02*
X40100000Y-84528819D01*
X40100000Y-84528819D02*
X40195238Y-84481200D01*
X40195238Y-84481200D02*
X40242857Y-84385961D01*
X40242857Y-84385961D02*
X40242857Y-84338342D01*
X40242857Y-84338342D02*
X40195238Y-84243104D01*
X40195238Y-84243104D02*
X40100000Y-84195485D01*
X40100000Y-84195485D02*
X39957143Y-84195485D01*
X39957143Y-84195485D02*
X39861905Y-84147866D01*
X39861905Y-84147866D02*
X39814286Y-84052628D01*
X39814286Y-84052628D02*
X39814286Y-84005009D01*
X39814286Y-84005009D02*
X39861905Y-83909771D01*
X39861905Y-83909771D02*
X39957143Y-83862152D01*
X39957143Y-83862152D02*
X40100000Y-83862152D01*
X40100000Y-83862152D02*
X40195238Y-83909771D01*
X40671429Y-84528819D02*
X40671429Y-83528819D01*
X41100000Y-84528819D02*
X41100000Y-84005009D01*
X41100000Y-84005009D02*
X41052381Y-83909771D01*
X41052381Y-83909771D02*
X40957143Y-83862152D01*
X40957143Y-83862152D02*
X40814286Y-83862152D01*
X40814286Y-83862152D02*
X40719048Y-83909771D01*
X40719048Y-83909771D02*
X40671429Y-83957390D01*
X36242857Y-68733200D02*
X36385714Y-68780819D01*
X36385714Y-68780819D02*
X36623809Y-68780819D01*
X36623809Y-68780819D02*
X36719047Y-68733200D01*
X36719047Y-68733200D02*
X36766666Y-68685580D01*
X36766666Y-68685580D02*
X36814285Y-68590342D01*
X36814285Y-68590342D02*
X36814285Y-68495104D01*
X36814285Y-68495104D02*
X36766666Y-68399866D01*
X36766666Y-68399866D02*
X36719047Y-68352247D01*
X36719047Y-68352247D02*
X36623809Y-68304628D01*
X36623809Y-68304628D02*
X36433333Y-68257009D01*
X36433333Y-68257009D02*
X36338095Y-68209390D01*
X36338095Y-68209390D02*
X36290476Y-68161771D01*
X36290476Y-68161771D02*
X36242857Y-68066533D01*
X36242857Y-68066533D02*
X36242857Y-67971295D01*
X36242857Y-67971295D02*
X36290476Y-67876057D01*
X36290476Y-67876057D02*
X36338095Y-67828438D01*
X36338095Y-67828438D02*
X36433333Y-67780819D01*
X36433333Y-67780819D02*
X36671428Y-67780819D01*
X36671428Y-67780819D02*
X36814285Y-67828438D01*
X37147619Y-67780819D02*
X37385714Y-68780819D01*
X37385714Y-68780819D02*
X37576190Y-68066533D01*
X37576190Y-68066533D02*
X37766666Y-68780819D01*
X37766666Y-68780819D02*
X38004762Y-67780819D01*
X38290476Y-68114152D02*
X38480952Y-68780819D01*
X38480952Y-68780819D02*
X38671428Y-68304628D01*
X38671428Y-68304628D02*
X38861904Y-68780819D01*
X38861904Y-68780819D02*
X39052380Y-68114152D01*
X39957142Y-68780819D02*
X39385714Y-68780819D01*
X39671428Y-68780819D02*
X39671428Y-67780819D01*
X39671428Y-67780819D02*
X39576190Y-67923676D01*
X39576190Y-67923676D02*
X39480952Y-68018914D01*
X39480952Y-68018914D02*
X39385714Y-68066533D01*
D11*
X81278571Y-53195730D02*
X81254762Y-53219540D01*
X81254762Y-53219540D02*
X81183333Y-53243349D01*
X81183333Y-53243349D02*
X81135714Y-53243349D01*
X81135714Y-53243349D02*
X81064286Y-53219540D01*
X81064286Y-53219540D02*
X81016667Y-53171920D01*
X81016667Y-53171920D02*
X80992857Y-53124301D01*
X80992857Y-53124301D02*
X80969048Y-53029063D01*
X80969048Y-53029063D02*
X80969048Y-52957635D01*
X80969048Y-52957635D02*
X80992857Y-52862397D01*
X80992857Y-52862397D02*
X81016667Y-52814778D01*
X81016667Y-52814778D02*
X81064286Y-52767159D01*
X81064286Y-52767159D02*
X81135714Y-52743349D01*
X81135714Y-52743349D02*
X81183333Y-52743349D01*
X81183333Y-52743349D02*
X81254762Y-52767159D01*
X81254762Y-52767159D02*
X81278571Y-52790968D01*
X81754762Y-53243349D02*
X81469048Y-53243349D01*
X81611905Y-53243349D02*
X81611905Y-52743349D01*
X81611905Y-52743349D02*
X81564286Y-52814778D01*
X81564286Y-52814778D02*
X81516667Y-52862397D01*
X81516667Y-52862397D02*
X81469048Y-52886206D01*
X81945238Y-52790968D02*
X81969047Y-52767159D01*
X81969047Y-52767159D02*
X82016666Y-52743349D01*
X82016666Y-52743349D02*
X82135714Y-52743349D01*
X82135714Y-52743349D02*
X82183333Y-52767159D01*
X82183333Y-52767159D02*
X82207142Y-52790968D01*
X82207142Y-52790968D02*
X82230952Y-52838587D01*
X82230952Y-52838587D02*
X82230952Y-52886206D01*
X82230952Y-52886206D02*
X82207142Y-52957635D01*
X82207142Y-52957635D02*
X81921428Y-53243349D01*
X81921428Y-53243349D02*
X82230952Y-53243349D01*
X57329530Y-51758928D02*
X57353340Y-51782737D01*
X57353340Y-51782737D02*
X57377149Y-51854166D01*
X57377149Y-51854166D02*
X57377149Y-51901785D01*
X57377149Y-51901785D02*
X57353340Y-51973213D01*
X57353340Y-51973213D02*
X57305720Y-52020832D01*
X57305720Y-52020832D02*
X57258101Y-52044642D01*
X57258101Y-52044642D02*
X57162863Y-52068451D01*
X57162863Y-52068451D02*
X57091435Y-52068451D01*
X57091435Y-52068451D02*
X56996197Y-52044642D01*
X56996197Y-52044642D02*
X56948578Y-52020832D01*
X56948578Y-52020832D02*
X56900959Y-51973213D01*
X56900959Y-51973213D02*
X56877149Y-51901785D01*
X56877149Y-51901785D02*
X56877149Y-51854166D01*
X56877149Y-51854166D02*
X56900959Y-51782737D01*
X56900959Y-51782737D02*
X56924768Y-51758928D01*
X57377149Y-51282737D02*
X57377149Y-51568451D01*
X57377149Y-51425594D02*
X56877149Y-51425594D01*
X56877149Y-51425594D02*
X56948578Y-51473213D01*
X56948578Y-51473213D02*
X56996197Y-51520832D01*
X56996197Y-51520832D02*
X57020006Y-51568451D01*
X57043816Y-50854166D02*
X57377149Y-50854166D01*
X56853340Y-50973214D02*
X57210482Y-51092261D01*
X57210482Y-51092261D02*
X57210482Y-50782738D01*
X72616666Y-47175730D02*
X72592857Y-47199540D01*
X72592857Y-47199540D02*
X72521428Y-47223349D01*
X72521428Y-47223349D02*
X72473809Y-47223349D01*
X72473809Y-47223349D02*
X72402381Y-47199540D01*
X72402381Y-47199540D02*
X72354762Y-47151920D01*
X72354762Y-47151920D02*
X72330952Y-47104301D01*
X72330952Y-47104301D02*
X72307143Y-47009063D01*
X72307143Y-47009063D02*
X72307143Y-46937635D01*
X72307143Y-46937635D02*
X72330952Y-46842397D01*
X72330952Y-46842397D02*
X72354762Y-46794778D01*
X72354762Y-46794778D02*
X72402381Y-46747159D01*
X72402381Y-46747159D02*
X72473809Y-46723349D01*
X72473809Y-46723349D02*
X72521428Y-46723349D01*
X72521428Y-46723349D02*
X72592857Y-46747159D01*
X72592857Y-46747159D02*
X72616666Y-46770968D01*
X72807143Y-46770968D02*
X72830952Y-46747159D01*
X72830952Y-46747159D02*
X72878571Y-46723349D01*
X72878571Y-46723349D02*
X72997619Y-46723349D01*
X72997619Y-46723349D02*
X73045238Y-46747159D01*
X73045238Y-46747159D02*
X73069047Y-46770968D01*
X73069047Y-46770968D02*
X73092857Y-46818587D01*
X73092857Y-46818587D02*
X73092857Y-46866206D01*
X73092857Y-46866206D02*
X73069047Y-46937635D01*
X73069047Y-46937635D02*
X72783333Y-47223349D01*
X72783333Y-47223349D02*
X73092857Y-47223349D01*
X54319530Y-51758928D02*
X54343340Y-51782737D01*
X54343340Y-51782737D02*
X54367149Y-51854166D01*
X54367149Y-51854166D02*
X54367149Y-51901785D01*
X54367149Y-51901785D02*
X54343340Y-51973213D01*
X54343340Y-51973213D02*
X54295720Y-52020832D01*
X54295720Y-52020832D02*
X54248101Y-52044642D01*
X54248101Y-52044642D02*
X54152863Y-52068451D01*
X54152863Y-52068451D02*
X54081435Y-52068451D01*
X54081435Y-52068451D02*
X53986197Y-52044642D01*
X53986197Y-52044642D02*
X53938578Y-52020832D01*
X53938578Y-52020832D02*
X53890959Y-51973213D01*
X53890959Y-51973213D02*
X53867149Y-51901785D01*
X53867149Y-51901785D02*
X53867149Y-51854166D01*
X53867149Y-51854166D02*
X53890959Y-51782737D01*
X53890959Y-51782737D02*
X53914768Y-51758928D01*
X54367149Y-51282737D02*
X54367149Y-51568451D01*
X54367149Y-51425594D02*
X53867149Y-51425594D01*
X53867149Y-51425594D02*
X53938578Y-51473213D01*
X53938578Y-51473213D02*
X53986197Y-51520832D01*
X53986197Y-51520832D02*
X54010006Y-51568451D01*
X53867149Y-51116071D02*
X53867149Y-50806547D01*
X53867149Y-50806547D02*
X54057625Y-50973214D01*
X54057625Y-50973214D02*
X54057625Y-50901785D01*
X54057625Y-50901785D02*
X54081435Y-50854166D01*
X54081435Y-50854166D02*
X54105244Y-50830357D01*
X54105244Y-50830357D02*
X54152863Y-50806547D01*
X54152863Y-50806547D02*
X54271911Y-50806547D01*
X54271911Y-50806547D02*
X54319530Y-50830357D01*
X54319530Y-50830357D02*
X54343340Y-50854166D01*
X54343340Y-50854166D02*
X54367149Y-50901785D01*
X54367149Y-50901785D02*
X54367149Y-51044642D01*
X54367149Y-51044642D02*
X54343340Y-51092261D01*
X54343340Y-51092261D02*
X54319530Y-51116071D01*
D10*
X28004167Y-60927201D02*
X28147024Y-60974820D01*
X28147024Y-60974820D02*
X28385119Y-60974820D01*
X28385119Y-60974820D02*
X28480357Y-60927201D01*
X28480357Y-60927201D02*
X28527976Y-60879581D01*
X28527976Y-60879581D02*
X28575595Y-60784343D01*
X28575595Y-60784343D02*
X28575595Y-60689105D01*
X28575595Y-60689105D02*
X28527976Y-60593867D01*
X28527976Y-60593867D02*
X28480357Y-60546248D01*
X28480357Y-60546248D02*
X28385119Y-60498629D01*
X28385119Y-60498629D02*
X28194643Y-60451010D01*
X28194643Y-60451010D02*
X28099405Y-60403391D01*
X28099405Y-60403391D02*
X28051786Y-60355772D01*
X28051786Y-60355772D02*
X28004167Y-60260534D01*
X28004167Y-60260534D02*
X28004167Y-60165296D01*
X28004167Y-60165296D02*
X28051786Y-60070058D01*
X28051786Y-60070058D02*
X28099405Y-60022439D01*
X28099405Y-60022439D02*
X28194643Y-59974820D01*
X28194643Y-59974820D02*
X28432738Y-59974820D01*
X28432738Y-59974820D02*
X28575595Y-60022439D01*
X29004167Y-60974820D02*
X29004167Y-59974820D01*
X29575595Y-60974820D02*
X29147024Y-60403391D01*
X29575595Y-59974820D02*
X29004167Y-60546248D01*
X30432738Y-59974820D02*
X30242262Y-59974820D01*
X30242262Y-59974820D02*
X30147024Y-60022439D01*
X30147024Y-60022439D02*
X30099405Y-60070058D01*
X30099405Y-60070058D02*
X30004167Y-60212915D01*
X30004167Y-60212915D02*
X29956548Y-60403391D01*
X29956548Y-60403391D02*
X29956548Y-60784343D01*
X29956548Y-60784343D02*
X30004167Y-60879581D01*
X30004167Y-60879581D02*
X30051786Y-60927201D01*
X30051786Y-60927201D02*
X30147024Y-60974820D01*
X30147024Y-60974820D02*
X30337500Y-60974820D01*
X30337500Y-60974820D02*
X30432738Y-60927201D01*
X30432738Y-60927201D02*
X30480357Y-60879581D01*
X30480357Y-60879581D02*
X30527976Y-60784343D01*
X30527976Y-60784343D02*
X30527976Y-60546248D01*
X30527976Y-60546248D02*
X30480357Y-60451010D01*
X30480357Y-60451010D02*
X30432738Y-60403391D01*
X30432738Y-60403391D02*
X30337500Y-60355772D01*
X30337500Y-60355772D02*
X30147024Y-60355772D01*
X30147024Y-60355772D02*
X30051786Y-60403391D01*
X30051786Y-60403391D02*
X30004167Y-60451010D01*
X30004167Y-60451010D02*
X29956548Y-60546248D01*
X31099405Y-60403391D02*
X31004167Y-60355772D01*
X31004167Y-60355772D02*
X30956548Y-60308153D01*
X30956548Y-60308153D02*
X30908929Y-60212915D01*
X30908929Y-60212915D02*
X30908929Y-60165296D01*
X30908929Y-60165296D02*
X30956548Y-60070058D01*
X30956548Y-60070058D02*
X31004167Y-60022439D01*
X31004167Y-60022439D02*
X31099405Y-59974820D01*
X31099405Y-59974820D02*
X31289881Y-59974820D01*
X31289881Y-59974820D02*
X31385119Y-60022439D01*
X31385119Y-60022439D02*
X31432738Y-60070058D01*
X31432738Y-60070058D02*
X31480357Y-60165296D01*
X31480357Y-60165296D02*
X31480357Y-60212915D01*
X31480357Y-60212915D02*
X31432738Y-60308153D01*
X31432738Y-60308153D02*
X31385119Y-60355772D01*
X31385119Y-60355772D02*
X31289881Y-60403391D01*
X31289881Y-60403391D02*
X31099405Y-60403391D01*
X31099405Y-60403391D02*
X31004167Y-60451010D01*
X31004167Y-60451010D02*
X30956548Y-60498629D01*
X30956548Y-60498629D02*
X30908929Y-60593867D01*
X30908929Y-60593867D02*
X30908929Y-60784343D01*
X30908929Y-60784343D02*
X30956548Y-60879581D01*
X30956548Y-60879581D02*
X31004167Y-60927201D01*
X31004167Y-60927201D02*
X31099405Y-60974820D01*
X31099405Y-60974820D02*
X31289881Y-60974820D01*
X31289881Y-60974820D02*
X31385119Y-60927201D01*
X31385119Y-60927201D02*
X31432738Y-60879581D01*
X31432738Y-60879581D02*
X31480357Y-60784343D01*
X31480357Y-60784343D02*
X31480357Y-60593867D01*
X31480357Y-60593867D02*
X31432738Y-60498629D01*
X31432738Y-60498629D02*
X31385119Y-60451010D01*
X31385119Y-60451010D02*
X31289881Y-60403391D01*
X32432738Y-60974820D02*
X31861310Y-60974820D01*
X32147024Y-60974820D02*
X32147024Y-59974820D01*
X32147024Y-59974820D02*
X32051786Y-60117677D01*
X32051786Y-60117677D02*
X31956548Y-60212915D01*
X31956548Y-60212915D02*
X31861310Y-60260534D01*
X32813691Y-60070058D02*
X32861310Y-60022439D01*
X32861310Y-60022439D02*
X32956548Y-59974820D01*
X32956548Y-59974820D02*
X33194643Y-59974820D01*
X33194643Y-59974820D02*
X33289881Y-60022439D01*
X33289881Y-60022439D02*
X33337500Y-60070058D01*
X33337500Y-60070058D02*
X33385119Y-60165296D01*
X33385119Y-60165296D02*
X33385119Y-60260534D01*
X33385119Y-60260534D02*
X33337500Y-60403391D01*
X33337500Y-60403391D02*
X32766072Y-60974820D01*
X32766072Y-60974820D02*
X33385119Y-60974820D01*
X33813691Y-60974820D02*
X33813691Y-59974820D01*
X33813691Y-59974820D02*
X34147024Y-60689105D01*
X34147024Y-60689105D02*
X34480357Y-59974820D01*
X34480357Y-59974820D02*
X34480357Y-60974820D01*
X34956548Y-60974820D02*
X34956548Y-59974820D01*
X35432738Y-60974820D02*
X35432738Y-59974820D01*
X35432738Y-59974820D02*
X36004166Y-60974820D01*
X36004166Y-60974820D02*
X36004166Y-59974820D01*
X36480357Y-60974820D02*
X36480357Y-59974820D01*
X36956547Y-60593867D02*
X37718452Y-60593867D01*
X38194642Y-60451010D02*
X38527975Y-60451010D01*
X38670832Y-60974820D02*
X38194642Y-60974820D01*
X38194642Y-60974820D02*
X38194642Y-59974820D01*
X38194642Y-59974820D02*
X38670832Y-59974820D01*
D12*
%TO.C,D3*%
X37118800Y-39443700D02*
X34318800Y-39443700D01*
X37118800Y-37643700D02*
X37118800Y-39443700D01*
X35968800Y-38943700D02*
X35368800Y-38543700D01*
X35968800Y-38543700D02*
X36468800Y-38543700D01*
X35968800Y-38143700D02*
X35968800Y-38943700D01*
X35368800Y-38543700D02*
X35968800Y-38143700D01*
X35368800Y-38543700D02*
X35368800Y-39093700D01*
X35368800Y-38543700D02*
X35368800Y-37993700D01*
X34968800Y-38543700D02*
X35368800Y-38543700D01*
X34318800Y-39443700D02*
X34318800Y-37643700D01*
X34318800Y-37643700D02*
X37118800Y-37643700D01*
%TO.C,U2*%
X39211300Y-53657500D02*
X39846300Y-53022500D01*
X39211300Y-63182500D02*
X39211300Y-53657500D01*
X39846300Y-53022500D02*
X41751300Y-53022500D01*
X41751300Y-53022500D02*
X41751300Y-63182500D01*
X41751300Y-63182500D02*
X39211300Y-63182500D01*
%TO.C,C7*%
X76150000Y-49381200D02*
X78150000Y-49381200D01*
X78150000Y-50631200D01*
X76150000Y-50631200D01*
X76150000Y-49381200D01*
%TO.C,C5*%
X76150000Y-43361200D02*
X78150000Y-43361200D01*
X78150000Y-44611200D01*
X76150000Y-44611200D01*
X76150000Y-43361200D01*
%TO.C,C6*%
X76150000Y-46371200D02*
X78150000Y-46371200D01*
X78150000Y-47621200D01*
X76150000Y-47621200D01*
X76150000Y-46371200D01*
%TO.C,C11*%
X80600000Y-49381200D02*
X82600000Y-49381200D01*
X82600000Y-50631200D01*
X80600000Y-50631200D01*
X80600000Y-49381200D01*
D13*
%TO.C,RE1*%
X70450000Y-71500000D02*
X71450000Y-70400000D01*
X70450000Y-82000000D02*
X70450000Y-71500000D01*
X71450000Y-70400000D02*
X82450000Y-70400000D01*
X73450000Y-76200000D02*
X79450000Y-76200000D01*
X76450000Y-73200000D02*
X76450000Y-79200000D01*
X82450000Y-70400000D02*
X82450000Y-82000000D01*
X82450000Y-82000000D02*
X70450000Y-82000000D01*
X79450000Y-76200000D02*
G75*
G02*
X73450000Y-76200000I-3000000J0D01*
G01*
X73450000Y-76200000D02*
G75*
G02*
X79450000Y-76200000I3000000J0D01*
G01*
%TO.C,C1*%
D12*
X71700000Y-43361200D02*
X73700000Y-43361200D01*
X73700000Y-44611200D01*
X71700000Y-44611200D01*
X71700000Y-43361200D01*
%TO.C,D17*%
X34318800Y-47693700D02*
X37118800Y-47693700D01*
X34318800Y-49493700D02*
X34318800Y-47693700D01*
X34968800Y-48593700D02*
X35368800Y-48593700D01*
X35368800Y-48593700D02*
X35368800Y-48043700D01*
X35368800Y-48593700D02*
X35368800Y-49143700D01*
X35368800Y-48593700D02*
X35968800Y-48193700D01*
X35968800Y-48193700D02*
X35968800Y-48993700D01*
X35968800Y-48593700D02*
X36468800Y-48593700D01*
X35968800Y-48993700D02*
X35368800Y-48593700D01*
X37118800Y-47693700D02*
X37118800Y-49493700D01*
X37118800Y-49493700D02*
X34318800Y-49493700D01*
%TO.C,R1*%
X41862500Y-30331200D02*
X43862500Y-30331200D01*
X43862500Y-31581200D01*
X41862500Y-31581200D01*
X41862500Y-30331200D01*
%TO.C,SW2*%
X50800000Y-69850000D02*
X63500000Y-69850000D01*
X50800000Y-82550000D02*
X50800000Y-69850000D01*
X63500000Y-69850000D02*
X63500000Y-82550000D01*
X63500000Y-82550000D02*
X50800000Y-82550000D01*
%TO.C,SW3*%
X31750000Y-88900000D02*
X44450000Y-88900000D01*
X31750000Y-101600000D02*
X31750000Y-88900000D01*
X44450000Y-88900000D02*
X44450000Y-101600000D01*
X44450000Y-101600000D02*
X31750000Y-101600000D01*
%TO.C,C8*%
X76150000Y-52391200D02*
X78150000Y-52391200D01*
X78150000Y-53641200D01*
X76150000Y-53641200D01*
X76150000Y-52391200D01*
%TO.C,C16*%
X62545000Y-52437500D02*
X63795000Y-52437500D01*
X63795000Y-50437500D01*
X62545000Y-50437500D01*
X62545000Y-52437500D01*
%TO.C,C4*%
X71700000Y-52391200D02*
X73700000Y-52391200D01*
X73700000Y-53641200D01*
X71700000Y-53641200D01*
X71700000Y-52391200D01*
%TO.C,C10*%
X80600000Y-46371200D02*
X82600000Y-46371200D01*
X82600000Y-47621200D01*
X80600000Y-47621200D01*
X80600000Y-46371200D01*
%TO.C,C15*%
X59535000Y-52437500D02*
X60785000Y-52437500D01*
X60785000Y-50437500D01*
X59535000Y-50437500D01*
X59535000Y-52437500D01*
%TO.C,SW5*%
X69850000Y-88900000D02*
X82550000Y-88900000D01*
X69850000Y-101600000D02*
X69850000Y-88900000D01*
X82550000Y-88900000D02*
X82550000Y-101600000D01*
X82550000Y-101600000D02*
X69850000Y-101600000D01*
%TO.C,SW4*%
X50800000Y-88900000D02*
X63500000Y-88900000D01*
X50800000Y-101600000D02*
X50800000Y-88900000D01*
X63500000Y-88900000D02*
X63500000Y-101600000D01*
X63500000Y-101600000D02*
X50800000Y-101600000D01*
%TO.C,C9*%
X80600000Y-43361200D02*
X82600000Y-43361200D01*
X82600000Y-44611200D01*
X80600000Y-44611200D01*
X80600000Y-43361200D01*
%TO.C,C3*%
X71700000Y-49381200D02*
X73700000Y-49381200D01*
X73700000Y-50631200D01*
X71700000Y-50631200D01*
X71700000Y-49381200D01*
%TO.C,SWw1*%
X31750000Y-69850000D02*
X44450000Y-69850000D01*
X31750000Y-82550000D02*
X31750000Y-69850000D01*
X44450000Y-69850000D02*
X44450000Y-82550000D01*
X44450000Y-82550000D02*
X31750000Y-82550000D01*
%TO.C,C12*%
X80600000Y-52391200D02*
X82600000Y-52391200D01*
X82600000Y-53641200D01*
X80600000Y-53641200D01*
X80600000Y-52391200D01*
%TO.C,D4*%
X34318800Y-40993700D02*
X37118800Y-40993700D01*
X34318800Y-42793700D02*
X34318800Y-40993700D01*
X34968800Y-41893700D02*
X35368800Y-41893700D01*
X35368800Y-41893700D02*
X35368800Y-41343700D01*
X35368800Y-41893700D02*
X35368800Y-42443700D01*
X35368800Y-41893700D02*
X35968800Y-41493700D01*
X35968800Y-41493700D02*
X35968800Y-42293700D01*
X35968800Y-41893700D02*
X36468800Y-41893700D01*
X35968800Y-42293700D02*
X35368800Y-41893700D01*
X37118800Y-40993700D02*
X37118800Y-42793700D01*
X37118800Y-42793700D02*
X34318800Y-42793700D01*
%TO.C,D5*%
X34318800Y-44343700D02*
X37118800Y-44343700D01*
X34318800Y-46143700D02*
X34318800Y-44343700D01*
X34968800Y-45243700D02*
X35368800Y-45243700D01*
X35368800Y-45243700D02*
X35368800Y-44693700D01*
X35368800Y-45243700D02*
X35368800Y-45793700D01*
X35368800Y-45243700D02*
X35968800Y-44843700D01*
X35968800Y-44843700D02*
X35968800Y-45643700D01*
X35968800Y-45243700D02*
X36468800Y-45243700D01*
X35968800Y-45643700D02*
X35368800Y-45243700D01*
X37118800Y-44343700D02*
X37118800Y-46143700D01*
X37118800Y-46143700D02*
X34318800Y-46143700D01*
%TO.C,D2*%
X34318800Y-34293700D02*
X37118800Y-34293700D01*
X34318800Y-36093700D02*
X34318800Y-34293700D01*
X34968800Y-35193700D02*
X35368800Y-35193700D01*
X35368800Y-35193700D02*
X35368800Y-34643700D01*
X35368800Y-35193700D02*
X35368800Y-35743700D01*
X35368800Y-35193700D02*
X35968800Y-34793700D01*
X35968800Y-34793700D02*
X35968800Y-35593700D01*
X35968800Y-35193700D02*
X36468800Y-35193700D01*
X35968800Y-35593700D02*
X35368800Y-35193700D01*
X37118800Y-34293700D02*
X37118800Y-36093700D01*
X37118800Y-36093700D02*
X34318800Y-36093700D01*
%TO.C,C14*%
X56525000Y-52437500D02*
X57775000Y-52437500D01*
X57775000Y-50437500D01*
X56525000Y-50437500D01*
X56525000Y-52437500D01*
%TO.C,D1*%
X34318800Y-30943700D02*
X37118800Y-30943700D01*
X34318800Y-32743700D02*
X34318800Y-30943700D01*
X34968800Y-31843700D02*
X35368800Y-31843700D01*
X35368800Y-31843700D02*
X35368800Y-31293700D01*
X35368800Y-31843700D02*
X35368800Y-32393700D01*
X35368800Y-31843700D02*
X35968800Y-31443700D01*
X35968800Y-31443700D02*
X35968800Y-32243700D01*
X35968800Y-31843700D02*
X36468800Y-31843700D01*
X35968800Y-32243700D02*
X35368800Y-31843700D01*
X37118800Y-30943700D02*
X37118800Y-32743700D01*
X37118800Y-32743700D02*
X34318800Y-32743700D01*
%TO.C,C2*%
X71700000Y-46371200D02*
X73700000Y-46371200D01*
X73700000Y-47621200D01*
X71700000Y-47621200D01*
X71700000Y-46371200D01*
%TO.C,C13*%
X53515000Y-52437500D02*
X54765000Y-52437500D01*
X54765000Y-50437500D01*
X53515000Y-50437500D01*
X53515000Y-52437500D01*
%TD*%
M02*
