%TF.GenerationSoftware,KiCad,Pcbnew,9.0.7*%
%TF.CreationDate,2026-01-30T21:13:48-06:00*%
%TF.ProjectId,HACK PAD!,4841434b-2050-4414-9421-2e6b69636164,rev?*%
%TF.SameCoordinates,Original*%
%TF.FileFunction,Copper,L2,Bot*%
%TF.FilePolarity,Positive*%
%FSLAX46Y46*%
G04 Gerber Fmt 4.6, Leading zero omitted, Abs format (unit mm)*
G04 Created by KiCad (PCBNEW 9.0.7) date 2026-01-30 21:13:48*
%MOMM*%
%LPD*%
G01*
G04 APERTURE LIST*
G04 Aperture macros list*
%AMRoundRect*
0 Rectangle with rounded corners*
0 $1 Rounding radius*
0 $2 $3 $4 $5 $6 $7 $8 $9 X,Y pos of 4 corners*
0 Add a 4 corners polygon primitive as box body*
4,1,4,$2,$3,$4,$5,$6,$7,$8,$9,$2,$3,0*
0 Add four circle primitives for the rounded corners*
1,1,$1+$1,$2,$3*
1,1,$1+$1,$4,$5*
1,1,$1+$1,$6,$7*
1,1,$1+$1,$8,$9*
0 Add four rect primitives between the rounded corners*
20,1,$1+$1,$2,$3,$4,$5,0*
20,1,$1+$1,$4,$5,$6,$7,0*
20,1,$1+$1,$6,$7,$8,$9,0*
20,1,$1+$1,$8,$9,$2,$3,0*%
G04 Aperture macros list end*
%TA.AperFunction,SMDPad,CuDef*%
%ADD10RoundRect,0.082000X-0.367999X0.328000X-0.367999X-0.328000X0.367999X-0.328000X0.367999X0.328000X0*%
%TD*%
%TA.AperFunction,SMDPad,CuDef*%
%ADD11RoundRect,0.082000X-0.368000X0.328000X-0.368000X-0.328000X0.368000X-0.328000X0.368000X0.328000X0*%
%TD*%
%TA.AperFunction,ComponentPad*%
%ADD12R,2.000000X2.000000*%
%TD*%
%TA.AperFunction,ComponentPad*%
%ADD13C,2.000000*%
%TD*%
%TA.AperFunction,ComponentPad*%
%ADD14R,3.200000X2.000000*%
%TD*%
%TA.AperFunction,SMDPad,CuDef*%
%ADD15RoundRect,0.082000X0.328000X0.367999X-0.328000X0.367999X-0.328000X-0.367999X0.328000X-0.367999X0*%
%TD*%
%TA.AperFunction,SMDPad,CuDef*%
%ADD16RoundRect,0.082000X0.328000X0.368000X-0.328000X0.368000X-0.328000X-0.368000X0.328000X-0.368000X0*%
%TD*%
%TA.AperFunction,SMDPad,CuDef*%
%ADD17RoundRect,0.082000X-0.328000X-0.367999X0.328000X-0.367999X0.328000X0.367999X-0.328000X0.367999X0*%
%TD*%
%TA.AperFunction,SMDPad,CuDef*%
%ADD18RoundRect,0.082000X-0.328000X-0.368000X0.328000X-0.368000X0.328000X0.368000X-0.328000X0.368000X0*%
%TD*%
%TA.AperFunction,ComponentPad*%
%ADD19C,2.200000*%
%TD*%
%TA.AperFunction,ComponentPad*%
%ADD20RoundRect,0.250000X-0.550000X-0.550000X0.550000X-0.550000X0.550000X0.550000X-0.550000X0.550000X0*%
%TD*%
%TA.AperFunction,ComponentPad*%
%ADD21C,1.600000*%
%TD*%
%TA.AperFunction,ComponentPad*%
%ADD22R,1.700000X1.700000*%
%TD*%
%TA.AperFunction,ComponentPad*%
%ADD23C,1.700000*%
%TD*%
%TA.AperFunction,ComponentPad*%
%ADD24R,3.500000X1.700000*%
%TD*%
%TA.AperFunction,ComponentPad*%
%ADD25O,3.600000X1.700000*%
%TD*%
%TA.AperFunction,ComponentPad*%
%ADD26O,3.700000X1.700000*%
%TD*%
%TA.AperFunction,ViaPad*%
%ADD27C,0.600000*%
%TD*%
%TA.AperFunction,Conductor*%
%ADD28C,0.200000*%
%TD*%
G04 APERTURE END LIST*
D10*
%TO.P,D16,1,VDD*%
%TO.N,Net-(D10-VDD)*%
X30387501Y-56297158D03*
%TO.P,D16,2*%
%TO.N,N/C*%
X30387501Y-57797158D03*
D11*
%TO.P,D16,3,VSS*%
%TO.N,GND*%
X36287500Y-57797158D03*
%TO.P,D16,4,DIN*%
%TO.N,Net-(D15-DOUT)*%
X36287500Y-56297158D03*
%TD*%
D10*
%TO.P,D15,1,VDD*%
%TO.N,Net-(D10-VDD)*%
X77793701Y-57149958D03*
%TO.P,D15,2*%
%TO.N,N/C*%
X77793701Y-58649958D03*
D11*
%TO.P,D15,3,VSS*%
%TO.N,GND*%
X83693700Y-58649958D03*
%TO.P,D15,4,DIN*%
%TO.N,Net-(D14-DOUT)*%
X83693700Y-57149958D03*
%TD*%
D12*
%TO.P,RE1,A,A*%
%TO.N,Net-(U1-PA7_A8_D8_SCK)*%
X68950000Y-73700000D03*
D13*
%TO.P,RE1,B,B*%
%TO.N,Net-(U1-PA5_A9_D9_MISO)*%
X68950000Y-78700000D03*
%TO.P,RE1,C,C*%
%TO.N,GND*%
X68950000Y-76200000D03*
D14*
%TO.P,RE1,MP*%
%TO.N,N/C*%
X76450000Y-70600000D03*
X76450000Y-81800000D03*
D13*
%TO.P,RE1,S1,S1*%
%TO.N,Net-(D17-A)*%
X83450000Y-78700000D03*
%TO.P,RE1,S2,S2*%
%TO.N,GND*%
X83450000Y-73700000D03*
%TD*%
D15*
%TO.P,D13,1,VDD*%
%TO.N,Net-(D10-VDD)*%
X71437542Y-34931201D03*
%TO.P,D13,2*%
%TO.N,N/C*%
X69937542Y-34931201D03*
D16*
%TO.P,D13,3,VSS*%
%TO.N,unconnected-(D13-VSS-Pad3)*%
X69937542Y-40831200D03*
%TO.P,D13,4,DIN*%
%TO.N,Net-(D12-DOUT)*%
X71437542Y-40831200D03*
%TD*%
D17*
%TO.P,D14,1,VDD*%
%TO.N,Net-(D10-VDD)*%
X41790858Y-41049999D03*
%TO.P,D14,2*%
%TO.N,N/C*%
X43290858Y-41049999D03*
D18*
%TO.P,D14,3,VSS*%
%TO.N,GND*%
X43290858Y-35150000D03*
%TO.P,D14,4,DIN*%
%TO.N,Net-(D13-DOUT)*%
X41790858Y-35150000D03*
%TD*%
D19*
%TO.P,SW2,1,1*%
%TO.N,GND*%
X59690000Y-71120000D03*
%TO.P,SW2,2,2*%
%TO.N,Net-(D2-K)*%
X53340000Y-73660000D03*
%TD*%
%TO.P,SW3,1,1*%
%TO.N,GND*%
X40640000Y-90170000D03*
%TO.P,SW3,2,2*%
%TO.N,Net-(D3-K)*%
X34290000Y-92710000D03*
%TD*%
D10*
%TO.P,D11,1,VDD*%
%TO.N,Net-(D10-VDD)*%
X63725001Y-65822158D03*
%TO.P,D11,2*%
%TO.N,N/C*%
X63725001Y-67322158D03*
D11*
%TO.P,D11,3,VSS*%
%TO.N,GND*%
X69625000Y-67322158D03*
%TO.P,D11,4,DIN*%
%TO.N,unconnected-(D11-DIN-Pad4)*%
X69625000Y-65822158D03*
%TD*%
D10*
%TO.P,D10,1,VDD*%
%TO.N,Net-(D10-VDD)*%
X63725001Y-103922158D03*
%TO.P,D10,2*%
%TO.N,N/C*%
X63725001Y-105422158D03*
D11*
%TO.P,D10,3,VSS*%
%TO.N,GND*%
X69625000Y-105422158D03*
%TO.P,D10,4,DIN*%
%TO.N,Net-(D10-DIN)*%
X69625000Y-103922158D03*
%TD*%
D19*
%TO.P,SW5,1,1*%
%TO.N,GND*%
X78740000Y-90170000D03*
%TO.P,SW5,2,2*%
%TO.N,Net-(D5-K)*%
X72390000Y-92710000D03*
%TD*%
%TO.P,SW4,1,1*%
%TO.N,GND*%
X59690000Y-90170000D03*
%TO.P,SW4,2,2*%
%TO.N,Net-(D4-K)*%
X53340000Y-92710000D03*
%TD*%
%TO.P,SWw1,1,1*%
%TO.N,GND*%
X40640000Y-71120000D03*
%TO.P,SWw1,2,2*%
%TO.N,Net-(D1-K)*%
X34290000Y-73660000D03*
%TD*%
D10*
%TO.P,D7,1,DOUT*%
%TO.N,Net-(D7-DOUT)*%
X63272301Y-84890958D03*
%TO.P,D7,2*%
%TO.N,N/C*%
X63272301Y-86390958D03*
D11*
%TO.P,D7,3,VSS*%
%TO.N,GND*%
X69172300Y-86390958D03*
%TO.P,D7,4,DIN*%
%TO.N,Net-(D6-DOUT)*%
X69172300Y-84890958D03*
%TD*%
D20*
%TO.P,D3,1,K*%
%TO.N,Net-(D3-K)*%
X30070000Y-39350000D03*
D21*
%TO.P,D3,2,A*%
%TO.N,Net-(D3-A)*%
X37690000Y-39350000D03*
%TD*%
D20*
%TO.P,D4,1,K*%
%TO.N,Net-(D4-K)*%
X30050000Y-42290000D03*
D21*
%TO.P,D4,2,A*%
%TO.N,Net-(D4-A)*%
X37670000Y-42290000D03*
%TD*%
D22*
%TO.P,U2,1,GND*%
%TO.N,GND*%
X40481300Y-54292500D03*
D23*
%TO.P,U2,2,VCC*%
%TO.N,Net-(U1-3V3)*%
X40481300Y-56832500D03*
%TO.P,U2,3,SCL*%
%TO.N,Net-(U1-PA9_A5_D5_SCL)*%
X40481300Y-59372500D03*
%TO.P,U2,4,SDA*%
%TO.N,Net-(U1-PA8_A4_D4_SDA)*%
X40481300Y-61912500D03*
%TD*%
D10*
%TO.P,D12,1,VDD*%
%TO.N,Net-(D10-VDD)*%
X54418701Y-58031258D03*
%TO.P,D12,2*%
%TO.N,N/C*%
X54418701Y-59531258D03*
D11*
%TO.P,D12,3,VSS*%
%TO.N,GND*%
X60318700Y-59531258D03*
%TO.P,D12,4,DIN*%
%TO.N,Net-(D11-DOUT)*%
X60318700Y-58031258D03*
%TD*%
D20*
%TO.P,D5,1,K*%
%TO.N,Net-(D5-K)*%
X29950000Y-45410000D03*
D21*
%TO.P,D5,2,A*%
%TO.N,Net-(D5-A)*%
X37570000Y-45410000D03*
%TD*%
D20*
%TO.P,D2,1,K*%
%TO.N,Net-(D2-K)*%
X30070000Y-36440000D03*
D21*
%TO.P,D2,2,A*%
%TO.N,Net-(D2-A)*%
X37690000Y-36440000D03*
%TD*%
D20*
%TO.P,D1,1,K*%
%TO.N,Net-(D1-K)*%
X30100000Y-33630000D03*
D21*
%TO.P,D1,2,A*%
%TO.N,Net-(D1-A)*%
X37720000Y-33630000D03*
%TD*%
D10*
%TO.P,D6,1,DOUT*%
%TO.N,Net-(D6-DOUT)*%
X44610001Y-84873358D03*
%TO.P,D6,2*%
%TO.N,N/C*%
X44610001Y-86373358D03*
D11*
%TO.P,D6,3,VSS*%
%TO.N,GND*%
X50510000Y-86373358D03*
%TO.P,D6,4,DIN*%
%TO.N,Net-(D6-DIN)*%
X50510000Y-84873358D03*
%TD*%
D10*
%TO.P,D8,1,DOUT*%
%TO.N,Net-(D8-DOUT)*%
X44675001Y-65822158D03*
%TO.P,D8,2*%
%TO.N,N/C*%
X44675001Y-67322158D03*
D11*
%TO.P,D8,3,VSS*%
%TO.N,GND*%
X50575000Y-67322158D03*
%TO.P,D8,4,DIN*%
%TO.N,Net-(D7-DOUT)*%
X50575000Y-65822158D03*
%TD*%
D10*
%TO.P,D9,1,DOUT*%
%TO.N,Net-(D10-DIN)*%
X44675001Y-103922158D03*
%TO.P,D9,2*%
%TO.N,N/C*%
X44675001Y-105422158D03*
D11*
%TO.P,D9,3,VSS*%
%TO.N,GND*%
X50575000Y-105422158D03*
%TO.P,D9,4,DIN*%
%TO.N,Net-(D8-DOUT)*%
X50575000Y-103922158D03*
%TD*%
D24*
%TO.P,U1,1,PA02_A0_D0*%
%TO.N,Net-(D1-A)*%
X65775000Y-30162500D03*
D25*
%TO.P,U1,2,PA4_A1_D1*%
%TO.N,Net-(D2-A)*%
X65775000Y-32702500D03*
%TO.P,U1,3,PA10_A2_D2*%
%TO.N,Net-(D3-A)*%
X65775000Y-35242500D03*
%TO.P,U1,4,PA11_A3_D3*%
%TO.N,Net-(D4-A)*%
X65775000Y-37782500D03*
%TO.P,U1,5,PA8_A4_D4_SDA*%
%TO.N,Net-(U1-PA8_A4_D4_SDA)*%
X65775000Y-40322500D03*
%TO.P,U1,6,PA9_A5_D5_SCL*%
%TO.N,Net-(U1-PA9_A5_D5_SCL)*%
X65775000Y-42862500D03*
%TO.P,U1,7,PB08_A6_D6_TX*%
%TO.N,Net-(D5-A)*%
X65775000Y-45402500D03*
%TO.P,U1,8,PB09_A7_D7_RX*%
%TO.N,Net-(U1-PA7_A8_D8_SCK)*%
X48525000Y-45402500D03*
%TO.P,U1,9,PA7_A8_D8_SCK*%
X48525000Y-42862500D03*
%TO.P,U1,10,PA5_A9_D9_MISO*%
%TO.N,Net-(U1-PA5_A9_D9_MISO)*%
X48525000Y-40322500D03*
D26*
%TO.P,U1,11,PA6_A10_D10_MOSI*%
%TO.N,Net-(D17-K)*%
X48525000Y-37782500D03*
%TO.P,U1,12,3V3*%
%TO.N,Net-(U1-3V3)*%
X48525000Y-35242500D03*
%TO.P,U1,13,GND*%
%TO.N,unconnected-(U1-GND-Pad13)*%
X48525000Y-32702500D03*
%TO.P,U1,14,5V*%
%TO.N,Net-(D10-VDD)*%
X48525000Y-30162500D03*
%TD*%
D27*
%TO.N,Net-(D10-VDD)*%
X57150700Y-55133300D03*
X63066300Y-102155600D03*
X60653500Y-66112500D03*
X75146300Y-42932500D03*
X74897500Y-56827600D03*
%TO.N,GND*%
X74897500Y-105218700D03*
X52266200Y-35209100D03*
%TO.N,Net-(D2-K)*%
X29450800Y-72810500D03*
%TO.N,Net-(D4-K)*%
X50259800Y-49116900D03*
%TO.N,Net-(D5-K)*%
X37546600Y-92480400D03*
%TO.N,Net-(D6-DIN)*%
X64122200Y-83085000D03*
%TO.N,Net-(D7-DOUT)*%
X60108500Y-67156700D03*
X60108500Y-84626700D03*
%TO.N,Net-(D8-DOUT)*%
X48277300Y-69864300D03*
X51851600Y-102173700D03*
%TO.N,Net-(D17-A)*%
X38753300Y-73107000D03*
%TO.N,Net-(D17-K)*%
X39676400Y-42032700D03*
%TO.N,Net-(U1-PA7_A8_D8_SCK)*%
X62781200Y-46635100D03*
%TO.N,Net-(U1-PA5_A9_D9_MISO)*%
X53254900Y-71948700D03*
%TD*%
D28*
%TO.N,Net-(D10-VDD)*%
X28300000Y-62980000D02*
X28448500Y-63128500D01*
X52296000Y-60153959D02*
X52296000Y-63128500D01*
X60772500Y-65993500D02*
X60772500Y-65822200D01*
X54418701Y-58031258D02*
X52296000Y-60153959D01*
X63066300Y-103263500D02*
X63066300Y-102155600D01*
X36576500Y-38881300D02*
X37562800Y-37895000D01*
X52933600Y-62490900D02*
X57290900Y-62490900D01*
X77793700Y-57150000D02*
X77471300Y-56827600D01*
X41790900Y-41050000D02*
X37793900Y-41050000D01*
X36576500Y-39832600D02*
X36576500Y-38881300D01*
X75140000Y-36860000D02*
X75140000Y-42926200D01*
X30387501Y-56297158D02*
X30022842Y-56297158D01*
X37852100Y-37895000D02*
X39031500Y-36715600D01*
X52296000Y-63128500D02*
X52933600Y-62490900D01*
X71437542Y-34931201D02*
X73211201Y-34931201D01*
X43549200Y-31550800D02*
X49288400Y-31550800D01*
X28300000Y-58020000D02*
X28300000Y-62980000D01*
X71437500Y-34931200D02*
X70478800Y-33972500D01*
X56484000Y-55800000D02*
X57150700Y-55133300D01*
X75140000Y-42926200D02*
X75146300Y-42932500D01*
X28448500Y-63128500D02*
X52296000Y-63128500D01*
X77471300Y-56827600D02*
X74897500Y-56827600D01*
X63725000Y-103922200D02*
X63066300Y-103263500D01*
X49525000Y-30162500D02*
X50676700Y-30162500D01*
X60653500Y-66112500D02*
X60772500Y-65993500D01*
X37562800Y-37895000D02*
X37852100Y-37895000D01*
X30022842Y-56297158D02*
X28300000Y-58020000D01*
X54418701Y-58031258D02*
X54418701Y-56091299D01*
X39031500Y-36068500D02*
X43549200Y-31550800D01*
X70478800Y-33972500D02*
X54486700Y-33972500D01*
X49288400Y-31550800D02*
X50676700Y-30162500D01*
X54710000Y-55800000D02*
X56484000Y-55800000D01*
X39031500Y-36715600D02*
X39031500Y-36068500D01*
X37793900Y-41050000D02*
X36576500Y-39832600D01*
X60772500Y-65822200D02*
X60622200Y-65822200D01*
X63725000Y-65822200D02*
X60772500Y-65822200D01*
X60622200Y-65822200D02*
X57290900Y-62490900D01*
X73211201Y-34931201D02*
X75140000Y-36860000D01*
X54486700Y-33972500D02*
X50676700Y-30162500D01*
X54418701Y-56091299D02*
X54710000Y-55800000D01*
%TO.N,GND*%
X51022700Y-36452600D02*
X52266200Y-35209100D01*
X43290900Y-35150000D02*
X44310000Y-35150000D01*
X40640000Y-71120000D02*
X47886400Y-71120000D01*
X70930000Y-65099200D02*
X80490800Y-65099200D01*
X69380000Y-64300000D02*
X70179200Y-65099200D01*
X72951300Y-90170000D02*
X78740000Y-90170000D01*
X85100000Y-58720000D02*
X85029958Y-58649958D01*
X63288500Y-59531300D02*
X68057200Y-64300000D01*
X68970000Y-106910000D02*
X52510000Y-106910000D01*
X63870000Y-71120000D02*
X63911300Y-71120000D01*
X44310000Y-35150000D02*
X45612600Y-36452600D01*
X39329600Y-54755100D02*
X39329600Y-54292500D01*
X69625000Y-106255000D02*
X68970000Y-106910000D01*
X40640000Y-90170000D02*
X47800000Y-90170000D01*
X69380650Y-86599350D02*
X72951300Y-90170000D01*
X80490800Y-65099200D02*
X85100000Y-60490000D01*
X47886400Y-71120000D02*
X51129600Y-67876800D01*
X70930000Y-66017158D02*
X70930000Y-65099200D01*
X69625000Y-105422158D02*
X69625000Y-106255000D01*
X59690000Y-71120000D02*
X63870000Y-71120000D01*
X69625000Y-70265000D02*
X69625000Y-67322158D01*
X68057200Y-64300000D02*
X69380000Y-64300000D01*
X52140000Y-105580000D02*
X51982158Y-105422158D01*
X40481300Y-54292500D02*
X39329600Y-54292500D01*
X51053300Y-86916700D02*
X47800000Y-90170000D01*
X85100000Y-60490000D02*
X85100000Y-58720000D01*
X65810000Y-90170000D02*
X69380650Y-86599350D01*
X50575000Y-67322200D02*
X51129600Y-67876800D01*
X51129600Y-67876800D02*
X54372800Y-71120000D01*
X85029958Y-58649958D02*
X83693700Y-58649958D01*
X74897500Y-105218700D02*
X69828500Y-105218700D01*
X54306600Y-90170000D02*
X59690000Y-90170000D01*
X65827200Y-71170000D02*
X68720000Y-71170000D01*
X36287500Y-57797200D02*
X39329600Y-54755100D01*
X65827200Y-71170000D02*
X65827200Y-73077200D01*
X45612600Y-36452600D02*
X51022700Y-36452600D01*
X70179200Y-65099200D02*
X70930000Y-65099200D01*
X52510000Y-106910000D02*
X52140000Y-106540000D01*
X51053300Y-86916700D02*
X51053300Y-86916658D01*
X59690000Y-90170000D02*
X65810000Y-90170000D01*
X69828500Y-105218700D02*
X69625000Y-105422200D01*
X54372800Y-71120000D02*
X59690000Y-71120000D01*
X68720000Y-71170000D02*
X69625000Y-70265000D01*
X68950000Y-76200000D02*
X80950000Y-76200000D01*
X51053300Y-86916700D02*
X54306600Y-90170000D01*
X51053300Y-86916658D02*
X50510000Y-86373358D01*
X51982158Y-105422158D02*
X50575000Y-105422158D01*
X65827200Y-73077200D02*
X68950000Y-76200000D01*
X80950000Y-76200000D02*
X83450000Y-73700000D01*
X63911300Y-71120000D02*
X65827200Y-71120000D01*
X69625000Y-67322158D02*
X70930000Y-66017158D01*
X60318700Y-59531300D02*
X63288500Y-59531300D01*
X65827200Y-71120000D02*
X65827200Y-71170000D01*
X52140000Y-106540000D02*
X52140000Y-105580000D01*
%TO.N,Net-(D1-A)*%
X42788800Y-28561200D02*
X62122000Y-28561200D01*
X37720000Y-33630000D02*
X42788800Y-28561200D01*
X64775000Y-30162500D02*
X63723300Y-30162500D01*
X62122000Y-28561200D02*
X63723300Y-30162500D01*
%TO.N,Net-(D1-K)*%
X27899000Y-72108643D02*
X27899000Y-35831000D01*
X27899000Y-35831000D02*
X30100000Y-33630000D01*
X29450357Y-73660000D02*
X27899000Y-72108643D01*
X34290000Y-73660000D02*
X29450357Y-73660000D01*
%TO.N,Net-(D2-A)*%
X59969600Y-28998800D02*
X45131200Y-28998800D01*
X64775000Y-32702500D02*
X63673300Y-32702500D01*
X63673300Y-32702500D02*
X59969600Y-28998800D01*
X45131200Y-28998800D02*
X37690000Y-36440000D01*
%TO.N,Net-(D2-K)*%
X53340000Y-73660000D02*
X52429300Y-72749300D01*
X39246500Y-72749300D02*
X38749200Y-72252000D01*
X38749200Y-72252000D02*
X30009300Y-72252000D01*
X52429300Y-72749300D02*
X39246500Y-72749300D01*
X30009300Y-72252000D02*
X29450800Y-72810500D01*
%TO.N,Net-(D3-A)*%
X53150500Y-35242500D02*
X51949200Y-34041200D01*
X39633000Y-36039900D02*
X39633000Y-37407000D01*
X39633000Y-37407000D02*
X37690000Y-39350000D01*
X41631700Y-34041200D02*
X39633000Y-36039900D01*
X51949200Y-34041200D02*
X41631700Y-34041200D01*
X64775000Y-35242500D02*
X53150500Y-35242500D01*
%TO.N,Net-(D4-A)*%
X43803600Y-42634400D02*
X44679200Y-41758800D01*
X59863300Y-41592500D02*
X63673300Y-37782500D01*
X64775000Y-37782500D02*
X63673300Y-37782500D01*
X44679200Y-41758800D02*
X44845500Y-41592500D01*
X37670000Y-42290000D02*
X38014400Y-42634400D01*
X38014400Y-42634400D02*
X43803600Y-42634400D01*
X44845500Y-41592500D02*
X59863300Y-41592500D01*
X44679200Y-41758800D02*
X44845500Y-41592500D01*
%TO.N,Net-(D4-K)*%
X50259800Y-49116900D02*
X36876900Y-49116900D01*
X36876900Y-49116900D02*
X30050000Y-42290000D01*
%TO.N,Net-(D5-A)*%
X64775000Y-45402500D02*
X63673300Y-45402500D01*
X62482700Y-44211900D02*
X38768100Y-44211900D01*
X63673300Y-45402500D02*
X62482700Y-44211900D01*
X38768100Y-44211900D02*
X37570000Y-45410000D01*
%TO.N,Net-(D5-K)*%
X52492900Y-91257700D02*
X56764200Y-91257700D01*
X51270200Y-92480400D02*
X52492900Y-91257700D01*
X37546600Y-92480400D02*
X51270200Y-92480400D01*
X56764200Y-91257700D02*
X57646500Y-92140000D01*
X71820000Y-92140000D02*
X72390000Y-92710000D01*
X57646500Y-92140000D02*
X71820000Y-92140000D01*
%TO.N,Net-(D6-DOUT)*%
X68246100Y-82456100D02*
X69172300Y-83382300D01*
X44610001Y-84873358D02*
X44610001Y-83629999D01*
X44610001Y-83629999D02*
X44960000Y-83280000D01*
X44960000Y-83270000D02*
X45773900Y-82456100D01*
X44960000Y-83280000D02*
X44960000Y-83270000D01*
X45773900Y-82456100D02*
X68246100Y-82456100D01*
X69172300Y-83382300D02*
X69172300Y-84890958D01*
%TO.N,Net-(D6-DIN)*%
X52298400Y-83085000D02*
X50510000Y-84873400D01*
X64122200Y-83085000D02*
X52298400Y-83085000D01*
%TO.N,Net-(D7-DOUT)*%
X63272300Y-84891000D02*
X63008000Y-84626700D01*
X60108500Y-67156700D02*
X58774000Y-65822200D01*
X58774000Y-65822200D02*
X50575000Y-65822200D01*
X63008000Y-84626700D02*
X60108500Y-84626700D01*
%TO.N,Net-(D8-DOUT)*%
X50575000Y-103450300D02*
X50575000Y-103922200D01*
X45957700Y-69864300D02*
X48277300Y-69864300D01*
X43874600Y-66622600D02*
X43874600Y-67781200D01*
X44675000Y-65822200D02*
X43874600Y-66622600D01*
X43874600Y-67781200D02*
X45957700Y-69864300D01*
X51851600Y-102173700D02*
X50575000Y-103450300D01*
%TO.N,Net-(D10-DIN)*%
X68651000Y-101141000D02*
X66843800Y-101141000D01*
X45999000Y-101141000D02*
X66843800Y-101141000D01*
X44675001Y-103922158D02*
X44675001Y-102464999D01*
X69625000Y-103922158D02*
X69625000Y-102115000D01*
X69625000Y-102115000D02*
X68651000Y-101141000D01*
X44675001Y-102464999D02*
X45999000Y-101141000D01*
%TO.N,Net-(D17-A)*%
X45239800Y-74288400D02*
X39934700Y-74288400D01*
X50992500Y-80041100D02*
X45239800Y-74288400D01*
X82108900Y-80041100D02*
X50992500Y-80041100D01*
X83450000Y-78700000D02*
X82108900Y-80041100D01*
X39934700Y-74288400D02*
X38753300Y-73107000D01*
%TO.N,Net-(D17-K)*%
X39676400Y-42032700D02*
X43547300Y-42032700D01*
X49525000Y-37782500D02*
X46373300Y-37782500D01*
X46373300Y-39206700D02*
X46373300Y-37782500D01*
X43547300Y-42032700D02*
X46373300Y-39206700D01*
%TO.N,Net-(U1-PA7_A8_D8_SCK)*%
X62781200Y-46635100D02*
X51859300Y-46635100D01*
X49525000Y-45402500D02*
X50626700Y-45402500D01*
X51859300Y-46635100D02*
X50626700Y-45402500D01*
%TO.N,Net-(U1-PA5_A9_D9_MISO)*%
X55404300Y-73181100D02*
X63431100Y-73181100D01*
X53254900Y-71948700D02*
X54171900Y-71948700D01*
X54171900Y-71948700D02*
X55404300Y-73181100D01*
X63431100Y-73181100D02*
X68950000Y-78700000D01*
%TO.N,Net-(U1-PA9_A5_D5_SCL)*%
X67876700Y-45902500D02*
X65265800Y-48513400D01*
X51714200Y-48513400D02*
X40855100Y-59372500D01*
X64775000Y-42862500D02*
X67876700Y-42862500D01*
X67876700Y-42862500D02*
X67876700Y-45902500D01*
X40855100Y-59372500D02*
X40481300Y-59372500D01*
X65265800Y-48513400D02*
X51714200Y-48513400D01*
%TO.N,Net-(U1-PA8_A4_D4_SDA)*%
X68316600Y-40762400D02*
X67876700Y-40322500D01*
X40481300Y-61912500D02*
X52981300Y-49412500D01*
X52981300Y-49412500D02*
X64993100Y-49412500D01*
X64993100Y-49412500D02*
X68316600Y-46089000D01*
X68316600Y-46089000D02*
X68316600Y-40762400D01*
X64775000Y-40322500D02*
X67876700Y-40322500D01*
%TD*%
M02*
