%TF.GenerationSoftware,KiCad,Pcbnew,9.0.7*%
%TF.CreationDate,2026-01-30T21:13:48-06:00*%
%TF.ProjectId,HACK PAD!,4841434b-2050-4414-9421-2e6b69636164,rev?*%
%TF.SameCoordinates,Original*%
%TF.FileFunction,Profile,NP*%
%FSLAX46Y46*%
G04 Gerber Fmt 4.6, Leading zero omitted, Abs format (unit mm)*
G04 Created by KiCad (PCBNEW 9.0.7) date 2026-01-30 21:13:48*
%MOMM*%
%LPD*%
G01*
G04 APERTURE LIST*
%TA.AperFunction,Profile*%
%ADD10C,0.050000*%
%TD*%
%TA.AperFunction,Profile*%
%ADD11C,0.100000*%
%TD*%
G04 APERTURE END LIST*
D10*
X26193750Y-27245000D02*
X88106250Y-27245000D01*
X88106250Y-109537500D01*
X26193750Y-109537500D01*
X26193750Y-27245000D01*
D11*
%TO.C,D16*%
X31637502Y-57750000D02*
X31637502Y-56344316D01*
X32543049Y-55547159D02*
X34131954Y-55547159D01*
X34131953Y-58547158D02*
X32543049Y-58547158D01*
X35037500Y-56344316D02*
X35037500Y-57750000D01*
X31588017Y-56127438D02*
G75*
G02*
X31637502Y-56344316I-450505J-216876D01*
G01*
X31588017Y-56127438D02*
G75*
G02*
X32290790Y-55478859I450515J216878D01*
G01*
X31637502Y-57750001D02*
G75*
G02*
X31588017Y-57966878I-499990J-1D01*
G01*
X32290790Y-58615455D02*
G75*
G02*
X31588017Y-57966878I-252258J431700D01*
G01*
X32290791Y-58615457D02*
G75*
G02*
X32543049Y-58547158I252261J-431710D01*
G01*
X32543048Y-55547158D02*
G75*
G02*
X32290790Y-55478859I3J500009D01*
G01*
X34131953Y-58547158D02*
G75*
G02*
X34384212Y-58615457I-3J-500012D01*
G01*
X34384212Y-55478860D02*
G75*
G02*
X34131954Y-55547160I-252262J431710D01*
G01*
X34384212Y-55478860D02*
G75*
G02*
X35086984Y-56127438I252258J-431700D01*
G01*
X35037500Y-56344315D02*
G75*
G02*
X35086979Y-56127435I500000J15D01*
G01*
X35086985Y-57966877D02*
G75*
G02*
X34384212Y-58615457I-450514J-216880D01*
G01*
X35086985Y-57966878D02*
G75*
G02*
X35037500Y-57750000I450515J216878D01*
G01*
%TO.C,D15*%
X79043702Y-58602800D02*
X79043702Y-57197116D01*
X79949249Y-56399959D02*
X81538154Y-56399959D01*
X81538153Y-59399958D02*
X79949249Y-59399958D01*
X82443700Y-57197116D02*
X82443700Y-58602800D01*
X78994217Y-56980238D02*
G75*
G02*
X79043702Y-57197116I-450505J-216876D01*
G01*
X78994217Y-56980238D02*
G75*
G02*
X79696990Y-56331659I450515J216878D01*
G01*
X79043702Y-58602801D02*
G75*
G02*
X78994217Y-58819678I-499990J-1D01*
G01*
X79696990Y-59468255D02*
G75*
G02*
X78994217Y-58819678I-252258J431700D01*
G01*
X79696991Y-59468257D02*
G75*
G02*
X79949249Y-59399958I252261J-431710D01*
G01*
X79949248Y-56399958D02*
G75*
G02*
X79696990Y-56331659I3J500009D01*
G01*
X81538153Y-59399958D02*
G75*
G02*
X81790412Y-59468257I-3J-500012D01*
G01*
X81790412Y-56331660D02*
G75*
G02*
X81538154Y-56399960I-252262J431710D01*
G01*
X81790412Y-56331660D02*
G75*
G02*
X82493184Y-56980238I252258J-431700D01*
G01*
X82443700Y-57197115D02*
G75*
G02*
X82493179Y-56980235I500000J15D01*
G01*
X82493185Y-58819677D02*
G75*
G02*
X81790412Y-59468257I-450514J-216880D01*
G01*
X82493185Y-58819678D02*
G75*
G02*
X82443700Y-58602800I450515J216878D01*
G01*
%TO.C,D13*%
X69187542Y-38675653D02*
X69187542Y-37086749D01*
X69984700Y-36181202D02*
X71390384Y-36181202D01*
X71390384Y-39581200D02*
X69984700Y-39581200D01*
X72187541Y-37086749D02*
X72187541Y-38675654D01*
X69119243Y-36834491D02*
G75*
G02*
X69187542Y-37086749I-431710J-252261D01*
G01*
X69119245Y-36834490D02*
G75*
G02*
X69767822Y-36131717I431700J252258D01*
G01*
X69187542Y-38675653D02*
G75*
G02*
X69119243Y-38927912I-500012J3D01*
G01*
X69767822Y-39630685D02*
G75*
G02*
X69984700Y-39581200I216878J-450515D01*
G01*
X69767823Y-39630685D02*
G75*
G02*
X69119243Y-38927912I-216880J450514D01*
G01*
X69984699Y-36181202D02*
G75*
G02*
X69767822Y-36131717I-1J499990D01*
G01*
X71390385Y-39581200D02*
G75*
G02*
X71607265Y-39630679I15J-500000D01*
G01*
X71607262Y-36131717D02*
G75*
G02*
X71390384Y-36181202I-216876J450505D01*
G01*
X71607262Y-36131717D02*
G75*
G02*
X72255841Y-36834490I216878J-450515D01*
G01*
X72187542Y-37086748D02*
G75*
G02*
X72255841Y-36834490I500009J-3D01*
G01*
X72255840Y-38927912D02*
G75*
G02*
X71607262Y-39630684I-431700J-252258D01*
G01*
X72255840Y-38927912D02*
G75*
G02*
X72187540Y-38675654I431710J252262D01*
G01*
%TO.C,D14*%
X41040859Y-38894451D02*
X41040859Y-37305546D01*
X41838016Y-36400000D02*
X43243700Y-36400000D01*
X43243700Y-39799998D02*
X41838016Y-39799998D01*
X44040858Y-37305547D02*
X44040858Y-38894451D01*
X40972560Y-37053288D02*
G75*
G02*
X41040860Y-37305546I-431710J-252262D01*
G01*
X40972560Y-37053288D02*
G75*
G02*
X41621138Y-36350516I431700J252258D01*
G01*
X41040858Y-38894452D02*
G75*
G02*
X40972559Y-39146710I-500009J3D01*
G01*
X41621138Y-39849483D02*
G75*
G02*
X40972559Y-39146710I-216878J450515D01*
G01*
X41621138Y-39849483D02*
G75*
G02*
X41838016Y-39799998I216876J-450505D01*
G01*
X41838015Y-36400000D02*
G75*
G02*
X41621135Y-36350521I-15J500000D01*
G01*
X43243701Y-39799998D02*
G75*
G02*
X43460578Y-39849483I1J-499990D01*
G01*
X43460577Y-36350515D02*
G75*
G02*
X44109157Y-37053288I216880J-450514D01*
G01*
X43460578Y-36350515D02*
G75*
G02*
X43243700Y-36400000I-216878J450515D01*
G01*
X44040858Y-37305547D02*
G75*
G02*
X44109157Y-37053288I500012J-3D01*
G01*
X44109155Y-39146710D02*
G75*
G02*
X43460578Y-39849483I-431700J-252258D01*
G01*
X44109157Y-39146709D02*
G75*
G02*
X44040858Y-38894451I431710J252261D01*
G01*
%TO.C,D11*%
X64975002Y-67275000D02*
X64975002Y-65869316D01*
X65880549Y-65072159D02*
X67469454Y-65072159D01*
X67469453Y-68072158D02*
X65880549Y-68072158D01*
X68375000Y-65869316D02*
X68375000Y-67275000D01*
X64925517Y-65652438D02*
G75*
G02*
X64975002Y-65869316I-450505J-216876D01*
G01*
X64925517Y-65652438D02*
G75*
G02*
X65628290Y-65003859I450515J216878D01*
G01*
X64975002Y-67275001D02*
G75*
G02*
X64925517Y-67491878I-499990J-1D01*
G01*
X65628290Y-68140455D02*
G75*
G02*
X64925517Y-67491878I-252258J431700D01*
G01*
X65628291Y-68140457D02*
G75*
G02*
X65880549Y-68072158I252261J-431710D01*
G01*
X65880548Y-65072158D02*
G75*
G02*
X65628290Y-65003859I3J500009D01*
G01*
X67469453Y-68072158D02*
G75*
G02*
X67721712Y-68140457I-3J-500012D01*
G01*
X67721712Y-65003860D02*
G75*
G02*
X67469454Y-65072160I-252262J431710D01*
G01*
X67721712Y-65003860D02*
G75*
G02*
X68424484Y-65652438I252258J-431700D01*
G01*
X68375000Y-65869315D02*
G75*
G02*
X68424479Y-65652435I500000J15D01*
G01*
X68424485Y-67491877D02*
G75*
G02*
X67721712Y-68140457I-450514J-216880D01*
G01*
X68424485Y-67491878D02*
G75*
G02*
X68375000Y-67275000I450515J216878D01*
G01*
%TO.C,D10*%
X64975002Y-105375000D02*
X64975002Y-103969316D01*
X65880549Y-103172159D02*
X67469454Y-103172159D01*
X67469453Y-106172158D02*
X65880549Y-106172158D01*
X68375000Y-103969316D02*
X68375000Y-105375000D01*
X64925517Y-103752438D02*
G75*
G02*
X64975002Y-103969316I-450505J-216876D01*
G01*
X64925517Y-103752438D02*
G75*
G02*
X65628290Y-103103859I450515J216878D01*
G01*
X64975002Y-105375001D02*
G75*
G02*
X64925517Y-105591878I-499990J-1D01*
G01*
X65628290Y-106240455D02*
G75*
G02*
X64925517Y-105591878I-252258J431700D01*
G01*
X65628291Y-106240457D02*
G75*
G02*
X65880549Y-106172158I252261J-431710D01*
G01*
X65880548Y-103172158D02*
G75*
G02*
X65628290Y-103103859I3J500009D01*
G01*
X67469453Y-106172158D02*
G75*
G02*
X67721712Y-106240457I-3J-500012D01*
G01*
X67721712Y-103103860D02*
G75*
G02*
X67469454Y-103172160I-252262J431710D01*
G01*
X67721712Y-103103860D02*
G75*
G02*
X68424484Y-103752438I252258J-431700D01*
G01*
X68375000Y-103969315D02*
G75*
G02*
X68424479Y-103752435I500000J15D01*
G01*
X68424485Y-105591877D02*
G75*
G02*
X67721712Y-106240457I-450514J-216880D01*
G01*
X68424485Y-105591878D02*
G75*
G02*
X68375000Y-105375000I450515J216878D01*
G01*
%TO.C,D7*%
X64522302Y-86343800D02*
X64522302Y-84938116D01*
X65427849Y-84140959D02*
X67016754Y-84140959D01*
X67016753Y-87140958D02*
X65427849Y-87140958D01*
X67922300Y-84938116D02*
X67922300Y-86343800D01*
X64472817Y-84721238D02*
G75*
G02*
X64522302Y-84938116I-450505J-216876D01*
G01*
X64472817Y-84721238D02*
G75*
G02*
X65175590Y-84072659I450515J216878D01*
G01*
X64522302Y-86343801D02*
G75*
G02*
X64472817Y-86560678I-499990J-1D01*
G01*
X65175590Y-87209255D02*
G75*
G02*
X64472817Y-86560678I-252258J431700D01*
G01*
X65175591Y-87209257D02*
G75*
G02*
X65427849Y-87140958I252261J-431710D01*
G01*
X65427848Y-84140958D02*
G75*
G02*
X65175590Y-84072659I3J500009D01*
G01*
X67016753Y-87140958D02*
G75*
G02*
X67269012Y-87209257I-3J-500012D01*
G01*
X67269012Y-84072660D02*
G75*
G02*
X67016754Y-84140960I-252262J431710D01*
G01*
X67269012Y-84072660D02*
G75*
G02*
X67971784Y-84721238I252258J-431700D01*
G01*
X67922300Y-84938115D02*
G75*
G02*
X67971779Y-84721235I500000J15D01*
G01*
X67971785Y-86560677D02*
G75*
G02*
X67269012Y-87209257I-450514J-216880D01*
G01*
X67971785Y-86560678D02*
G75*
G02*
X67922300Y-86343800I450515J216878D01*
G01*
%TO.C,D12*%
X55668702Y-59484100D02*
X55668702Y-58078416D01*
X56574249Y-57281259D02*
X58163154Y-57281259D01*
X58163153Y-60281258D02*
X56574249Y-60281258D01*
X59068700Y-58078416D02*
X59068700Y-59484100D01*
X55619217Y-57861538D02*
G75*
G02*
X55668702Y-58078416I-450505J-216876D01*
G01*
X55619217Y-57861538D02*
G75*
G02*
X56321990Y-57212959I450515J216878D01*
G01*
X55668702Y-59484101D02*
G75*
G02*
X55619217Y-59700978I-499990J-1D01*
G01*
X56321990Y-60349555D02*
G75*
G02*
X55619217Y-59700978I-252258J431700D01*
G01*
X56321991Y-60349557D02*
G75*
G02*
X56574249Y-60281258I252261J-431710D01*
G01*
X56574248Y-57281258D02*
G75*
G02*
X56321990Y-57212959I3J500009D01*
G01*
X58163153Y-60281258D02*
G75*
G02*
X58415412Y-60349557I-3J-500012D01*
G01*
X58415412Y-57212960D02*
G75*
G02*
X58163154Y-57281260I-252262J431710D01*
G01*
X58415412Y-57212960D02*
G75*
G02*
X59118184Y-57861538I252258J-431700D01*
G01*
X59068700Y-58078415D02*
G75*
G02*
X59118179Y-57861535I500000J15D01*
G01*
X59118185Y-59700977D02*
G75*
G02*
X58415412Y-60349557I-450514J-216880D01*
G01*
X59118185Y-59700978D02*
G75*
G02*
X59068700Y-59484100I450515J216878D01*
G01*
%TO.C,D6*%
X45860002Y-86326200D02*
X45860002Y-84920516D01*
X46765549Y-84123359D02*
X48354454Y-84123359D01*
X48354453Y-87123358D02*
X46765549Y-87123358D01*
X49260000Y-84920516D02*
X49260000Y-86326200D01*
X45810517Y-84703638D02*
G75*
G02*
X45860002Y-84920516I-450505J-216876D01*
G01*
X45810517Y-84703638D02*
G75*
G02*
X46513290Y-84055059I450515J216878D01*
G01*
X45860002Y-86326201D02*
G75*
G02*
X45810517Y-86543078I-499990J-1D01*
G01*
X46513290Y-87191655D02*
G75*
G02*
X45810517Y-86543078I-252258J431700D01*
G01*
X46513291Y-87191657D02*
G75*
G02*
X46765549Y-87123358I252261J-431710D01*
G01*
X46765548Y-84123358D02*
G75*
G02*
X46513290Y-84055059I3J500009D01*
G01*
X48354453Y-87123358D02*
G75*
G02*
X48606712Y-87191657I-3J-500012D01*
G01*
X48606712Y-84055060D02*
G75*
G02*
X48354454Y-84123360I-252262J431710D01*
G01*
X48606712Y-84055060D02*
G75*
G02*
X49309484Y-84703638I252258J-431700D01*
G01*
X49260000Y-84920515D02*
G75*
G02*
X49309479Y-84703635I500000J15D01*
G01*
X49309485Y-86543077D02*
G75*
G02*
X48606712Y-87191657I-450514J-216880D01*
G01*
X49309485Y-86543078D02*
G75*
G02*
X49260000Y-86326200I450515J216878D01*
G01*
%TO.C,D8*%
X45925002Y-67275000D02*
X45925002Y-65869316D01*
X46830549Y-65072159D02*
X48419454Y-65072159D01*
X48419453Y-68072158D02*
X46830549Y-68072158D01*
X49325000Y-65869316D02*
X49325000Y-67275000D01*
X45875517Y-65652438D02*
G75*
G02*
X45925002Y-65869316I-450505J-216876D01*
G01*
X45875517Y-65652438D02*
G75*
G02*
X46578290Y-65003859I450515J216878D01*
G01*
X45925002Y-67275001D02*
G75*
G02*
X45875517Y-67491878I-499990J-1D01*
G01*
X46578290Y-68140455D02*
G75*
G02*
X45875517Y-67491878I-252258J431700D01*
G01*
X46578291Y-68140457D02*
G75*
G02*
X46830549Y-68072158I252261J-431710D01*
G01*
X46830548Y-65072158D02*
G75*
G02*
X46578290Y-65003859I3J500009D01*
G01*
X48419453Y-68072158D02*
G75*
G02*
X48671712Y-68140457I-3J-500012D01*
G01*
X48671712Y-65003860D02*
G75*
G02*
X48419454Y-65072160I-252262J431710D01*
G01*
X48671712Y-65003860D02*
G75*
G02*
X49374484Y-65652438I252258J-431700D01*
G01*
X49325000Y-65869315D02*
G75*
G02*
X49374479Y-65652435I500000J15D01*
G01*
X49374485Y-67491877D02*
G75*
G02*
X48671712Y-68140457I-450514J-216880D01*
G01*
X49374485Y-67491878D02*
G75*
G02*
X49325000Y-67275000I450515J216878D01*
G01*
%TO.C,D9*%
X45925002Y-105375000D02*
X45925002Y-103969316D01*
X46830549Y-103172159D02*
X48419454Y-103172159D01*
X48419453Y-106172158D02*
X46830549Y-106172158D01*
X49325000Y-103969316D02*
X49325000Y-105375000D01*
X45875517Y-103752438D02*
G75*
G02*
X45925002Y-103969316I-450505J-216876D01*
G01*
X45875517Y-103752438D02*
G75*
G02*
X46578290Y-103103859I450515J216878D01*
G01*
X45925002Y-105375001D02*
G75*
G02*
X45875517Y-105591878I-499990J-1D01*
G01*
X46578290Y-106240455D02*
G75*
G02*
X45875517Y-105591878I-252258J431700D01*
G01*
X46578291Y-106240457D02*
G75*
G02*
X46830549Y-106172158I252261J-431710D01*
G01*
X46830548Y-103172158D02*
G75*
G02*
X46578290Y-103103859I3J500009D01*
G01*
X48419453Y-106172158D02*
G75*
G02*
X48671712Y-106240457I-3J-500012D01*
G01*
X48671712Y-103103860D02*
G75*
G02*
X48419454Y-103172160I-252262J431710D01*
G01*
X48671712Y-103103860D02*
G75*
G02*
X49374484Y-103752438I252258J-431700D01*
G01*
X49325000Y-103969315D02*
G75*
G02*
X49374479Y-103752435I500000J15D01*
G01*
X49374485Y-105591877D02*
G75*
G02*
X48671712Y-106240457I-450514J-216880D01*
G01*
X49374485Y-105591878D02*
G75*
G02*
X49325000Y-105375000I450515J216878D01*
G01*
%TD*%
M02*
