M48
; DRILL file {KiCad 9.0.7} date 2026-01-31T12:03:16-0600
; FORMAT={-:-/ absolute / metric / decimal}
; #@! TF.CreationDate,2026-01-31T12:03:16-06:00
; #@! TF.GenerationSoftware,Kicad,Pcbnew,9.0.7
; #@! TF.FileFunction,Plated,1,2,PTH
FMAT,2
METRIC
; #@! TA.AperFunction,Plated,PTH,ViaDrill
T1C0.300
; #@! TA.AperFunction,Plated,PTH,ComponentDrill
T2C0.800
; #@! TA.AperFunction,Plated,PTH,ComponentDrill
T3C1.000
; #@! TA.AperFunction,Plated,PTH,ComponentDrill
T4C1.500
%
G90
G05
T1
X28.38Y-71.741
X33.488Y-87.541
X35.97Y-48.6
X38.478Y-73.415
X42.94Y-52.53
X44.524Y-40.821
X45.319Y-69.706
X46.108Y-38.521
X46.636Y-44.055
X50.76Y-71.99
X51.837Y-84.595
X51.852Y-102.174
X57.151Y-66.918
X57.151Y-84.916
X60.108Y-87.632
X62.431Y-105.357
X62.451Y-65.424
X63.066Y-102.156
X64.138Y-55.133
T2
X29.95Y-45.41
X30.05Y-42.29
X30.07Y-36.44
X30.07Y-39.35
X30.1Y-33.63
X37.57Y-45.41
X37.67Y-42.29
X37.69Y-36.44
X37.69Y-39.35
X37.72Y-33.63
T3
X40.481Y-54.292
X40.481Y-56.832
X40.481Y-59.372
X40.481Y-61.912
X49.525Y-30.162
X49.525Y-32.703
X49.525Y-35.242
X49.525Y-37.782
X49.525Y-40.322
X49.525Y-42.862
X49.525Y-45.402
X64.775Y-30.162
X64.775Y-32.703
X64.775Y-35.242
X64.775Y-37.782
X64.775Y-40.322
X64.775Y-42.862
X64.775Y-45.402
X68.95Y-73.7
X68.95Y-76.2
X68.95Y-78.7
X83.45Y-73.7
X83.45Y-78.7
T4
X34.29Y-73.66
X34.29Y-92.71
X40.64Y-71.12
X40.64Y-90.17
X53.34Y-73.66
X53.34Y-92.71
X59.69Y-71.12
X59.69Y-90.17
X72.39Y-92.71
X78.74Y-90.17
T4
G00X75.8Y-70.6
M15
G01X77.1Y-70.6
M16
G05
G00X75.8Y-81.8
M15
G01X77.1Y-81.8
M16
G05
M30
