%TF.GenerationSoftware,KiCad,Pcbnew,9.0.7*%
%TF.CreationDate,2026-01-31T12:03:09-06:00*%
%TF.ProjectId,PRO,50524f2e-6b69-4636-9164-5f7063625858,rev?*%
%TF.SameCoordinates,Original*%
%TF.FileFunction,Legend,Top*%
%TF.FilePolarity,Positive*%
%FSLAX46Y46*%
G04 Gerber Fmt 4.6, Leading zero omitted, Abs format (unit mm)*
G04 Created by KiCad (PCBNEW 9.0.7) date 2026-01-31 12:03:09*
%MOMM*%
%LPD*%
G01*
G04 APERTURE LIST*
%ADD10C,0.200000*%
%ADD11C,0.150000*%
%ADD12C,0.120000*%
G04 APERTURE END LIST*
D10*
X32723214Y-54502219D02*
X32723214Y-53502219D01*
X32723214Y-53502219D02*
X32961309Y-53502219D01*
X32961309Y-53502219D02*
X33104166Y-53549838D01*
X33104166Y-53549838D02*
X33199404Y-53645076D01*
X33199404Y-53645076D02*
X33247023Y-53740314D01*
X33247023Y-53740314D02*
X33294642Y-53930790D01*
X33294642Y-53930790D02*
X33294642Y-54073647D01*
X33294642Y-54073647D02*
X33247023Y-54264123D01*
X33247023Y-54264123D02*
X33199404Y-54359361D01*
X33199404Y-54359361D02*
X33104166Y-54454600D01*
X33104166Y-54454600D02*
X32961309Y-54502219D01*
X32961309Y-54502219D02*
X32723214Y-54502219D01*
X34247023Y-54502219D02*
X33675595Y-54502219D01*
X33961309Y-54502219D02*
X33961309Y-53502219D01*
X33961309Y-53502219D02*
X33866071Y-53645076D01*
X33866071Y-53645076D02*
X33770833Y-53740314D01*
X33770833Y-53740314D02*
X33675595Y-53787933D01*
X35104166Y-53502219D02*
X34913690Y-53502219D01*
X34913690Y-53502219D02*
X34818452Y-53549838D01*
X34818452Y-53549838D02*
X34770833Y-53597457D01*
X34770833Y-53597457D02*
X34675595Y-53740314D01*
X34675595Y-53740314D02*
X34627976Y-53930790D01*
X34627976Y-53930790D02*
X34627976Y-54311742D01*
X34627976Y-54311742D02*
X34675595Y-54406980D01*
X34675595Y-54406980D02*
X34723214Y-54454600D01*
X34723214Y-54454600D02*
X34818452Y-54502219D01*
X34818452Y-54502219D02*
X35008928Y-54502219D01*
X35008928Y-54502219D02*
X35104166Y-54454600D01*
X35104166Y-54454600D02*
X35151785Y-54406980D01*
X35151785Y-54406980D02*
X35199404Y-54311742D01*
X35199404Y-54311742D02*
X35199404Y-54073647D01*
X35199404Y-54073647D02*
X35151785Y-53978409D01*
X35151785Y-53978409D02*
X35104166Y-53930790D01*
X35104166Y-53930790D02*
X35008928Y-53883171D01*
X35008928Y-53883171D02*
X34818452Y-53883171D01*
X34818452Y-53883171D02*
X34723214Y-53930790D01*
X34723214Y-53930790D02*
X34675595Y-53978409D01*
X34675595Y-53978409D02*
X34627976Y-54073647D01*
X65625714Y-101582219D02*
X65625714Y-100582219D01*
X65625714Y-100582219D02*
X65863809Y-100582219D01*
X65863809Y-100582219D02*
X66006666Y-100629838D01*
X66006666Y-100629838D02*
X66101904Y-100725076D01*
X66101904Y-100725076D02*
X66149523Y-100820314D01*
X66149523Y-100820314D02*
X66197142Y-101010790D01*
X66197142Y-101010790D02*
X66197142Y-101153647D01*
X66197142Y-101153647D02*
X66149523Y-101344123D01*
X66149523Y-101344123D02*
X66101904Y-101439361D01*
X66101904Y-101439361D02*
X66006666Y-101534600D01*
X66006666Y-101534600D02*
X65863809Y-101582219D01*
X65863809Y-101582219D02*
X65625714Y-101582219D01*
X67149523Y-101582219D02*
X66578095Y-101582219D01*
X66863809Y-101582219D02*
X66863809Y-100582219D01*
X66863809Y-100582219D02*
X66768571Y-100725076D01*
X66768571Y-100725076D02*
X66673333Y-100820314D01*
X66673333Y-100820314D02*
X66578095Y-100867933D01*
X67768571Y-100582219D02*
X67863809Y-100582219D01*
X67863809Y-100582219D02*
X67959047Y-100629838D01*
X67959047Y-100629838D02*
X68006666Y-100677457D01*
X68006666Y-100677457D02*
X68054285Y-100772695D01*
X68054285Y-100772695D02*
X68101904Y-100963171D01*
X68101904Y-100963171D02*
X68101904Y-101201266D01*
X68101904Y-101201266D02*
X68054285Y-101391742D01*
X68054285Y-101391742D02*
X68006666Y-101486980D01*
X68006666Y-101486980D02*
X67959047Y-101534600D01*
X67959047Y-101534600D02*
X67863809Y-101582219D01*
X67863809Y-101582219D02*
X67768571Y-101582219D01*
X67768571Y-101582219D02*
X67673333Y-101534600D01*
X67673333Y-101534600D02*
X67625714Y-101486980D01*
X67625714Y-101486980D02*
X67578095Y-101391742D01*
X67578095Y-101391742D02*
X67530476Y-101201266D01*
X67530476Y-101201266D02*
X67530476Y-100963171D01*
X67530476Y-100963171D02*
X67578095Y-100772695D01*
X67578095Y-100772695D02*
X67625714Y-100677457D01*
X67625714Y-100677457D02*
X67673333Y-100629838D01*
X67673333Y-100629838D02*
X67768571Y-100582219D01*
D11*
X71130952Y-69454819D02*
X70797619Y-68978628D01*
X70559524Y-69454819D02*
X70559524Y-68454819D01*
X70559524Y-68454819D02*
X70940476Y-68454819D01*
X70940476Y-68454819D02*
X71035714Y-68502438D01*
X71035714Y-68502438D02*
X71083333Y-68550057D01*
X71083333Y-68550057D02*
X71130952Y-68645295D01*
X71130952Y-68645295D02*
X71130952Y-68788152D01*
X71130952Y-68788152D02*
X71083333Y-68883390D01*
X71083333Y-68883390D02*
X71035714Y-68931009D01*
X71035714Y-68931009D02*
X70940476Y-68978628D01*
X70940476Y-68978628D02*
X70559524Y-68978628D01*
X71559524Y-68931009D02*
X71892857Y-68931009D01*
X72035714Y-69454819D02*
X71559524Y-69454819D01*
X71559524Y-69454819D02*
X71559524Y-68454819D01*
X71559524Y-68454819D02*
X72035714Y-68454819D01*
X72988095Y-69454819D02*
X72416667Y-69454819D01*
X72702381Y-69454819D02*
X72702381Y-68454819D01*
X72702381Y-68454819D02*
X72607143Y-68597676D01*
X72607143Y-68597676D02*
X72511905Y-68692914D01*
X72511905Y-68692914D02*
X72416667Y-68740533D01*
D10*
X74136919Y-39695485D02*
X73136919Y-39695485D01*
X73136919Y-39695485D02*
X73136919Y-39457390D01*
X73136919Y-39457390D02*
X73184538Y-39314533D01*
X73184538Y-39314533D02*
X73279776Y-39219295D01*
X73279776Y-39219295D02*
X73375014Y-39171676D01*
X73375014Y-39171676D02*
X73565490Y-39124057D01*
X73565490Y-39124057D02*
X73708347Y-39124057D01*
X73708347Y-39124057D02*
X73898823Y-39171676D01*
X73898823Y-39171676D02*
X73994061Y-39219295D01*
X73994061Y-39219295D02*
X74089300Y-39314533D01*
X74089300Y-39314533D02*
X74136919Y-39457390D01*
X74136919Y-39457390D02*
X74136919Y-39695485D01*
X74136919Y-38171676D02*
X74136919Y-38743104D01*
X74136919Y-38457390D02*
X73136919Y-38457390D01*
X73136919Y-38457390D02*
X73279776Y-38552628D01*
X73279776Y-38552628D02*
X73375014Y-38647866D01*
X73375014Y-38647866D02*
X73422633Y-38743104D01*
X73136919Y-37838342D02*
X73136919Y-37219295D01*
X73136919Y-37219295D02*
X73517871Y-37552628D01*
X73517871Y-37552628D02*
X73517871Y-37409771D01*
X73517871Y-37409771D02*
X73565490Y-37314533D01*
X73565490Y-37314533D02*
X73613109Y-37266914D01*
X73613109Y-37266914D02*
X73708347Y-37219295D01*
X73708347Y-37219295D02*
X73946442Y-37219295D01*
X73946442Y-37219295D02*
X74041680Y-37266914D01*
X74041680Y-37266914D02*
X74089300Y-37314533D01*
X74089300Y-37314533D02*
X74136919Y-37409771D01*
X74136919Y-37409771D02*
X74136919Y-37695485D01*
X74136919Y-37695485D02*
X74089300Y-37790723D01*
X74089300Y-37790723D02*
X74041680Y-37838342D01*
X39995919Y-38714285D02*
X38995919Y-38714285D01*
X38995919Y-38714285D02*
X38995919Y-38476190D01*
X38995919Y-38476190D02*
X39043538Y-38333333D01*
X39043538Y-38333333D02*
X39138776Y-38238095D01*
X39138776Y-38238095D02*
X39234014Y-38190476D01*
X39234014Y-38190476D02*
X39424490Y-38142857D01*
X39424490Y-38142857D02*
X39567347Y-38142857D01*
X39567347Y-38142857D02*
X39757823Y-38190476D01*
X39757823Y-38190476D02*
X39853061Y-38238095D01*
X39853061Y-38238095D02*
X39948300Y-38333333D01*
X39948300Y-38333333D02*
X39995919Y-38476190D01*
X39995919Y-38476190D02*
X39995919Y-38714285D01*
X39995919Y-37190476D02*
X39995919Y-37761904D01*
X39995919Y-37476190D02*
X38995919Y-37476190D01*
X38995919Y-37476190D02*
X39138776Y-37571428D01*
X39138776Y-37571428D02*
X39234014Y-37666666D01*
X39234014Y-37666666D02*
X39281633Y-37761904D01*
X39329252Y-36333333D02*
X39995919Y-36333333D01*
X38948300Y-36571428D02*
X39662585Y-36809523D01*
X39662585Y-36809523D02*
X39662585Y-36190476D01*
D11*
X55816667Y-68733200D02*
X55959524Y-68780819D01*
X55959524Y-68780819D02*
X56197619Y-68780819D01*
X56197619Y-68780819D02*
X56292857Y-68733200D01*
X56292857Y-68733200D02*
X56340476Y-68685580D01*
X56340476Y-68685580D02*
X56388095Y-68590342D01*
X56388095Y-68590342D02*
X56388095Y-68495104D01*
X56388095Y-68495104D02*
X56340476Y-68399866D01*
X56340476Y-68399866D02*
X56292857Y-68352247D01*
X56292857Y-68352247D02*
X56197619Y-68304628D01*
X56197619Y-68304628D02*
X56007143Y-68257009D01*
X56007143Y-68257009D02*
X55911905Y-68209390D01*
X55911905Y-68209390D02*
X55864286Y-68161771D01*
X55864286Y-68161771D02*
X55816667Y-68066533D01*
X55816667Y-68066533D02*
X55816667Y-67971295D01*
X55816667Y-67971295D02*
X55864286Y-67876057D01*
X55864286Y-67876057D02*
X55911905Y-67828438D01*
X55911905Y-67828438D02*
X56007143Y-67780819D01*
X56007143Y-67780819D02*
X56245238Y-67780819D01*
X56245238Y-67780819D02*
X56388095Y-67828438D01*
X56721429Y-67780819D02*
X56959524Y-68780819D01*
X56959524Y-68780819D02*
X57150000Y-68066533D01*
X57150000Y-68066533D02*
X57340476Y-68780819D01*
X57340476Y-68780819D02*
X57578572Y-67780819D01*
X57911905Y-67876057D02*
X57959524Y-67828438D01*
X57959524Y-67828438D02*
X58054762Y-67780819D01*
X58054762Y-67780819D02*
X58292857Y-67780819D01*
X58292857Y-67780819D02*
X58388095Y-67828438D01*
X58388095Y-67828438D02*
X58435714Y-67876057D01*
X58435714Y-67876057D02*
X58483333Y-67971295D01*
X58483333Y-67971295D02*
X58483333Y-68066533D01*
X58483333Y-68066533D02*
X58435714Y-68209390D01*
X58435714Y-68209390D02*
X57864286Y-68780819D01*
X57864286Y-68780819D02*
X58483333Y-68780819D01*
X36766667Y-87783200D02*
X36909524Y-87830819D01*
X36909524Y-87830819D02*
X37147619Y-87830819D01*
X37147619Y-87830819D02*
X37242857Y-87783200D01*
X37242857Y-87783200D02*
X37290476Y-87735580D01*
X37290476Y-87735580D02*
X37338095Y-87640342D01*
X37338095Y-87640342D02*
X37338095Y-87545104D01*
X37338095Y-87545104D02*
X37290476Y-87449866D01*
X37290476Y-87449866D02*
X37242857Y-87402247D01*
X37242857Y-87402247D02*
X37147619Y-87354628D01*
X37147619Y-87354628D02*
X36957143Y-87307009D01*
X36957143Y-87307009D02*
X36861905Y-87259390D01*
X36861905Y-87259390D02*
X36814286Y-87211771D01*
X36814286Y-87211771D02*
X36766667Y-87116533D01*
X36766667Y-87116533D02*
X36766667Y-87021295D01*
X36766667Y-87021295D02*
X36814286Y-86926057D01*
X36814286Y-86926057D02*
X36861905Y-86878438D01*
X36861905Y-86878438D02*
X36957143Y-86830819D01*
X36957143Y-86830819D02*
X37195238Y-86830819D01*
X37195238Y-86830819D02*
X37338095Y-86878438D01*
X37671429Y-86830819D02*
X37909524Y-87830819D01*
X37909524Y-87830819D02*
X38100000Y-87116533D01*
X38100000Y-87116533D02*
X38290476Y-87830819D01*
X38290476Y-87830819D02*
X38528572Y-86830819D01*
X38814286Y-86830819D02*
X39433333Y-86830819D01*
X39433333Y-86830819D02*
X39100000Y-87211771D01*
X39100000Y-87211771D02*
X39242857Y-87211771D01*
X39242857Y-87211771D02*
X39338095Y-87259390D01*
X39338095Y-87259390D02*
X39385714Y-87307009D01*
X39385714Y-87307009D02*
X39433333Y-87402247D01*
X39433333Y-87402247D02*
X39433333Y-87640342D01*
X39433333Y-87640342D02*
X39385714Y-87735580D01*
X39385714Y-87735580D02*
X39338095Y-87783200D01*
X39338095Y-87783200D02*
X39242857Y-87830819D01*
X39242857Y-87830819D02*
X38957143Y-87830819D01*
X38957143Y-87830819D02*
X38861905Y-87783200D01*
X38861905Y-87783200D02*
X38814286Y-87735580D01*
D10*
X66060714Y-64027219D02*
X66060714Y-63027219D01*
X66060714Y-63027219D02*
X66298809Y-63027219D01*
X66298809Y-63027219D02*
X66441666Y-63074838D01*
X66441666Y-63074838D02*
X66536904Y-63170076D01*
X66536904Y-63170076D02*
X66584523Y-63265314D01*
X66584523Y-63265314D02*
X66632142Y-63455790D01*
X66632142Y-63455790D02*
X66632142Y-63598647D01*
X66632142Y-63598647D02*
X66584523Y-63789123D01*
X66584523Y-63789123D02*
X66536904Y-63884361D01*
X66536904Y-63884361D02*
X66441666Y-63979600D01*
X66441666Y-63979600D02*
X66298809Y-64027219D01*
X66298809Y-64027219D02*
X66060714Y-64027219D01*
X67584523Y-64027219D02*
X67013095Y-64027219D01*
X67298809Y-64027219D02*
X67298809Y-63027219D01*
X67298809Y-63027219D02*
X67203571Y-63170076D01*
X67203571Y-63170076D02*
X67108333Y-63265314D01*
X67108333Y-63265314D02*
X67013095Y-63312933D01*
X68536904Y-64027219D02*
X67965476Y-64027219D01*
X68251190Y-64027219D02*
X68251190Y-63027219D01*
X68251190Y-63027219D02*
X68155952Y-63170076D01*
X68155952Y-63170076D02*
X68060714Y-63265314D01*
X68060714Y-63265314D02*
X67965476Y-63312933D01*
D11*
X74866667Y-87783200D02*
X75009524Y-87830819D01*
X75009524Y-87830819D02*
X75247619Y-87830819D01*
X75247619Y-87830819D02*
X75342857Y-87783200D01*
X75342857Y-87783200D02*
X75390476Y-87735580D01*
X75390476Y-87735580D02*
X75438095Y-87640342D01*
X75438095Y-87640342D02*
X75438095Y-87545104D01*
X75438095Y-87545104D02*
X75390476Y-87449866D01*
X75390476Y-87449866D02*
X75342857Y-87402247D01*
X75342857Y-87402247D02*
X75247619Y-87354628D01*
X75247619Y-87354628D02*
X75057143Y-87307009D01*
X75057143Y-87307009D02*
X74961905Y-87259390D01*
X74961905Y-87259390D02*
X74914286Y-87211771D01*
X74914286Y-87211771D02*
X74866667Y-87116533D01*
X74866667Y-87116533D02*
X74866667Y-87021295D01*
X74866667Y-87021295D02*
X74914286Y-86926057D01*
X74914286Y-86926057D02*
X74961905Y-86878438D01*
X74961905Y-86878438D02*
X75057143Y-86830819D01*
X75057143Y-86830819D02*
X75295238Y-86830819D01*
X75295238Y-86830819D02*
X75438095Y-86878438D01*
X75771429Y-86830819D02*
X76009524Y-87830819D01*
X76009524Y-87830819D02*
X76200000Y-87116533D01*
X76200000Y-87116533D02*
X76390476Y-87830819D01*
X76390476Y-87830819D02*
X76628572Y-86830819D01*
X77485714Y-86830819D02*
X77009524Y-86830819D01*
X77009524Y-86830819D02*
X76961905Y-87307009D01*
X76961905Y-87307009D02*
X77009524Y-87259390D01*
X77009524Y-87259390D02*
X77104762Y-87211771D01*
X77104762Y-87211771D02*
X77342857Y-87211771D01*
X77342857Y-87211771D02*
X77438095Y-87259390D01*
X77438095Y-87259390D02*
X77485714Y-87307009D01*
X77485714Y-87307009D02*
X77533333Y-87402247D01*
X77533333Y-87402247D02*
X77533333Y-87640342D01*
X77533333Y-87640342D02*
X77485714Y-87735580D01*
X77485714Y-87735580D02*
X77438095Y-87783200D01*
X77438095Y-87783200D02*
X77342857Y-87830819D01*
X77342857Y-87830819D02*
X77104762Y-87830819D01*
X77104762Y-87830819D02*
X77009524Y-87783200D01*
X77009524Y-87783200D02*
X76961905Y-87735580D01*
X55816667Y-87783200D02*
X55959524Y-87830819D01*
X55959524Y-87830819D02*
X56197619Y-87830819D01*
X56197619Y-87830819D02*
X56292857Y-87783200D01*
X56292857Y-87783200D02*
X56340476Y-87735580D01*
X56340476Y-87735580D02*
X56388095Y-87640342D01*
X56388095Y-87640342D02*
X56388095Y-87545104D01*
X56388095Y-87545104D02*
X56340476Y-87449866D01*
X56340476Y-87449866D02*
X56292857Y-87402247D01*
X56292857Y-87402247D02*
X56197619Y-87354628D01*
X56197619Y-87354628D02*
X56007143Y-87307009D01*
X56007143Y-87307009D02*
X55911905Y-87259390D01*
X55911905Y-87259390D02*
X55864286Y-87211771D01*
X55864286Y-87211771D02*
X55816667Y-87116533D01*
X55816667Y-87116533D02*
X55816667Y-87021295D01*
X55816667Y-87021295D02*
X55864286Y-86926057D01*
X55864286Y-86926057D02*
X55911905Y-86878438D01*
X55911905Y-86878438D02*
X56007143Y-86830819D01*
X56007143Y-86830819D02*
X56245238Y-86830819D01*
X56245238Y-86830819D02*
X56388095Y-86878438D01*
X56721429Y-86830819D02*
X56959524Y-87830819D01*
X56959524Y-87830819D02*
X57150000Y-87116533D01*
X57150000Y-87116533D02*
X57340476Y-87830819D01*
X57340476Y-87830819D02*
X57578572Y-86830819D01*
X58388095Y-87164152D02*
X58388095Y-87830819D01*
X58150000Y-86783200D02*
X57911905Y-87497485D01*
X57911905Y-87497485D02*
X58530952Y-87497485D01*
X36242857Y-68733200D02*
X36385714Y-68780819D01*
X36385714Y-68780819D02*
X36623809Y-68780819D01*
X36623809Y-68780819D02*
X36719047Y-68733200D01*
X36719047Y-68733200D02*
X36766666Y-68685580D01*
X36766666Y-68685580D02*
X36814285Y-68590342D01*
X36814285Y-68590342D02*
X36814285Y-68495104D01*
X36814285Y-68495104D02*
X36766666Y-68399866D01*
X36766666Y-68399866D02*
X36719047Y-68352247D01*
X36719047Y-68352247D02*
X36623809Y-68304628D01*
X36623809Y-68304628D02*
X36433333Y-68257009D01*
X36433333Y-68257009D02*
X36338095Y-68209390D01*
X36338095Y-68209390D02*
X36290476Y-68161771D01*
X36290476Y-68161771D02*
X36242857Y-68066533D01*
X36242857Y-68066533D02*
X36242857Y-67971295D01*
X36242857Y-67971295D02*
X36290476Y-67876057D01*
X36290476Y-67876057D02*
X36338095Y-67828438D01*
X36338095Y-67828438D02*
X36433333Y-67780819D01*
X36433333Y-67780819D02*
X36671428Y-67780819D01*
X36671428Y-67780819D02*
X36814285Y-67828438D01*
X37147619Y-67780819D02*
X37385714Y-68780819D01*
X37385714Y-68780819D02*
X37576190Y-68066533D01*
X37576190Y-68066533D02*
X37766666Y-68780819D01*
X37766666Y-68780819D02*
X38004762Y-67780819D01*
X38290476Y-68114152D02*
X38480952Y-68780819D01*
X38480952Y-68780819D02*
X38671428Y-68304628D01*
X38671428Y-68304628D02*
X38861904Y-68780819D01*
X38861904Y-68780819D02*
X39052380Y-68114152D01*
X39957142Y-68780819D02*
X39385714Y-68780819D01*
X39671428Y-68780819D02*
X39671428Y-67780819D01*
X39671428Y-67780819D02*
X39576190Y-67923676D01*
X39576190Y-67923676D02*
X39480952Y-68018914D01*
X39480952Y-68018914D02*
X39385714Y-68066533D01*
X39719395Y-51367319D02*
X39719395Y-52176842D01*
X39719395Y-52176842D02*
X39767014Y-52272080D01*
X39767014Y-52272080D02*
X39814633Y-52319700D01*
X39814633Y-52319700D02*
X39909871Y-52367319D01*
X39909871Y-52367319D02*
X40100347Y-52367319D01*
X40100347Y-52367319D02*
X40195585Y-52319700D01*
X40195585Y-52319700D02*
X40243204Y-52272080D01*
X40243204Y-52272080D02*
X40290823Y-52176842D01*
X40290823Y-52176842D02*
X40290823Y-51367319D01*
X40719395Y-51462557D02*
X40767014Y-51414938D01*
X40767014Y-51414938D02*
X40862252Y-51367319D01*
X40862252Y-51367319D02*
X41100347Y-51367319D01*
X41100347Y-51367319D02*
X41195585Y-51414938D01*
X41195585Y-51414938D02*
X41243204Y-51462557D01*
X41243204Y-51462557D02*
X41290823Y-51557795D01*
X41290823Y-51557795D02*
X41290823Y-51653033D01*
X41290823Y-51653033D02*
X41243204Y-51795890D01*
X41243204Y-51795890D02*
X40671776Y-52367319D01*
X40671776Y-52367319D02*
X41290823Y-52367319D01*
D10*
X56754414Y-56236319D02*
X56754414Y-55236319D01*
X56754414Y-55236319D02*
X56992509Y-55236319D01*
X56992509Y-55236319D02*
X57135366Y-55283938D01*
X57135366Y-55283938D02*
X57230604Y-55379176D01*
X57230604Y-55379176D02*
X57278223Y-55474414D01*
X57278223Y-55474414D02*
X57325842Y-55664890D01*
X57325842Y-55664890D02*
X57325842Y-55807747D01*
X57325842Y-55807747D02*
X57278223Y-55998223D01*
X57278223Y-55998223D02*
X57230604Y-56093461D01*
X57230604Y-56093461D02*
X57135366Y-56188700D01*
X57135366Y-56188700D02*
X56992509Y-56236319D01*
X56992509Y-56236319D02*
X56754414Y-56236319D01*
X58278223Y-56236319D02*
X57706795Y-56236319D01*
X57992509Y-56236319D02*
X57992509Y-55236319D01*
X57992509Y-55236319D02*
X57897271Y-55379176D01*
X57897271Y-55379176D02*
X57802033Y-55474414D01*
X57802033Y-55474414D02*
X57706795Y-55522033D01*
X58659176Y-55331557D02*
X58706795Y-55283938D01*
X58706795Y-55283938D02*
X58802033Y-55236319D01*
X58802033Y-55236319D02*
X59040128Y-55236319D01*
X59040128Y-55236319D02*
X59135366Y-55283938D01*
X59135366Y-55283938D02*
X59182985Y-55331557D01*
X59182985Y-55331557D02*
X59230604Y-55426795D01*
X59230604Y-55426795D02*
X59230604Y-55522033D01*
X59230604Y-55522033D02*
X59182985Y-55664890D01*
X59182985Y-55664890D02*
X58611557Y-56236319D01*
X58611557Y-56236319D02*
X59230604Y-56236319D01*
D11*
X33171905Y-31964819D02*
X33171905Y-30964819D01*
X33171905Y-30964819D02*
X33410000Y-30964819D01*
X33410000Y-30964819D02*
X33552857Y-31012438D01*
X33552857Y-31012438D02*
X33648095Y-31107676D01*
X33648095Y-31107676D02*
X33695714Y-31202914D01*
X33695714Y-31202914D02*
X33743333Y-31393390D01*
X33743333Y-31393390D02*
X33743333Y-31536247D01*
X33743333Y-31536247D02*
X33695714Y-31726723D01*
X33695714Y-31726723D02*
X33648095Y-31821961D01*
X33648095Y-31821961D02*
X33552857Y-31917200D01*
X33552857Y-31917200D02*
X33410000Y-31964819D01*
X33410000Y-31964819D02*
X33171905Y-31964819D01*
X34695714Y-31964819D02*
X34124286Y-31964819D01*
X34410000Y-31964819D02*
X34410000Y-30964819D01*
X34410000Y-30964819D02*
X34314762Y-31107676D01*
X34314762Y-31107676D02*
X34219524Y-31202914D01*
X34219524Y-31202914D02*
X34124286Y-31250533D01*
X29838095Y-32284819D02*
X29838095Y-31284819D01*
X30409523Y-32284819D02*
X29980952Y-31713390D01*
X30409523Y-31284819D02*
X29838095Y-31856247D01*
D10*
X47421905Y-83078419D02*
X47421905Y-82078419D01*
X47421905Y-82078419D02*
X47660000Y-82078419D01*
X47660000Y-82078419D02*
X47802857Y-82126038D01*
X47802857Y-82126038D02*
X47898095Y-82221276D01*
X47898095Y-82221276D02*
X47945714Y-82316514D01*
X47945714Y-82316514D02*
X47993333Y-82506990D01*
X47993333Y-82506990D02*
X47993333Y-82649847D01*
X47993333Y-82649847D02*
X47945714Y-82840323D01*
X47945714Y-82840323D02*
X47898095Y-82935561D01*
X47898095Y-82935561D02*
X47802857Y-83030800D01*
X47802857Y-83030800D02*
X47660000Y-83078419D01*
X47660000Y-83078419D02*
X47421905Y-83078419D01*
X48850476Y-82078419D02*
X48660000Y-82078419D01*
X48660000Y-82078419D02*
X48564762Y-82126038D01*
X48564762Y-82126038D02*
X48517143Y-82173657D01*
X48517143Y-82173657D02*
X48421905Y-82316514D01*
X48421905Y-82316514D02*
X48374286Y-82506990D01*
X48374286Y-82506990D02*
X48374286Y-82887942D01*
X48374286Y-82887942D02*
X48421905Y-82983180D01*
X48421905Y-82983180D02*
X48469524Y-83030800D01*
X48469524Y-83030800D02*
X48564762Y-83078419D01*
X48564762Y-83078419D02*
X48755238Y-83078419D01*
X48755238Y-83078419D02*
X48850476Y-83030800D01*
X48850476Y-83030800D02*
X48898095Y-82983180D01*
X48898095Y-82983180D02*
X48945714Y-82887942D01*
X48945714Y-82887942D02*
X48945714Y-82649847D01*
X48945714Y-82649847D02*
X48898095Y-82554609D01*
X48898095Y-82554609D02*
X48850476Y-82506990D01*
X48850476Y-82506990D02*
X48755238Y-82459371D01*
X48755238Y-82459371D02*
X48564762Y-82459371D01*
X48564762Y-82459371D02*
X48469524Y-82506990D01*
X48469524Y-82506990D02*
X48421905Y-82554609D01*
X48421905Y-82554609D02*
X48374286Y-82649847D01*
X47486905Y-64027219D02*
X47486905Y-63027219D01*
X47486905Y-63027219D02*
X47725000Y-63027219D01*
X47725000Y-63027219D02*
X47867857Y-63074838D01*
X47867857Y-63074838D02*
X47963095Y-63170076D01*
X47963095Y-63170076D02*
X48010714Y-63265314D01*
X48010714Y-63265314D02*
X48058333Y-63455790D01*
X48058333Y-63455790D02*
X48058333Y-63598647D01*
X48058333Y-63598647D02*
X48010714Y-63789123D01*
X48010714Y-63789123D02*
X47963095Y-63884361D01*
X47963095Y-63884361D02*
X47867857Y-63979600D01*
X47867857Y-63979600D02*
X47725000Y-64027219D01*
X47725000Y-64027219D02*
X47486905Y-64027219D01*
X48629762Y-63455790D02*
X48534524Y-63408171D01*
X48534524Y-63408171D02*
X48486905Y-63360552D01*
X48486905Y-63360552D02*
X48439286Y-63265314D01*
X48439286Y-63265314D02*
X48439286Y-63217695D01*
X48439286Y-63217695D02*
X48486905Y-63122457D01*
X48486905Y-63122457D02*
X48534524Y-63074838D01*
X48534524Y-63074838D02*
X48629762Y-63027219D01*
X48629762Y-63027219D02*
X48820238Y-63027219D01*
X48820238Y-63027219D02*
X48915476Y-63074838D01*
X48915476Y-63074838D02*
X48963095Y-63122457D01*
X48963095Y-63122457D02*
X49010714Y-63217695D01*
X49010714Y-63217695D02*
X49010714Y-63265314D01*
X49010714Y-63265314D02*
X48963095Y-63360552D01*
X48963095Y-63360552D02*
X48915476Y-63408171D01*
X48915476Y-63408171D02*
X48820238Y-63455790D01*
X48820238Y-63455790D02*
X48629762Y-63455790D01*
X48629762Y-63455790D02*
X48534524Y-63503409D01*
X48534524Y-63503409D02*
X48486905Y-63551028D01*
X48486905Y-63551028D02*
X48439286Y-63646266D01*
X48439286Y-63646266D02*
X48439286Y-63836742D01*
X48439286Y-63836742D02*
X48486905Y-63931980D01*
X48486905Y-63931980D02*
X48534524Y-63979600D01*
X48534524Y-63979600D02*
X48629762Y-64027219D01*
X48629762Y-64027219D02*
X48820238Y-64027219D01*
X48820238Y-64027219D02*
X48915476Y-63979600D01*
X48915476Y-63979600D02*
X48963095Y-63931980D01*
X48963095Y-63931980D02*
X49010714Y-63836742D01*
X49010714Y-63836742D02*
X49010714Y-63646266D01*
X49010714Y-63646266D02*
X48963095Y-63551028D01*
X48963095Y-63551028D02*
X48915476Y-63503409D01*
X48915476Y-63503409D02*
X48820238Y-63455790D01*
X46871905Y-102212219D02*
X46871905Y-101212219D01*
X46871905Y-101212219D02*
X47110000Y-101212219D01*
X47110000Y-101212219D02*
X47252857Y-101259838D01*
X47252857Y-101259838D02*
X47348095Y-101355076D01*
X47348095Y-101355076D02*
X47395714Y-101450314D01*
X47395714Y-101450314D02*
X47443333Y-101640790D01*
X47443333Y-101640790D02*
X47443333Y-101783647D01*
X47443333Y-101783647D02*
X47395714Y-101974123D01*
X47395714Y-101974123D02*
X47348095Y-102069361D01*
X47348095Y-102069361D02*
X47252857Y-102164600D01*
X47252857Y-102164600D02*
X47110000Y-102212219D01*
X47110000Y-102212219D02*
X46871905Y-102212219D01*
X47919524Y-102212219D02*
X48110000Y-102212219D01*
X48110000Y-102212219D02*
X48205238Y-102164600D01*
X48205238Y-102164600D02*
X48252857Y-102116980D01*
X48252857Y-102116980D02*
X48348095Y-101974123D01*
X48348095Y-101974123D02*
X48395714Y-101783647D01*
X48395714Y-101783647D02*
X48395714Y-101402695D01*
X48395714Y-101402695D02*
X48348095Y-101307457D01*
X48348095Y-101307457D02*
X48300476Y-101259838D01*
X48300476Y-101259838D02*
X48205238Y-101212219D01*
X48205238Y-101212219D02*
X48014762Y-101212219D01*
X48014762Y-101212219D02*
X47919524Y-101259838D01*
X47919524Y-101259838D02*
X47871905Y-101307457D01*
X47871905Y-101307457D02*
X47824286Y-101402695D01*
X47824286Y-101402695D02*
X47824286Y-101640790D01*
X47824286Y-101640790D02*
X47871905Y-101736028D01*
X47871905Y-101736028D02*
X47919524Y-101783647D01*
X47919524Y-101783647D02*
X48014762Y-101831266D01*
X48014762Y-101831266D02*
X48205238Y-101831266D01*
X48205238Y-101831266D02*
X48300476Y-101783647D01*
X48300476Y-101783647D02*
X48348095Y-101736028D01*
X48348095Y-101736028D02*
X48395714Y-101640790D01*
X66084205Y-83096019D02*
X66084205Y-82096019D01*
X66084205Y-82096019D02*
X66322300Y-82096019D01*
X66322300Y-82096019D02*
X66465157Y-82143638D01*
X66465157Y-82143638D02*
X66560395Y-82238876D01*
X66560395Y-82238876D02*
X66608014Y-82334114D01*
X66608014Y-82334114D02*
X66655633Y-82524590D01*
X66655633Y-82524590D02*
X66655633Y-82667447D01*
X66655633Y-82667447D02*
X66608014Y-82857923D01*
X66608014Y-82857923D02*
X66560395Y-82953161D01*
X66560395Y-82953161D02*
X66465157Y-83048400D01*
X66465157Y-83048400D02*
X66322300Y-83096019D01*
X66322300Y-83096019D02*
X66084205Y-83096019D01*
X66988967Y-82096019D02*
X67655633Y-82096019D01*
X67655633Y-82096019D02*
X67227062Y-83096019D01*
D12*
%TO.C,RE1*%
X68650000Y-72100000D02*
X69250000Y-72100000D01*
X68950000Y-72400000D02*
X68650000Y-72100000D01*
X69250000Y-72100000D02*
X68950000Y-72400000D01*
X70350000Y-70300000D02*
X70350000Y-82100000D01*
X74450000Y-70300000D02*
X70350000Y-70300000D01*
X74450000Y-82100000D02*
X70350000Y-82100000D01*
X75950000Y-76200000D02*
X76950000Y-76200000D01*
X76450000Y-75700000D02*
X76450000Y-76700000D01*
X78450000Y-70300000D02*
X82550000Y-70300000D01*
X82550000Y-70300000D02*
X82550000Y-72700000D01*
X82550000Y-74900000D02*
X82550000Y-77500000D01*
X82550000Y-79700000D02*
X82550000Y-82100000D01*
X82550000Y-82100000D02*
X78450000Y-82100000D01*
X79450000Y-76200000D02*
G75*
G02*
X73450000Y-76200000I-3000000J0D01*
G01*
X73450000Y-76200000D02*
G75*
G02*
X79450000Y-76200000I3000000J0D01*
G01*
%TO.C,D17*%
X33358800Y-47593700D02*
X33358800Y-49593700D01*
X33358800Y-47593700D02*
X37368800Y-47593700D01*
X33358800Y-49593700D02*
X37368800Y-49593700D01*
%TO.C,SW2*%
X50165000Y-69215000D02*
X64135000Y-69215000D01*
X50165000Y-83185000D02*
X50165000Y-69215000D01*
X64135000Y-69215000D02*
X64135000Y-83185000D01*
X64135000Y-83185000D02*
X50165000Y-83185000D01*
%TO.C,SW3*%
X31115000Y-88265000D02*
X45085000Y-88265000D01*
X31115000Y-102235000D02*
X31115000Y-88265000D01*
X45085000Y-88265000D02*
X45085000Y-102235000D01*
X45085000Y-102235000D02*
X31115000Y-102235000D01*
%TO.C,SW5*%
X69215000Y-88265000D02*
X83185000Y-88265000D01*
X69215000Y-102235000D02*
X69215000Y-88265000D01*
X83185000Y-88265000D02*
X83185000Y-102235000D01*
X83185000Y-102235000D02*
X69215000Y-102235000D01*
%TO.C,SW4*%
X50165000Y-88265000D02*
X64135000Y-88265000D01*
X50165000Y-102235000D02*
X50165000Y-88265000D01*
X64135000Y-88265000D02*
X64135000Y-102235000D01*
X64135000Y-102235000D02*
X50165000Y-102235000D01*
%TO.C,SWw1*%
X31115000Y-69215000D02*
X45085000Y-69215000D01*
X31115000Y-83185000D02*
X31115000Y-69215000D01*
X45085000Y-69215000D02*
X45085000Y-83185000D01*
X45085000Y-83185000D02*
X31115000Y-83185000D01*
%TO.C,D3*%
X31110000Y-39350000D02*
X31760000Y-39350000D01*
X32360000Y-38230000D02*
X32360000Y-40470000D01*
X32480000Y-38230000D02*
X32480000Y-40470000D01*
X32600000Y-38230000D02*
X32600000Y-40470000D01*
X36650000Y-39350000D02*
X36000000Y-39350000D01*
X31760000Y-38230000D02*
X36000000Y-38230000D01*
X36000000Y-40470000D01*
X31760000Y-40470000D01*
X31760000Y-38230000D01*
%TO.C,D4*%
X31090000Y-42290000D02*
X31740000Y-42290000D01*
X32340000Y-41170000D02*
X32340000Y-43410000D01*
X32460000Y-41170000D02*
X32460000Y-43410000D01*
X32580000Y-41170000D02*
X32580000Y-43410000D01*
X36630000Y-42290000D02*
X35980000Y-42290000D01*
X31740000Y-41170000D02*
X35980000Y-41170000D01*
X35980000Y-43410000D01*
X31740000Y-43410000D01*
X31740000Y-41170000D01*
%TO.C,U2*%
X39101300Y-52912500D02*
X40481300Y-52912500D01*
X39101300Y-54292500D02*
X39101300Y-52912500D01*
X39101300Y-55562500D02*
X39101300Y-63292500D01*
X39101300Y-55562500D02*
X41861300Y-55562500D01*
X39101300Y-63292500D02*
X41861300Y-63292500D01*
X41861300Y-55562500D02*
X41861300Y-63292500D01*
%TO.C,D5*%
X30990000Y-45410000D02*
X31640000Y-45410000D01*
X32240000Y-44290000D02*
X32240000Y-46530000D01*
X32360000Y-44290000D02*
X32360000Y-46530000D01*
X32480000Y-44290000D02*
X32480000Y-46530000D01*
X36530000Y-45410000D02*
X35880000Y-45410000D01*
X31640000Y-44290000D02*
X35880000Y-44290000D01*
X35880000Y-46530000D01*
X31640000Y-46530000D01*
X31640000Y-44290000D01*
%TO.C,D2*%
X31110000Y-36440000D02*
X31760000Y-36440000D01*
X32360000Y-35320000D02*
X32360000Y-37560000D01*
X32480000Y-35320000D02*
X32480000Y-37560000D01*
X32600000Y-35320000D02*
X32600000Y-37560000D01*
X36650000Y-36440000D02*
X36000000Y-36440000D01*
X31760000Y-35320000D02*
X36000000Y-35320000D01*
X36000000Y-37560000D01*
X31760000Y-37560000D01*
X31760000Y-35320000D01*
%TO.C,D1*%
X31140000Y-33630000D02*
X31790000Y-33630000D01*
X32390000Y-32510000D02*
X32390000Y-34750000D01*
X32510000Y-32510000D02*
X32510000Y-34750000D01*
X32630000Y-32510000D02*
X32630000Y-34750000D01*
X36680000Y-33630000D02*
X36030000Y-33630000D01*
X31790000Y-32510000D02*
X36030000Y-32510000D01*
X36030000Y-34750000D01*
X31790000Y-34750000D01*
X31790000Y-32510000D01*
%TD*%
M02*
