%TF.GenerationSoftware,KiCad,Pcbnew,9.0.7*%
%TF.CreationDate,2026-01-31T12:03:09-06:00*%
%TF.ProjectId,PRO,50524f2e-6b69-4636-9164-5f7063625858,rev?*%
%TF.SameCoordinates,Original*%
%TF.FileFunction,Other,User*%
%FSLAX46Y46*%
G04 Gerber Fmt 4.6, Leading zero omitted, Abs format (unit mm)*
G04 Created by KiCad (PCBNEW 9.0.7) date 2026-01-31 12:03:09*
%MOMM*%
%LPD*%
G01*
G04 APERTURE LIST*
%ADD10C,0.050000*%
G04 APERTURE END LIST*
D10*
%TO.C,D16*%
X37137501Y-59047158D02*
X37137501Y-55047158D01*
X37137501Y-55047158D02*
X29537501Y-55047158D01*
X29537501Y-59047158D02*
X37137501Y-59047158D01*
X29537501Y-55047158D02*
X29537501Y-59047158D01*
%TO.C,D10*%
X70475001Y-106672158D02*
X70475001Y-102672158D01*
X70475001Y-102672158D02*
X62875001Y-102672158D01*
X62875001Y-106672158D02*
X70475001Y-106672158D01*
X62875001Y-102672158D02*
X62875001Y-106672158D01*
%TO.C,D15*%
X76943701Y-55899958D02*
X76943701Y-59899958D01*
X76943701Y-59899958D02*
X84543701Y-59899958D01*
X84543701Y-55899958D02*
X76943701Y-55899958D01*
X84543701Y-59899958D02*
X84543701Y-55899958D01*
%TO.C,D13*%
X68687542Y-34081201D02*
X68687542Y-41681201D01*
X68687542Y-41681201D02*
X72687542Y-41681201D01*
X72687542Y-34081201D02*
X68687542Y-34081201D01*
X72687542Y-41681201D02*
X72687542Y-34081201D01*
%TO.C,D14*%
X40540858Y-34299999D02*
X40540858Y-41899999D01*
X40540858Y-41899999D02*
X44540858Y-41899999D01*
X44540858Y-34299999D02*
X40540858Y-34299999D01*
X44540858Y-41899999D02*
X44540858Y-34299999D01*
%TO.C,D11*%
X62875001Y-64572158D02*
X62875001Y-68572158D01*
X62875001Y-68572158D02*
X70475001Y-68572158D01*
X70475001Y-64572158D02*
X62875001Y-64572158D01*
X70475001Y-68572158D02*
X70475001Y-64572158D01*
%TO.C,D12*%
X53568701Y-56781258D02*
X53568701Y-60781258D01*
X53568701Y-60781258D02*
X61168701Y-60781258D01*
X61168701Y-56781258D02*
X53568701Y-56781258D01*
X61168701Y-60781258D02*
X61168701Y-56781258D01*
%TO.C,D6*%
X43760001Y-83623358D02*
X43760001Y-87623358D01*
X43760001Y-87623358D02*
X51360001Y-87623358D01*
X51360001Y-83623358D02*
X43760001Y-83623358D01*
X51360001Y-87623358D02*
X51360001Y-83623358D01*
%TO.C,D8*%
X43825001Y-64572158D02*
X43825001Y-68572158D01*
X43825001Y-68572158D02*
X51425001Y-68572158D01*
X51425001Y-64572158D02*
X43825001Y-64572158D01*
X51425001Y-68572158D02*
X51425001Y-64572158D01*
%TO.C,D9*%
X43825001Y-102672158D02*
X43825001Y-106672158D01*
X43825001Y-106672158D02*
X51425001Y-106672158D01*
X51425001Y-102672158D02*
X43825001Y-102672158D01*
X51425001Y-106672158D02*
X51425001Y-102672158D01*
%TO.C,D7*%
X62422301Y-83640958D02*
X62422301Y-87640958D01*
X62422301Y-87640958D02*
X70022301Y-87640958D01*
X70022301Y-83640958D02*
X62422301Y-83640958D01*
X70022301Y-87640958D02*
X70022301Y-83640958D01*
%TD*%
M02*
