%TF.GenerationSoftware,KiCad,Pcbnew,9.0.7*%
%TF.CreationDate,2026-01-22T22:05:33-06:00*%
%TF.ProjectId,HACK PAD!,4841434b-2050-4414-9421-2e6b69636164,rev?*%
%TF.SameCoordinates,Original*%
%TF.FileFunction,Paste,Bot*%
%TF.FilePolarity,Positive*%
%FSLAX46Y46*%
G04 Gerber Fmt 4.6, Leading zero omitted, Abs format (unit mm)*
G04 Created by KiCad (PCBNEW 9.0.7) date 2026-01-22 22:05:33*
%MOMM*%
%LPD*%
G01*
G04 APERTURE LIST*
G04 Aperture macros list*
%AMRoundRect*
0 Rectangle with rounded corners*
0 $1 Rounding radius*
0 $2 $3 $4 $5 $6 $7 $8 $9 X,Y pos of 4 corners*
0 Add a 4 corners polygon primitive as box body*
4,1,4,$2,$3,$4,$5,$6,$7,$8,$9,$2,$3,0*
0 Add four circle primitives for the rounded corners*
1,1,$1+$1,$2,$3*
1,1,$1+$1,$4,$5*
1,1,$1+$1,$6,$7*
1,1,$1+$1,$8,$9*
0 Add four rect primitives between the rounded corners*
20,1,$1+$1,$2,$3,$4,$5,0*
20,1,$1+$1,$4,$5,$6,$7,0*
20,1,$1+$1,$6,$7,$8,$9,0*
20,1,$1+$1,$8,$9,$2,$3,0*%
G04 Aperture macros list end*
%ADD10RoundRect,0.082000X-0.328000X-0.368000X0.328000X-0.368000X0.328000X0.368000X-0.328000X0.368000X0*%
%ADD11RoundRect,0.082000X-0.328000X-0.367999X0.328000X-0.367999X0.328000X0.367999X-0.328000X0.367999X0*%
%ADD12RoundRect,0.082000X-0.368000X0.328000X-0.368000X-0.328000X0.368000X-0.328000X0.368000X0.328000X0*%
%ADD13RoundRect,0.082000X-0.367999X0.328000X-0.367999X-0.328000X0.367999X-0.328000X0.367999X0.328000X0*%
%ADD14RoundRect,0.082000X0.328000X0.367999X-0.328000X0.367999X-0.328000X-0.367999X0.328000X-0.367999X0*%
%ADD15RoundRect,0.082000X0.328000X0.368000X-0.328000X0.368000X-0.328000X-0.368000X0.328000X-0.368000X0*%
G04 APERTURE END LIST*
D10*
%TO.C,D14*%
X41790858Y-35150000D03*
X43290858Y-35150000D03*
D11*
X43290858Y-41049999D03*
X41790858Y-41049999D03*
%TD*%
D12*
%TO.C,D8*%
X50575000Y-65822158D03*
X50575000Y-67322158D03*
D13*
X44675001Y-67322158D03*
X44675001Y-65822158D03*
%TD*%
%TO.C,D7*%
X63272301Y-84890958D03*
X63272301Y-86390958D03*
D12*
X69172300Y-86390958D03*
X69172300Y-84890958D03*
%TD*%
D13*
%TO.C,D9*%
X44675001Y-103922158D03*
X44675001Y-105422158D03*
D12*
X50575000Y-105422158D03*
X50575000Y-103922158D03*
%TD*%
%TO.C,D6*%
X50510000Y-84873358D03*
X50510000Y-86373358D03*
D13*
X44610001Y-86373358D03*
X44610001Y-84873358D03*
%TD*%
%TO.C,D10*%
X63725001Y-103922158D03*
X63725001Y-105422158D03*
D12*
X69625000Y-105422158D03*
X69625000Y-103922158D03*
%TD*%
D13*
%TO.C,D11*%
X63725001Y-65822158D03*
X63725001Y-67322158D03*
D12*
X69625000Y-67322158D03*
X69625000Y-65822158D03*
%TD*%
D13*
%TO.C,D12*%
X54418701Y-58031258D03*
X54418701Y-59531258D03*
D12*
X60318700Y-59531258D03*
X60318700Y-58031258D03*
%TD*%
D13*
%TO.C,D15*%
X77793701Y-57149958D03*
X77793701Y-58649958D03*
D12*
X83693700Y-58649958D03*
X83693700Y-57149958D03*
%TD*%
D14*
%TO.C,D13*%
X71437542Y-34931201D03*
X69937542Y-34931201D03*
D15*
X69937542Y-40831200D03*
X71437542Y-40831200D03*
%TD*%
D13*
%TO.C,D16*%
X30387501Y-56297158D03*
X30387501Y-57797158D03*
D12*
X36287500Y-57797158D03*
X36287500Y-56297158D03*
%TD*%
M02*
