%TF.GenerationSoftware,KiCad,Pcbnew,9.0.7*%
%TF.CreationDate,2026-01-22T22:05:33-06:00*%
%TF.ProjectId,HACK PAD!,4841434b-2050-4414-9421-2e6b69636164,rev?*%
%TF.SameCoordinates,Original*%
%TF.FileFunction,Paste,Top*%
%TF.FilePolarity,Positive*%
%FSLAX46Y46*%
G04 Gerber Fmt 4.6, Leading zero omitted, Abs format (unit mm)*
G04 Created by KiCad (PCBNEW 9.0.7) date 2026-01-22 22:05:33*
%MOMM*%
%LPD*%
G01*
G04 APERTURE LIST*
G04 Aperture macros list*
%AMRoundRect*
0 Rectangle with rounded corners*
0 $1 Rounding radius*
0 $2 $3 $4 $5 $6 $7 $8 $9 X,Y pos of 4 corners*
0 Add a 4 corners polygon primitive as box body*
4,1,4,$2,$3,$4,$5,$6,$7,$8,$9,$2,$3,0*
0 Add four circle primitives for the rounded corners*
1,1,$1+$1,$2,$3*
1,1,$1+$1,$4,$5*
1,1,$1+$1,$6,$7*
1,1,$1+$1,$8,$9*
0 Add four rect primitives between the rounded corners*
20,1,$1+$1,$2,$3,$4,$5,0*
20,1,$1+$1,$4,$5,$6,$7,0*
20,1,$1+$1,$6,$7,$8,$9,0*
20,1,$1+$1,$8,$9,$2,$3,0*%
G04 Aperture macros list end*
%ADD10RoundRect,0.225000X-0.225000X-0.375000X0.225000X-0.375000X0.225000X0.375000X-0.225000X0.375000X0*%
%ADD11RoundRect,0.250000X-0.250000X-0.475000X0.250000X-0.475000X0.250000X0.475000X-0.250000X0.475000X0*%
%ADD12RoundRect,0.250000X-0.262500X-0.450000X0.262500X-0.450000X0.262500X0.450000X-0.262500X0.450000X0*%
%ADD13RoundRect,0.250000X0.475000X-0.250000X0.475000X0.250000X-0.475000X0.250000X-0.475000X-0.250000X0*%
G04 APERTURE END LIST*
D10*
%TO.C,D3*%
X37368800Y-38543700D03*
X34068800Y-38543700D03*
%TD*%
D11*
%TO.C,C7*%
X76200000Y-50006200D03*
X78100000Y-50006200D03*
%TD*%
%TO.C,C5*%
X76200000Y-43986200D03*
X78100000Y-43986200D03*
%TD*%
%TO.C,C6*%
X76200000Y-46996200D03*
X78100000Y-46996200D03*
%TD*%
%TO.C,C11*%
X80650000Y-50006200D03*
X82550000Y-50006200D03*
%TD*%
%TO.C,C1*%
X71750000Y-43986200D03*
X73650000Y-43986200D03*
%TD*%
D10*
%TO.C,D17*%
X34068800Y-48593700D03*
X37368800Y-48593700D03*
%TD*%
D12*
%TO.C,R1*%
X41950000Y-30956200D03*
X43775000Y-30956200D03*
%TD*%
D11*
%TO.C,C8*%
X76200000Y-53016200D03*
X78100000Y-53016200D03*
%TD*%
D13*
%TO.C,C16*%
X63170000Y-52387500D03*
X63170000Y-50487500D03*
%TD*%
D11*
%TO.C,C4*%
X71750000Y-53016200D03*
X73650000Y-53016200D03*
%TD*%
%TO.C,C10*%
X80650000Y-46996200D03*
X82550000Y-46996200D03*
%TD*%
D13*
%TO.C,C15*%
X60160000Y-52387500D03*
X60160000Y-50487500D03*
%TD*%
D11*
%TO.C,C9*%
X80650000Y-43986200D03*
X82550000Y-43986200D03*
%TD*%
%TO.C,C3*%
X71750000Y-50006200D03*
X73650000Y-50006200D03*
%TD*%
%TO.C,C12*%
X80650000Y-53016200D03*
X82550000Y-53016200D03*
%TD*%
D10*
%TO.C,D4*%
X34068800Y-41893700D03*
X37368800Y-41893700D03*
%TD*%
%TO.C,D5*%
X34068800Y-45243700D03*
X37368800Y-45243700D03*
%TD*%
%TO.C,D2*%
X34068800Y-35193700D03*
X37368800Y-35193700D03*
%TD*%
D13*
%TO.C,C14*%
X57150000Y-52387500D03*
X57150000Y-50487500D03*
%TD*%
D10*
%TO.C,D1*%
X34068800Y-31843700D03*
X37368800Y-31843700D03*
%TD*%
D11*
%TO.C,C2*%
X71750000Y-46996200D03*
X73650000Y-46996200D03*
%TD*%
D13*
%TO.C,C13*%
X54140000Y-52387500D03*
X54140000Y-50487500D03*
%TD*%
M02*
