M48
; DRILL file {KiCad 9.0.7} date 2026-01-22T22:05:43-0600
; FORMAT={-:-/ absolute / metric / decimal}
; #@! TF.CreationDate,2026-01-22T22:05:43-06:00
; #@! TF.GenerationSoftware,Kicad,Pcbnew,9.0.7
; #@! TF.FileFunction,Plated,1,2,PTH
FMAT,2
METRIC
; #@! TA.AperFunction,Plated,PTH,ViaDrill
T1C0.300
; #@! TA.AperFunction,Plated,PTH,ComponentDrill
T2C1.000
; #@! TA.AperFunction,Plated,PTH,ComponentDrill
T3C1.500
%
G90
G05
T1
X28.42Y-73.49
X33.488Y-90.312
X33.688Y-47.006
X34.4Y-43.697
X36.956Y-72.943
X37.422Y-30.667
X37.488Y-46.806
X37.568Y-36.34
X39.347Y-43.332
X40.381Y-33.542
X41.768Y-77.265
X42.175Y-67.105
X42.578Y-43.916
X42.718Y-56.147
X44.879Y-34.933
X45.123Y-95.964
X51.257Y-90.107
X51.457Y-72.09
X51.544Y-105.031
X51.747Y-40.526
X52.006Y-84.757
X54.193Y-56.193
X54.372Y-71.748
X54.406Y-37.456
X61.37Y-69.744
X62.121Y-54.943
X62.205Y-84.882
X62.451Y-65.779
X63.066Y-59.908
X63.066Y-102.156
X74.897Y-59.908
T2
X40.481Y-54.292
X40.481Y-56.832
X40.481Y-59.372
X40.481Y-61.912
X49.525Y-30.162
X49.525Y-32.703
X49.525Y-35.242
X49.525Y-37.782
X49.525Y-40.322
X49.525Y-42.862
X49.525Y-45.402
X64.775Y-30.162
X64.775Y-32.703
X64.775Y-35.242
X64.775Y-37.782
X64.775Y-40.322
X64.775Y-42.862
X64.775Y-45.402
X68.95Y-73.7
X68.95Y-76.2
X68.95Y-78.7
X83.45Y-73.7
X83.45Y-78.7
T3
X34.29Y-73.66
X34.29Y-92.71
X40.64Y-71.12
X40.64Y-90.17
X53.34Y-73.66
X53.34Y-92.71
X59.69Y-71.12
X59.69Y-90.17
X72.39Y-92.71
X78.74Y-90.17
T3
G00X75.8Y-70.6
M15
G01X77.1Y-70.6
M16
G05
G00X75.8Y-81.8
M15
G01X77.1Y-81.8
M16
G05
M30
