%TF.GenerationSoftware,KiCad,Pcbnew,9.0.7*%
%TF.CreationDate,2026-01-22T22:05:33-06:00*%
%TF.ProjectId,HACK PAD!,4841434b-2050-4414-9421-2e6b69636164,rev?*%
%TF.SameCoordinates,Original*%
%TF.FileFunction,Copper,L1,Top*%
%TF.FilePolarity,Positive*%
%FSLAX46Y46*%
G04 Gerber Fmt 4.6, Leading zero omitted, Abs format (unit mm)*
G04 Created by KiCad (PCBNEW 9.0.7) date 2026-01-22 22:05:33*
%MOMM*%
%LPD*%
G01*
G04 APERTURE LIST*
G04 Aperture macros list*
%AMRoundRect*
0 Rectangle with rounded corners*
0 $1 Rounding radius*
0 $2 $3 $4 $5 $6 $7 $8 $9 X,Y pos of 4 corners*
0 Add a 4 corners polygon primitive as box body*
4,1,4,$2,$3,$4,$5,$6,$7,$8,$9,$2,$3,0*
0 Add four circle primitives for the rounded corners*
1,1,$1+$1,$2,$3*
1,1,$1+$1,$4,$5*
1,1,$1+$1,$6,$7*
1,1,$1+$1,$8,$9*
0 Add four rect primitives between the rounded corners*
20,1,$1+$1,$2,$3,$4,$5,0*
20,1,$1+$1,$4,$5,$6,$7,0*
20,1,$1+$1,$6,$7,$8,$9,0*
20,1,$1+$1,$8,$9,$2,$3,0*%
G04 Aperture macros list end*
%TA.AperFunction,SMDPad,CuDef*%
%ADD10RoundRect,0.225000X-0.225000X-0.375000X0.225000X-0.375000X0.225000X0.375000X-0.225000X0.375000X0*%
%TD*%
%TA.AperFunction,ComponentPad*%
%ADD11O,3.700000X1.700000*%
%TD*%
%TA.AperFunction,ComponentPad*%
%ADD12O,3.600000X1.700000*%
%TD*%
%TA.AperFunction,ComponentPad*%
%ADD13R,3.500000X1.700000*%
%TD*%
%TA.AperFunction,ComponentPad*%
%ADD14R,1.700000X1.700000*%
%TD*%
%TA.AperFunction,ComponentPad*%
%ADD15C,1.700000*%
%TD*%
%TA.AperFunction,SMDPad,CuDef*%
%ADD16RoundRect,0.250000X-0.250000X-0.475000X0.250000X-0.475000X0.250000X0.475000X-0.250000X0.475000X0*%
%TD*%
%TA.AperFunction,ComponentPad*%
%ADD17R,2.000000X2.000000*%
%TD*%
%TA.AperFunction,ComponentPad*%
%ADD18C,2.000000*%
%TD*%
%TA.AperFunction,ComponentPad*%
%ADD19R,3.200000X2.000000*%
%TD*%
%TA.AperFunction,SMDPad,CuDef*%
%ADD20RoundRect,0.250000X-0.262500X-0.450000X0.262500X-0.450000X0.262500X0.450000X-0.262500X0.450000X0*%
%TD*%
%TA.AperFunction,ComponentPad*%
%ADD21C,2.200000*%
%TD*%
%TA.AperFunction,SMDPad,CuDef*%
%ADD22RoundRect,0.250000X0.475000X-0.250000X0.475000X0.250000X-0.475000X0.250000X-0.475000X-0.250000X0*%
%TD*%
%TA.AperFunction,ViaPad*%
%ADD23C,0.600000*%
%TD*%
%TA.AperFunction,Conductor*%
%ADD24C,0.200000*%
%TD*%
G04 APERTURE END LIST*
D10*
%TO.P,D3,2,A*%
%TO.N,Net-(D3-A)*%
X37368800Y-38543700D03*
%TO.P,D3,1,K*%
%TO.N,Net-(D3-K)*%
X34068800Y-38543700D03*
%TD*%
D11*
%TO.P,U1,14,5V*%
%TO.N,Net-(D10-VDD)*%
X48525000Y-30162500D03*
%TO.P,U1,13,GND*%
%TO.N,unconnected-(U1-GND-Pad13)*%
X48525000Y-32702500D03*
%TO.P,U1,12,3V3*%
%TO.N,Net-(U1-3V3)*%
X48525000Y-35242500D03*
%TO.P,U1,11,PA6_A10_D10_MOSI*%
%TO.N,Net-(D17-K)*%
X48525000Y-37782500D03*
D12*
%TO.P,U1,10,PA5_A9_D9_MISO*%
%TO.N,Net-(U1-PA5_A9_D9_MISO)*%
X48525000Y-40322500D03*
%TO.P,U1,9,PA7_A8_D8_SCK*%
%TO.N,Net-(U1-PA7_A8_D8_SCK)*%
X48525000Y-42862500D03*
%TO.P,U1,8,PB09_A7_D7_RX*%
X48525000Y-45402500D03*
%TO.P,U1,7,PB08_A6_D6_TX*%
%TO.N,Net-(D5-A)*%
X65775000Y-45402500D03*
%TO.P,U1,6,PA9_A5_D5_SCL*%
%TO.N,Net-(U1-PA9_A5_D5_SCL)*%
X65775000Y-42862500D03*
%TO.P,U1,5,PA8_A4_D4_SDA*%
%TO.N,Net-(U1-PA8_A4_D4_SDA)*%
X65775000Y-40322500D03*
%TO.P,U1,4,PA11_A3_D3*%
%TO.N,Net-(D4-A)*%
X65775000Y-37782500D03*
%TO.P,U1,3,PA10_A2_D2*%
%TO.N,Net-(D3-A)*%
X65775000Y-35242500D03*
%TO.P,U1,2,PA4_A1_D1*%
%TO.N,Net-(D2-A)*%
X65775000Y-32702500D03*
D13*
%TO.P,U1,1,PA02_A0_D0*%
%TO.N,Net-(D1-A)*%
X65775000Y-30162500D03*
%TD*%
D14*
%TO.P,U2,1,GND*%
%TO.N,GND*%
X40481300Y-54292500D03*
D15*
%TO.P,U2,2,VCC*%
%TO.N,Net-(U1-3V3)*%
X40481300Y-56832500D03*
%TO.P,U2,3,SCL*%
%TO.N,Net-(U1-PA9_A5_D5_SCL)*%
X40481300Y-59372500D03*
%TO.P,U2,4,SDA*%
%TO.N,Net-(U1-PA8_A4_D4_SDA)*%
X40481300Y-61912500D03*
%TD*%
D16*
%TO.P,C7,1*%
%TO.N,Net-(D10-VDD)*%
X76200000Y-50006200D03*
%TO.P,C7,2*%
%TO.N,GND*%
X78100000Y-50006200D03*
%TD*%
%TO.P,C5,1*%
%TO.N,Net-(D10-VDD)*%
X76200000Y-43986200D03*
%TO.P,C5,2*%
%TO.N,GND*%
X78100000Y-43986200D03*
%TD*%
%TO.P,C6,1*%
%TO.N,Net-(D10-VDD)*%
X76200000Y-46996200D03*
%TO.P,C6,2*%
%TO.N,GND*%
X78100000Y-46996200D03*
%TD*%
%TO.P,C11,1*%
%TO.N,Net-(D10-VDD)*%
X80650000Y-50006200D03*
%TO.P,C11,2*%
%TO.N,GND*%
X82550000Y-50006200D03*
%TD*%
D17*
%TO.P,RE1,A,A*%
%TO.N,Net-(U1-PA7_A8_D8_SCK)*%
X68950000Y-73700000D03*
D18*
%TO.P,RE1,B,B*%
%TO.N,Net-(U1-PA5_A9_D9_MISO)*%
X68950000Y-78700000D03*
%TO.P,RE1,C,C*%
%TO.N,GND*%
X68950000Y-76200000D03*
D19*
%TO.P,RE1,MP*%
%TO.N,N/C*%
X76450000Y-70600000D03*
X76450000Y-81800000D03*
D18*
%TO.P,RE1,S1,S1*%
%TO.N,Net-(D17-A)*%
X83450000Y-78700000D03*
%TO.P,RE1,S2,S2*%
%TO.N,GND*%
X83450000Y-73700000D03*
%TD*%
D16*
%TO.P,C1,1*%
%TO.N,Net-(D10-VDD)*%
X71750000Y-43986200D03*
%TO.P,C1,2*%
%TO.N,GND*%
X73650000Y-43986200D03*
%TD*%
D10*
%TO.P,D17,1,K*%
%TO.N,Net-(D17-K)*%
X34068800Y-48593700D03*
%TO.P,D17,2,A*%
%TO.N,Net-(D17-A)*%
X37368800Y-48593700D03*
%TD*%
D20*
%TO.P,R1,1*%
%TO.N,Net-(D6-DIN)*%
X41950000Y-30956200D03*
%TO.P,R1,2*%
%TO.N,Net-(U1-PA7_A8_D8_SCK)*%
X43775000Y-30956200D03*
%TD*%
D21*
%TO.P,SW2,1,1*%
%TO.N,GND*%
X59690000Y-71120000D03*
%TO.P,SW2,2,2*%
%TO.N,Net-(D2-K)*%
X53340000Y-73660000D03*
%TD*%
%TO.P,SW3,1,1*%
%TO.N,GND*%
X40640000Y-90170000D03*
%TO.P,SW3,2,2*%
%TO.N,Net-(D3-K)*%
X34290000Y-92710000D03*
%TD*%
D16*
%TO.P,C8,1*%
%TO.N,Net-(D10-VDD)*%
X76200000Y-53016200D03*
%TO.P,C8,2*%
%TO.N,GND*%
X78100000Y-53016200D03*
%TD*%
D22*
%TO.P,C16,1*%
%TO.N,Net-(D10-VDD)*%
X63170000Y-52387500D03*
%TO.P,C16,2*%
%TO.N,GND*%
X63170000Y-50487500D03*
%TD*%
D16*
%TO.P,C4,1*%
%TO.N,Net-(D10-VDD)*%
X71750000Y-53016200D03*
%TO.P,C4,2*%
%TO.N,GND*%
X73650000Y-53016200D03*
%TD*%
%TO.P,C10,1*%
%TO.N,Net-(D10-VDD)*%
X80650000Y-46996200D03*
%TO.P,C10,2*%
%TO.N,GND*%
X82550000Y-46996200D03*
%TD*%
D22*
%TO.P,C15,1*%
%TO.N,Net-(D10-VDD)*%
X60160000Y-52387500D03*
%TO.P,C15,2*%
%TO.N,GND*%
X60160000Y-50487500D03*
%TD*%
D21*
%TO.P,SW5,1,1*%
%TO.N,GND*%
X78740000Y-90170000D03*
%TO.P,SW5,2,2*%
%TO.N,Net-(D5-K)*%
X72390000Y-92710000D03*
%TD*%
%TO.P,SW4,1,1*%
%TO.N,GND*%
X59690000Y-90170000D03*
%TO.P,SW4,2,2*%
%TO.N,Net-(D4-K)*%
X53340000Y-92710000D03*
%TD*%
D16*
%TO.P,C9,1*%
%TO.N,Net-(D10-VDD)*%
X80650000Y-43986200D03*
%TO.P,C9,2*%
%TO.N,GND*%
X82550000Y-43986200D03*
%TD*%
%TO.P,C3,1*%
%TO.N,Net-(D10-VDD)*%
X71750000Y-50006200D03*
%TO.P,C3,2*%
%TO.N,GND*%
X73650000Y-50006200D03*
%TD*%
D21*
%TO.P,SWw1,1,1*%
%TO.N,GND*%
X40640000Y-71120000D03*
%TO.P,SWw1,2,2*%
%TO.N,Net-(D1-K)*%
X34290000Y-73660000D03*
%TD*%
D16*
%TO.P,C12,1*%
%TO.N,Net-(D10-VDD)*%
X80650000Y-53016200D03*
%TO.P,C12,2*%
%TO.N,GND*%
X82550000Y-53016200D03*
%TD*%
D10*
%TO.P,D4,1,K*%
%TO.N,Net-(D4-K)*%
X34068800Y-41893700D03*
%TO.P,D4,2,A*%
%TO.N,Net-(D4-A)*%
X37368800Y-41893700D03*
%TD*%
%TO.P,D5,1,K*%
%TO.N,Net-(D5-K)*%
X34068800Y-45243700D03*
%TO.P,D5,2,A*%
%TO.N,Net-(D5-A)*%
X37368800Y-45243700D03*
%TD*%
%TO.P,D2,1,K*%
%TO.N,Net-(D2-K)*%
X34068800Y-35193700D03*
%TO.P,D2,2,A*%
%TO.N,Net-(D2-A)*%
X37368800Y-35193700D03*
%TD*%
D22*
%TO.P,C14,1*%
%TO.N,Net-(D10-VDD)*%
X57150000Y-52387500D03*
%TO.P,C14,2*%
%TO.N,GND*%
X57150000Y-50487500D03*
%TD*%
D10*
%TO.P,D1,1,K*%
%TO.N,Net-(D1-K)*%
X34068800Y-31843700D03*
%TO.P,D1,2,A*%
%TO.N,Net-(D1-A)*%
X37368800Y-31843700D03*
%TD*%
D16*
%TO.P,C2,1*%
%TO.N,Net-(D10-VDD)*%
X71750000Y-46996200D03*
%TO.P,C2,2*%
%TO.N,GND*%
X73650000Y-46996200D03*
%TD*%
D22*
%TO.P,C13,1*%
%TO.N,Net-(D10-VDD)*%
X54140000Y-52387500D03*
%TO.P,C13,2*%
%TO.N,GND*%
X54140000Y-50487500D03*
%TD*%
D23*
%TO.N,Net-(D1-K)*%
X28420000Y-73490000D03*
%TO.N,Net-(U1-PA8_A4_D4_SDA)*%
X62121000Y-54943000D03*
%TO.N,Net-(U1-3V3)*%
X42717600Y-56147300D03*
X44878800Y-34933300D03*
%TO.N,Net-(U1-PA5_A9_D9_MISO)*%
X54372500Y-71748500D03*
X51746900Y-40526500D03*
%TO.N,Net-(U1-PA7_A8_D8_SCK)*%
X51456600Y-72090000D03*
%TO.N,Net-(D17-K)*%
X33688300Y-47006200D03*
%TO.N,Net-(D17-A)*%
X41768500Y-77264900D03*
%TO.N,Net-(D8-DOUT)*%
X45123100Y-95964000D03*
X42175000Y-67104800D03*
%TO.N,Net-(D7-DOUT)*%
X61369700Y-69744300D03*
X62204700Y-84881600D03*
%TO.N,Net-(D6-DIN)*%
X52005900Y-84756800D03*
%TO.N,Net-(D5-K)*%
X33488300Y-90312300D03*
%TO.N,Net-(D5-A)*%
X37487700Y-46806200D03*
%TO.N,Net-(D4-K)*%
X39347400Y-43331800D03*
X34399600Y-43697200D03*
%TO.N,Net-(D4-A)*%
X42578200Y-43916000D03*
%TO.N,Net-(D3-A)*%
X37567700Y-36340300D03*
%TO.N,Net-(D2-A)*%
X40381300Y-33542500D03*
%TO.N,Net-(D1-A)*%
X37421500Y-30666700D03*
%TO.N,GND*%
X54406500Y-37456100D03*
X63066300Y-59907900D03*
X74897500Y-59907900D03*
X51256900Y-90107300D03*
X51543700Y-105031000D03*
%TO.N,Net-(D10-VDD)*%
X54192900Y-56192600D03*
X63066300Y-102155600D03*
X62451000Y-65778700D03*
%TO.N,Net-(D2-K)*%
X36956300Y-72942700D03*
%TD*%
D24*
%TO.N,Net-(D2-K)*%
X36718745Y-37843645D02*
X34068800Y-35193700D01*
X36617800Y-37944590D02*
X36718745Y-37843645D01*
X36617800Y-39142810D02*
X36617800Y-37944590D01*
X36919690Y-40992700D02*
X37260000Y-40992700D01*
X36617800Y-41294590D02*
X36919690Y-40992700D01*
X37260000Y-39444700D02*
X36919690Y-39444700D01*
X36617800Y-42492810D02*
X36617800Y-41294590D01*
X36919690Y-39444700D02*
X36617800Y-39142810D01*
X36919690Y-42794700D02*
X36617800Y-42492810D01*
X37260000Y-42794700D02*
X36919690Y-42794700D01*
X37260000Y-44342700D02*
X37260000Y-42794700D01*
X36919690Y-44342700D02*
X37260000Y-44342700D01*
X36617800Y-44644590D02*
X36919690Y-44342700D01*
X36617800Y-45842810D02*
X36617800Y-44644590D01*
X36919690Y-46144700D02*
X36617800Y-45842810D01*
X36967800Y-46144700D02*
X36919690Y-46144700D01*
X36967800Y-46476157D02*
X36967800Y-46144700D01*
X36886700Y-46557257D02*
X36967800Y-46476157D01*
X36886700Y-47055143D02*
X36886700Y-46557257D01*
X37238757Y-47407200D02*
X36886700Y-47055143D01*
X37260000Y-47407200D02*
X37238757Y-47407200D01*
X37260000Y-47692700D02*
X37260000Y-47407200D01*
X36919690Y-47692700D02*
X37260000Y-47692700D01*
X36617800Y-47994590D02*
X36919690Y-47692700D01*
X37260000Y-40992700D02*
X37260000Y-39444700D01*
X36617800Y-49192810D02*
X36617800Y-47994590D01*
X36919690Y-49494700D02*
X36617800Y-49192810D01*
X36390000Y-72376400D02*
X36390000Y-49494700D01*
X36956300Y-72942700D02*
X36390000Y-72376400D01*
X36390000Y-49494700D02*
X36919690Y-49494700D01*
%TO.N,Net-(D7-DOUT)*%
X60660000Y-83336900D02*
X62204700Y-84881600D01*
X60660000Y-74907900D02*
X60660000Y-83336900D01*
X61369700Y-74198200D02*
X60660000Y-74907900D01*
X61369700Y-69744300D02*
X61369700Y-74198200D01*
%TO.N,Net-(D4-K)*%
X41678300Y-45662700D02*
X39347400Y-43331800D01*
X41678300Y-64635300D02*
X41678300Y-45662700D01*
X45524800Y-79194800D02*
X45524800Y-68481800D01*
X53340000Y-87010000D02*
X45524800Y-79194800D01*
X53340000Y-92710000D02*
X53340000Y-87010000D01*
X45524800Y-68481800D02*
X41678300Y-64635300D01*
%TO.N,Net-(D1-K)*%
X28420000Y-73550000D02*
X28350000Y-73620000D01*
X28420000Y-73490000D02*
X28420000Y-73550000D01*
X28420000Y-69170000D02*
X28420000Y-73490000D01*
X33270700Y-45019300D02*
X28420000Y-49870000D01*
X28420000Y-49870000D02*
X28420000Y-69170000D01*
X33270700Y-32641800D02*
X33270700Y-45019300D01*
X34068800Y-31843700D02*
X33270700Y-32641800D01*
%TO.N,Net-(D10-VDD)*%
X63693200Y-101528700D02*
X63693200Y-65778700D01*
%TO.N,Net-(U1-PA8_A4_D4_SDA)*%
X64775000Y-40322500D02*
X63673300Y-40322500D01*
X63673300Y-47850400D02*
X63673300Y-40322500D01*
X64243400Y-48420500D02*
X63673300Y-47850400D01*
X64243400Y-50964400D02*
X64243400Y-48420500D01*
X63770300Y-51437500D02*
X64243400Y-50964400D01*
X62572600Y-51437500D02*
X63770300Y-51437500D01*
X62121000Y-51889100D02*
X62572600Y-51437500D01*
X62121000Y-54943000D02*
X62121000Y-51889100D01*
%TO.N,Net-(U1-3V3)*%
X44878800Y-53986100D02*
X44878800Y-34933300D01*
X42717600Y-56147300D02*
X44878800Y-53986100D01*
%TO.N,Net-(U1-PA5_A9_D9_MISO)*%
X51746900Y-69122900D02*
X54372500Y-71748500D01*
X51746900Y-40526500D02*
X51746900Y-69122900D01*
X51746900Y-40526500D02*
X51746900Y-40322500D01*
X51746900Y-40322500D02*
X51746900Y-40526500D01*
X54372500Y-71748500D02*
X54347000Y-71723000D01*
X54347000Y-71723000D02*
X54372500Y-71748500D01*
%TO.N,Net-(U1-PA7_A8_D8_SCK)*%
X49525000Y-45402500D02*
X50626700Y-45402500D01*
X49525000Y-42862500D02*
X50525900Y-42862500D01*
X50525900Y-42862500D02*
X50625200Y-42862500D01*
X50625200Y-42862500D02*
X50626700Y-42862500D01*
X50679800Y-42807900D02*
X50625200Y-42862500D01*
X50679800Y-34761400D02*
X50679800Y-42807900D01*
X49890900Y-33972500D02*
X50679800Y-34761400D01*
X46791300Y-33972500D02*
X49890900Y-33972500D01*
X43775000Y-30956200D02*
X46791300Y-33972500D01*
X50626700Y-42862500D02*
X50626700Y-45402500D01*
X51160200Y-45936000D02*
X50626700Y-45402500D01*
X51160200Y-71793600D02*
X51160200Y-45936000D01*
X51456600Y-72090000D02*
X51160200Y-71793600D01*
X51456600Y-72090000D02*
X51160200Y-71793600D01*
X51160200Y-71793600D02*
X51456600Y-72090000D01*
%TO.N,Net-(D17-K)*%
X34068800Y-47386700D02*
X34068800Y-48593700D01*
X33688300Y-47006200D02*
X34068800Y-47386700D01*
%TO.N,Net-(D17-A)*%
X41768500Y-75712300D02*
X41768500Y-77264900D01*
X37368800Y-71312600D02*
X41768500Y-75712300D01*
X37368800Y-48593700D02*
X37368800Y-71312600D01*
%TO.N,Net-(D8-DOUT)*%
X45123100Y-70052900D02*
X42175000Y-67104800D01*
X45123100Y-95964000D02*
X45123100Y-70052900D01*
%TO.N,Net-(D6-DIN)*%
X50290400Y-83041300D02*
X52005900Y-84756800D01*
X50290400Y-64568900D02*
X50290400Y-83041300D01*
X46316000Y-60594500D02*
X50290400Y-64568900D01*
X46316000Y-35322200D02*
X46316000Y-60594500D01*
X41950000Y-30956200D02*
X46316000Y-35322200D01*
%TO.N,Net-(D5-A)*%
X37368800Y-46687300D02*
X37368800Y-45243700D01*
X37487700Y-46806200D02*
X37368800Y-46687300D01*
%TO.N,Net-(D4-K)*%
X34399600Y-42224500D02*
X34068800Y-41893700D01*
X34399600Y-43697200D02*
X34399600Y-42224500D01*
%TO.N,Net-(D4-A)*%
X40555900Y-41893700D02*
X42578200Y-43916000D01*
X37368800Y-41893700D02*
X40555900Y-41893700D01*
%TO.N,Net-(D3-A)*%
X37368800Y-36539200D02*
X37368800Y-38543700D01*
X37567700Y-36340300D02*
X37368800Y-36539200D01*
%TO.N,Net-(D3-K)*%
X35490000Y-91510000D02*
X34290000Y-92710000D01*
X35490000Y-74573000D02*
X35490000Y-91510000D01*
X35887600Y-74175400D02*
X35490000Y-74573000D01*
X35887600Y-40362500D02*
X35887600Y-74175400D01*
X34068800Y-38543700D02*
X35887600Y-40362500D01*
%TO.N,Net-(D2-A)*%
X39020000Y-33542500D02*
X37368800Y-35193700D01*
X40381300Y-33542500D02*
X39020000Y-33542500D01*
X40381300Y-33542500D02*
X40340800Y-33542500D01*
X40340800Y-33542500D02*
X40381300Y-33542500D01*
%TO.N,Net-(D1-A)*%
X37421500Y-31791000D02*
X37421500Y-30666700D01*
X37368800Y-31843700D02*
X37421500Y-31791000D01*
%TO.N,GND*%
X82550000Y-53016200D02*
X82550000Y-50006200D01*
X78100000Y-53016200D02*
X78100000Y-50006200D01*
X78100000Y-43986200D02*
X78100000Y-46996200D01*
X57150000Y-50487500D02*
X54140000Y-50487500D01*
X39295300Y-69775300D02*
X40640000Y-71120000D01*
X39295300Y-56342300D02*
X39295300Y-69775300D01*
X40193400Y-55444200D02*
X39295300Y-56342300D01*
X40481300Y-55444200D02*
X40193400Y-55444200D01*
X40481300Y-54292500D02*
X40481300Y-55444200D01*
X57150000Y-50487500D02*
X60160000Y-50487500D01*
X82550000Y-46996200D02*
X82550000Y-50006200D01*
X73650000Y-46996200D02*
X73650000Y-50006200D01*
X63170000Y-50487500D02*
X60160000Y-50487500D01*
X73650000Y-43986200D02*
X73650000Y-46996200D01*
X77038500Y-42924700D02*
X78100000Y-43986200D01*
X74711500Y-42924700D02*
X77038500Y-42924700D01*
X73650000Y-43986200D02*
X74711500Y-42924700D01*
X54406500Y-50221000D02*
X54140000Y-50487500D01*
X54406500Y-37456100D02*
X54406500Y-50221000D01*
X59690000Y-61435300D02*
X59690000Y-71120000D01*
X61217400Y-59907900D02*
X59690000Y-61435300D01*
X59750700Y-71180700D02*
X59690000Y-71120000D01*
X59750700Y-90109300D02*
X59750700Y-71180700D01*
X59690000Y-90170000D02*
X59750700Y-90109300D01*
X74689100Y-54055300D02*
X74897500Y-54055300D01*
X73650000Y-53016200D02*
X74689100Y-54055300D01*
X74897500Y-54055300D02*
X74897500Y-59907900D01*
X77060900Y-54055300D02*
X78100000Y-53016200D01*
X74897500Y-54055300D02*
X77060900Y-54055300D01*
X81460100Y-54106100D02*
X82550000Y-53016200D01*
X79189900Y-54106100D02*
X81460100Y-54106100D01*
X78100000Y-53016200D02*
X79189900Y-54106100D01*
X82550000Y-46996200D02*
X82550000Y-43986200D01*
X79127700Y-42958500D02*
X78100000Y-43986200D01*
X81522300Y-42958500D02*
X79127700Y-42958500D01*
X82550000Y-43986200D02*
X81522300Y-42958500D01*
X50616500Y-90747700D02*
X51256900Y-90107300D01*
X50616500Y-104103800D02*
X50616500Y-90747700D01*
X51543700Y-105031000D02*
X50616500Y-104103800D01*
X61217400Y-59907900D02*
X63066300Y-59907900D01*
X61217400Y-51544900D02*
X61217400Y-59907900D01*
X60160000Y-50487500D02*
X61217400Y-51544900D01*
%TO.N,Net-(D10-VDD)*%
X57150000Y-52387500D02*
X60160000Y-52387500D01*
X71750000Y-43986200D02*
X71750000Y-46996200D01*
X71750000Y-50006200D02*
X71750000Y-49666800D01*
X71750000Y-49666800D02*
X71750000Y-46996200D01*
X54140000Y-52387500D02*
X57150000Y-52387500D01*
X76200000Y-51550500D02*
X76200000Y-53016200D01*
X71750000Y-51550500D02*
X76200000Y-51550500D01*
X71750000Y-49666800D02*
X71750000Y-51550500D01*
X80650000Y-50006200D02*
X80650000Y-53016200D01*
X54140000Y-56139700D02*
X54140000Y-52387500D01*
X54192900Y-56192600D02*
X54140000Y-56139700D01*
X76200000Y-46996200D02*
X76200000Y-43986200D01*
X71750000Y-51550500D02*
X71750000Y-52387500D01*
X71750000Y-52387500D02*
X71750000Y-53016200D01*
X53041200Y-51288700D02*
X54140000Y-52387500D01*
X53041200Y-32527000D02*
X53041200Y-51288700D01*
X50676700Y-30162500D02*
X53041200Y-32527000D01*
X49525000Y-30162500D02*
X50676700Y-30162500D01*
X80650000Y-46996200D02*
X80650000Y-48039100D01*
X80650000Y-48039100D02*
X80650000Y-50006200D01*
X76200000Y-51550500D02*
X76200000Y-50006200D01*
X76200000Y-49082000D02*
X77242900Y-48039100D01*
X76200000Y-50006200D02*
X76200000Y-49082000D01*
X80650000Y-48039100D02*
X77242900Y-48039100D01*
X77242900Y-48039100D02*
X76200000Y-46996200D01*
X63170000Y-52387500D02*
X63693200Y-52387500D01*
X63693200Y-52387500D02*
X71750000Y-52387500D01*
X63693200Y-65778700D02*
X62451000Y-65778700D01*
X63066300Y-102155600D02*
X63693200Y-101528700D01*
X63693200Y-65778700D02*
X63693200Y-52387500D01*
%TO.N,Net-(D5-K)*%
X34068800Y-45243700D02*
X29360000Y-49952500D01*
X29360000Y-49952500D02*
X29360000Y-86184000D01*
X29360000Y-86184000D02*
X33488300Y-90312300D01*
%TO.N,Net-(D10-VDD)*%
X80650000Y-43986200D02*
X80650000Y-46996200D01*
%TD*%
M02*
