%TF.GenerationSoftware,KiCad,Pcbnew,9.0.7*%
%TF.CreationDate,2026-01-30T21:13:48-06:00*%
%TF.ProjectId,HACK PAD!,4841434b-2050-4414-9421-2e6b69636164,rev?*%
%TF.SameCoordinates,Original*%
%TF.FileFunction,OtherDrawing,Comment*%
%FSLAX46Y46*%
G04 Gerber Fmt 4.6, Leading zero omitted, Abs format (unit mm)*
G04 Created by KiCad (PCBNEW 9.0.7) date 2026-01-30 21:13:48*
%MOMM*%
%LPD*%
G01*
G04 APERTURE LIST*
%ADD10C,0.120000*%
%ADD11C,0.150000*%
G04 APERTURE END LIST*
D10*
%TO.C,D16*%
X31737500Y-55650000D02*
X31737500Y-58450000D01*
X31737500Y-58450000D02*
X34437500Y-58450000D01*
X34937500Y-55650000D02*
X31737500Y-55650000D01*
X34937500Y-57950000D02*
X34437500Y-58450000D01*
X34937500Y-57950000D02*
X34937500Y-55650000D01*
%TO.C,D15*%
X79143700Y-56502800D02*
X79143700Y-59302800D01*
X79143700Y-59302800D02*
X81843700Y-59302800D01*
X82343700Y-56502800D02*
X79143700Y-56502800D01*
X82343700Y-58802800D02*
X81843700Y-59302800D01*
X82343700Y-58802800D02*
X82343700Y-56502800D01*
%TO.C,D13*%
X69284700Y-36281200D02*
X69284700Y-38981200D01*
X69784700Y-39481200D02*
X69284700Y-38981200D01*
X69784700Y-39481200D02*
X72084700Y-39481200D01*
X72084700Y-36281200D02*
X69284700Y-36281200D01*
X72084700Y-39481200D02*
X72084700Y-36281200D01*
%TO.C,D14*%
X41143700Y-36500000D02*
X41143700Y-39700000D01*
X41143700Y-39700000D02*
X43943700Y-39700000D01*
X43443700Y-36500000D02*
X41143700Y-36500000D01*
X43443700Y-36500000D02*
X43943700Y-37000000D01*
X43943700Y-39700000D02*
X43943700Y-37000000D01*
D11*
%TO.C,SW2*%
X47625000Y-66675000D02*
X66675000Y-66675000D01*
X47625000Y-85725000D02*
X47625000Y-66675000D01*
X66675000Y-66675000D02*
X66675000Y-85725000D01*
X66675000Y-85725000D02*
X47625000Y-85725000D01*
%TO.C,SW3*%
X28575000Y-85725000D02*
X47625000Y-85725000D01*
X28575000Y-104775000D02*
X28575000Y-85725000D01*
X47625000Y-85725000D02*
X47625000Y-104775000D01*
X47625000Y-104775000D02*
X28575000Y-104775000D01*
D10*
%TO.C,D11*%
X65075000Y-65175000D02*
X65075000Y-67975000D01*
X65075000Y-67975000D02*
X67775000Y-67975000D01*
X68275000Y-65175000D02*
X65075000Y-65175000D01*
X68275000Y-67475000D02*
X67775000Y-67975000D01*
X68275000Y-67475000D02*
X68275000Y-65175000D01*
%TO.C,D10*%
X65075000Y-103275000D02*
X65075000Y-106075000D01*
X65075000Y-106075000D02*
X67775000Y-106075000D01*
X68275000Y-103275000D02*
X65075000Y-103275000D01*
X68275000Y-105575000D02*
X67775000Y-106075000D01*
X68275000Y-105575000D02*
X68275000Y-103275000D01*
D11*
%TO.C,SW5*%
X66675000Y-85725000D02*
X85725000Y-85725000D01*
X66675000Y-104775000D02*
X66675000Y-85725000D01*
X85725000Y-85725000D02*
X85725000Y-104775000D01*
X85725000Y-104775000D02*
X66675000Y-104775000D01*
%TO.C,SW4*%
X47625000Y-85725000D02*
X66675000Y-85725000D01*
X47625000Y-104775000D02*
X47625000Y-85725000D01*
X66675000Y-85725000D02*
X66675000Y-104775000D01*
X66675000Y-104775000D02*
X47625000Y-104775000D01*
%TO.C,SWw1*%
X28575000Y-66675000D02*
X47625000Y-66675000D01*
X28575000Y-85725000D02*
X28575000Y-66675000D01*
X47625000Y-66675000D02*
X47625000Y-85725000D01*
X47625000Y-85725000D02*
X28575000Y-85725000D01*
D10*
%TO.C,D7*%
X64622300Y-84243800D02*
X64622300Y-87043800D01*
X64622300Y-87043800D02*
X67322300Y-87043800D01*
X67822300Y-84243800D02*
X64622300Y-84243800D01*
X67822300Y-86543800D02*
X67322300Y-87043800D01*
X67822300Y-86543800D02*
X67822300Y-84243800D01*
%TO.C,D12*%
X55768700Y-57384100D02*
X55768700Y-60184100D01*
X55768700Y-60184100D02*
X58468700Y-60184100D01*
X58968700Y-57384100D02*
X55768700Y-57384100D01*
X58968700Y-59684100D02*
X58468700Y-60184100D01*
X58968700Y-59684100D02*
X58968700Y-57384100D01*
%TO.C,D6*%
X45960000Y-84226200D02*
X45960000Y-87026200D01*
X45960000Y-87026200D02*
X48660000Y-87026200D01*
X49160000Y-84226200D02*
X45960000Y-84226200D01*
X49160000Y-86526200D02*
X48660000Y-87026200D01*
X49160000Y-86526200D02*
X49160000Y-84226200D01*
%TO.C,D8*%
X46025000Y-65175000D02*
X46025000Y-67975000D01*
X46025000Y-67975000D02*
X48725000Y-67975000D01*
X49225000Y-65175000D02*
X46025000Y-65175000D01*
X49225000Y-67475000D02*
X48725000Y-67975000D01*
X49225000Y-67475000D02*
X49225000Y-65175000D01*
%TO.C,D9*%
X46025000Y-103275000D02*
X46025000Y-106075000D01*
X46025000Y-106075000D02*
X48725000Y-106075000D01*
X49225000Y-103275000D02*
X46025000Y-103275000D01*
X49225000Y-105575000D02*
X48725000Y-106075000D01*
X49225000Y-105575000D02*
X49225000Y-103275000D01*
%TD*%
M02*
