%TF.GenerationSoftware,KiCad,Pcbnew,9.0.7*%
%TF.CreationDate,2026-01-31T12:03:09-06:00*%
%TF.ProjectId,PRO,50524f2e-6b69-4636-9164-5f7063625858,rev?*%
%TF.SameCoordinates,Original*%
%TF.FileFunction,Other,User*%
%FSLAX46Y46*%
G04 Gerber Fmt 4.6, Leading zero omitted, Abs format (unit mm)*
G04 Created by KiCad (PCBNEW 9.0.7) date 2026-01-31 12:03:09*
%MOMM*%
%LPD*%
G01*
G04 APERTURE LIST*
%ADD10C,0.050000*%
G04 APERTURE END LIST*
D10*
%TO.C,RE1*%
X67450000Y-69100000D02*
X67450000Y-83300000D01*
X67450000Y-69100000D02*
X84950000Y-69100000D01*
X84950000Y-83300000D02*
X67450000Y-83300000D01*
X84950000Y-83300000D02*
X84950000Y-69100000D01*
%TO.C,D17*%
X33368800Y-47443700D02*
X33368800Y-49743700D01*
X33368800Y-47443700D02*
X38068800Y-47443700D01*
X38068800Y-47443700D02*
X38068800Y-49743700D01*
X38068800Y-49743700D02*
X33368800Y-49743700D01*
%TO.C,SW2*%
X50550000Y-69600000D02*
X63750000Y-69600000D01*
X50550000Y-82800000D02*
X50550000Y-69600000D01*
X63750000Y-69600000D02*
X63750000Y-82800000D01*
X63750000Y-82800000D02*
X50550000Y-82800000D01*
%TO.C,SW3*%
X31500000Y-88650000D02*
X44700000Y-88650000D01*
X31500000Y-101850000D02*
X31500000Y-88650000D01*
X44700000Y-88650000D02*
X44700000Y-101850000D01*
X44700000Y-101850000D02*
X31500000Y-101850000D01*
%TO.C,SW5*%
X69600000Y-88650000D02*
X82800000Y-88650000D01*
X69600000Y-101850000D02*
X69600000Y-88650000D01*
X82800000Y-88650000D02*
X82800000Y-101850000D01*
X82800000Y-101850000D02*
X69600000Y-101850000D01*
%TO.C,SW4*%
X50550000Y-88650000D02*
X63750000Y-88650000D01*
X50550000Y-101850000D02*
X50550000Y-88650000D01*
X63750000Y-88650000D02*
X63750000Y-101850000D01*
X63750000Y-101850000D02*
X50550000Y-101850000D01*
%TO.C,SWw1*%
X31500000Y-69600000D02*
X44700000Y-69600000D01*
X31500000Y-82800000D02*
X31500000Y-69600000D01*
X44700000Y-69600000D02*
X44700000Y-82800000D01*
X44700000Y-82800000D02*
X31500000Y-82800000D01*
%TO.C,D3*%
X29020000Y-38100000D02*
X38740000Y-38100000D01*
X38740000Y-40600000D01*
X29020000Y-40600000D01*
X29020000Y-38100000D01*
%TO.C,D4*%
X29000000Y-41040000D02*
X38720000Y-41040000D01*
X38720000Y-43540000D01*
X29000000Y-43540000D01*
X29000000Y-41040000D01*
%TO.C,U2*%
X38711300Y-52522500D02*
X42251300Y-52522500D01*
X42251300Y-63682500D01*
X38711300Y-63682500D01*
X38711300Y-52522500D01*
%TO.C,D5*%
X28900000Y-44160000D02*
X38620000Y-44160000D01*
X38620000Y-46660000D01*
X28900000Y-46660000D01*
X28900000Y-44160000D01*
%TO.C,D2*%
X29020000Y-35190000D02*
X38740000Y-35190000D01*
X38740000Y-37690000D01*
X29020000Y-37690000D01*
X29020000Y-35190000D01*
%TO.C,D1*%
X29050000Y-32380000D02*
X38770000Y-32380000D01*
X38770000Y-34880000D01*
X29050000Y-34880000D01*
X29050000Y-32380000D01*
%TD*%
M02*
