%TF.GenerationSoftware,KiCad,Pcbnew,9.0.7*%
%TF.CreationDate,2026-01-31T12:03:09-06:00*%
%TF.ProjectId,PRO,50524f2e-6b69-4636-9164-5f7063625858,rev?*%
%TF.SameCoordinates,Original*%
%TF.FileFunction,Soldermask,Bot*%
%TF.FilePolarity,Negative*%
%FSLAX46Y46*%
G04 Gerber Fmt 4.6, Leading zero omitted, Abs format (unit mm)*
G04 Created by KiCad (PCBNEW 9.0.7) date 2026-01-31 12:03:09*
%MOMM*%
%LPD*%
G01*
G04 APERTURE LIST*
G04 Aperture macros list*
%AMRoundRect*
0 Rectangle with rounded corners*
0 $1 Rounding radius*
0 $2 $3 $4 $5 $6 $7 $8 $9 X,Y pos of 4 corners*
0 Add a 4 corners polygon primitive as box body*
4,1,4,$2,$3,$4,$5,$6,$7,$8,$9,$2,$3,0*
0 Add four circle primitives for the rounded corners*
1,1,$1+$1,$2,$3*
1,1,$1+$1,$4,$5*
1,1,$1+$1,$6,$7*
1,1,$1+$1,$8,$9*
0 Add four rect primitives between the rounded corners*
20,1,$1+$1,$2,$3,$4,$5,0*
20,1,$1+$1,$4,$5,$6,$7,0*
20,1,$1+$1,$6,$7,$8,$9,0*
20,1,$1+$1,$8,$9,$2,$3,0*%
G04 Aperture macros list end*
%ADD10RoundRect,0.082000X-0.368000X0.328000X-0.368000X-0.328000X0.368000X-0.328000X0.368000X0.328000X0*%
%ADD11RoundRect,0.082000X-0.367999X0.328000X-0.367999X-0.328000X0.367999X-0.328000X0.367999X0.328000X0*%
%ADD12R,2.000000X2.000000*%
%ADD13C,2.000000*%
%ADD14R,3.200000X2.000000*%
%ADD15RoundRect,0.082000X0.328000X0.367999X-0.328000X0.367999X-0.328000X-0.367999X0.328000X-0.367999X0*%
%ADD16RoundRect,0.082000X0.328000X0.368000X-0.328000X0.368000X-0.328000X-0.368000X0.328000X-0.368000X0*%
%ADD17RoundRect,0.082000X-0.328000X-0.367999X0.328000X-0.367999X0.328000X0.367999X-0.328000X0.367999X0*%
%ADD18RoundRect,0.082000X-0.328000X-0.368000X0.328000X-0.368000X0.328000X0.368000X-0.328000X0.368000X0*%
%ADD19C,1.700000*%
%ADD20C,4.000000*%
%ADD21C,2.200000*%
%ADD22RoundRect,0.250000X-0.550000X-0.550000X0.550000X-0.550000X0.550000X0.550000X-0.550000X0.550000X0*%
%ADD23C,1.600000*%
%ADD24R,1.700000X1.700000*%
%ADD25R,3.500000X1.700000*%
%ADD26O,3.600000X1.700000*%
%ADD27O,3.700000X1.700000*%
G04 APERTURE END LIST*
D10*
%TO.C,D16*%
X36287500Y-56297158D03*
X36287500Y-57797158D03*
D11*
X30387501Y-57797158D03*
X30387501Y-56297158D03*
%TD*%
D10*
%TO.C,D10*%
X69625000Y-103922158D03*
X69625000Y-105422158D03*
D11*
X63725001Y-105422158D03*
X63725001Y-103922158D03*
%TD*%
%TO.C,D15*%
X77793701Y-57149958D03*
X77793701Y-58649958D03*
D10*
X83693700Y-58649958D03*
X83693700Y-57149958D03*
%TD*%
D12*
%TO.C,RE1*%
X68950000Y-73700000D03*
D13*
X68950000Y-78700000D03*
X68950000Y-76200000D03*
D14*
X76450000Y-70600000D03*
X76450000Y-81800000D03*
D13*
X83450000Y-78700000D03*
X83450000Y-73700000D03*
%TD*%
D15*
%TO.C,D13*%
X71437542Y-34931201D03*
X69937542Y-34931201D03*
D16*
X69937542Y-40831200D03*
X71437542Y-40831200D03*
%TD*%
D17*
%TO.C,D14*%
X41790858Y-41049999D03*
X43290858Y-41049999D03*
D18*
X43290858Y-35150000D03*
X41790858Y-35150000D03*
%TD*%
D19*
%TO.C,SW2*%
X52070000Y-76200000D03*
D20*
X57150000Y-76200000D03*
D19*
X62230000Y-76200000D03*
D21*
X59690000Y-71120000D03*
X53340000Y-73660000D03*
%TD*%
D19*
%TO.C,SW3*%
X33020000Y-95250000D03*
D20*
X38100000Y-95250000D03*
D19*
X43180000Y-95250000D03*
D21*
X40640000Y-90170000D03*
X34290000Y-92710000D03*
%TD*%
D11*
%TO.C,D11*%
X63725001Y-65822158D03*
X63725001Y-67322158D03*
D10*
X69625000Y-67322158D03*
X69625000Y-65822158D03*
%TD*%
D19*
%TO.C,SW5*%
X71120000Y-95250000D03*
D20*
X76200000Y-95250000D03*
D19*
X81280000Y-95250000D03*
D21*
X78740000Y-90170000D03*
X72390000Y-92710000D03*
%TD*%
D19*
%TO.C,SW4*%
X52070000Y-95250000D03*
D20*
X57150000Y-95250000D03*
D19*
X62230000Y-95250000D03*
D21*
X59690000Y-90170000D03*
X53340000Y-92710000D03*
%TD*%
D19*
%TO.C,SWw1*%
X33020000Y-76200000D03*
D20*
X38100000Y-76200000D03*
D19*
X43180000Y-76200000D03*
D21*
X40640000Y-71120000D03*
X34290000Y-73660000D03*
%TD*%
D22*
%TO.C,D3*%
X30070000Y-39350000D03*
D23*
X37690000Y-39350000D03*
%TD*%
D22*
%TO.C,D4*%
X30050000Y-42290000D03*
D23*
X37670000Y-42290000D03*
%TD*%
D24*
%TO.C,U2*%
X40481300Y-54292500D03*
D19*
X40481300Y-56832500D03*
X40481300Y-59372500D03*
X40481300Y-61912500D03*
%TD*%
D11*
%TO.C,D12*%
X54418701Y-58031258D03*
X54418701Y-59531258D03*
D10*
X60318700Y-59531258D03*
X60318700Y-58031258D03*
%TD*%
D22*
%TO.C,D5*%
X29950000Y-45410000D03*
D23*
X37570000Y-45410000D03*
%TD*%
D22*
%TO.C,D2*%
X30070000Y-36440000D03*
D23*
X37690000Y-36440000D03*
%TD*%
D22*
%TO.C,D1*%
X30100000Y-33630000D03*
D23*
X37720000Y-33630000D03*
%TD*%
D11*
%TO.C,D6*%
X44610001Y-84873358D03*
X44610001Y-86373358D03*
D10*
X50510000Y-86373358D03*
X50510000Y-84873358D03*
%TD*%
D11*
%TO.C,D8*%
X44675001Y-65822158D03*
X44675001Y-67322158D03*
D10*
X50575000Y-67322158D03*
X50575000Y-65822158D03*
%TD*%
D11*
%TO.C,D9*%
X44675001Y-103922158D03*
X44675001Y-105422158D03*
D10*
X50575000Y-105422158D03*
X50575000Y-103922158D03*
%TD*%
D25*
%TO.C,U1*%
X65775000Y-30162500D03*
D26*
X65775000Y-32702500D03*
X65775000Y-35242500D03*
X65775000Y-37782500D03*
X65775000Y-40322500D03*
X65775000Y-42862500D03*
X65775000Y-45402500D03*
X48525000Y-45402500D03*
X48525000Y-42862500D03*
X48525000Y-40322500D03*
D27*
X48525000Y-37782500D03*
X48525000Y-35242500D03*
X48525000Y-32702500D03*
X48525000Y-30162500D03*
%TD*%
D11*
%TO.C,D7*%
X63272301Y-84890958D03*
X63272301Y-86390958D03*
D10*
X69172300Y-86390958D03*
X69172300Y-84890958D03*
%TD*%
M02*
